<svg width="815" height="129" viewBox="0 0 815 129" fill="none" xmlns="http://www.w3.org/2000/svg">
<mask id="path-1-outside-1_616_898" maskUnits="userSpaceOnUse" x="0" y="0" width="815" height="129" fill="black">
<rect fill="white" width="815" height="129"/>
<path d="M2 125.385V4.26098H44.7387C52.2367 4.26098 58.8778 5.06848 64.662 6.68347C70.4462 8.29845 75.2664 10.5056 79.1225 13.3049C83.0857 16.1042 86.085 19.4957 88.1201 23.4793C90.1553 27.3553 91.1729 31.5543 91.1729 36.0762C91.1729 43.0745 89.1377 48.727 85.0674 53.0336C81.1041 57.3402 75.1593 59.4935 67.2328 59.4935V64.823C77.0873 64.823 84.4782 67.1378 89.4055 71.7674C94.3328 76.3971 96.7964 83.0723 96.7964 91.7933C96.7964 96.7459 95.7788 101.268 93.7436 105.359C91.7085 109.45 88.7093 113.003 84.746 116.018C80.8899 118.925 76.0697 121.24 70.2856 122.963C64.5014 124.578 57.8603 125.385 50.3622 125.385H2ZM50.3622 105.359C57.9674 105.359 63.7516 103.96 67.7148 101.16C71.7852 98.3609 73.8203 94.3773 73.8203 89.2093C73.8203 83.3953 71.7852 79.2502 67.7148 76.7739C63.7516 74.2976 57.9674 73.0594 50.3622 73.0594H23.8514V105.359H50.3622ZM44.7387 53.1951C52.3439 53.1951 58.128 52.0108 62.0913 49.6421C66.1616 47.1658 68.1968 43.5052 68.1968 38.6602C68.1968 33.8152 66.1616 30.2084 62.0913 27.8398C58.128 25.3635 52.3439 24.1253 44.7387 24.1253H23.8514V53.1951H44.7387ZM111.52 71.283V4.26098H133.533V71.283C133.533 83.3415 135.728 92.3316 140.12 98.2532C144.512 104.067 151.635 106.974 161.489 106.974C171.344 106.974 178.467 104.067 182.859 98.2532C187.25 92.3316 189.446 83.3415 189.446 71.283V4.26098H211.458V71.283C211.458 80.1115 210.441 87.9711 208.406 94.8618C206.478 101.752 203.478 107.62 199.408 112.465C195.338 117.202 190.143 120.809 183.823 123.286C177.61 125.762 170.166 127 161.489 127C152.813 127 145.315 125.762 138.995 123.286C132.783 120.809 127.641 117.202 123.571 112.465C119.501 107.62 116.448 101.752 114.413 94.8618C112.485 87.9711 111.52 80.1115 111.52 71.283ZM226.401 87.7558H249.698C249.698 90.4475 250.341 92.9776 251.626 95.3463C253.019 97.7149 254.947 99.7606 257.411 101.483C259.874 103.206 262.82 104.552 266.247 105.521C269.782 106.49 273.638 106.974 277.816 106.974C286.278 106.974 293.08 105.628 298.221 102.937C303.363 100.245 305.933 96.0461 305.933 90.3398C305.933 86.7868 304.809 83.9337 302.559 81.7804C300.417 79.627 297.579 77.9044 294.044 76.6124C290.509 75.3204 286.439 74.2976 281.833 73.5439C277.334 72.7903 272.728 71.9828 268.015 71.1215C263.302 70.1525 258.642 69.022 254.036 67.73C249.538 66.3303 245.521 64.3923 241.986 61.916C238.451 59.4397 235.559 56.2636 233.31 52.3876C231.167 48.5116 230.096 43.6128 230.096 37.6912C230.096 32.6309 231.06 27.9475 232.988 23.6408C235.024 19.2265 238.023 15.4582 241.986 12.3359C245.949 9.10595 250.877 6.5758 256.768 4.74548C262.766 2.91516 269.782 2 277.816 2C285.849 2 292.812 3.02282 298.703 5.06847C304.595 7.00646 309.522 9.64427 313.485 12.9819C317.448 16.3196 320.394 20.1955 322.322 24.6098C324.357 29.0241 325.428 33.7076 325.535 38.6602H302.238C302.238 36.6146 301.756 34.6227 300.792 32.6848C299.828 30.6391 298.328 28.8088 296.293 27.1938C294.365 25.5788 291.848 24.2868 288.742 23.3178C285.635 22.3488 281.993 21.8643 277.816 21.8643C269.354 21.8643 263.141 23.3178 259.178 26.2248C255.322 29.0241 253.394 32.8463 253.394 37.6912C253.394 40.9212 254.465 43.4513 256.607 45.2817C258.857 47.0043 261.749 48.4578 265.283 49.6421C268.818 50.7188 272.835 51.5801 277.334 52.2261C281.94 52.8721 286.599 53.6796 291.312 54.6486C296.025 55.5099 300.631 56.6942 305.13 58.2015C309.736 59.6012 313.806 61.6469 317.341 64.3385C320.876 67.0301 323.714 70.4755 325.857 74.6744C328.106 78.7657 329.231 83.9875 329.231 90.3398C329.231 95.7231 328.053 100.676 325.696 105.198C323.34 109.72 319.912 113.596 315.413 116.826C311.021 120.056 305.666 122.586 299.346 124.416C293.026 126.139 285.849 127 277.816 127C269.782 127 262.606 126.031 256.286 124.093C250.073 122.047 244.717 119.302 240.219 115.857C235.827 112.304 232.453 108.158 230.096 103.421C227.74 98.5762 226.508 93.3544 226.401 87.7558ZM344.212 4.26098H366.224V125.385H344.212V4.26098ZM410.353 4.26098L445.379 59.978C448.485 65.146 451.003 69.8833 452.931 74.1899C454.966 78.3889 456.626 82.5879 457.911 86.7868L463.053 85.4948C462.303 83.1262 461.607 80.7575 460.964 78.3889C460.322 76.0202 459.786 73.4901 459.357 70.7984C458.929 68.1068 458.608 65.146 458.393 61.916C458.179 58.6861 458.072 55.0792 458.072 51.0956V4.26098H480.727V125.385H457.108L422.242 69.668C418.815 64.0693 416.137 59.2244 414.209 55.1331C412.281 50.9341 410.62 46.6813 409.228 42.3747L404.247 43.8282C404.997 46.0891 405.693 48.404 406.336 50.7726C406.978 53.1413 407.514 55.6714 407.943 58.3631C408.371 61.0547 408.692 64.0155 408.907 67.2455C409.228 70.4754 409.389 74.0823 409.389 78.0659V125.385H386.734V4.26098H410.353ZM501.275 125.385V4.26098H585.146V24.1253H523.287V54.8101H580.326V74.6744H523.287V105.359H585.146V125.385H501.275ZM597.327 87.7558H620.624C620.624 90.4475 621.267 92.9776 622.552 95.3463C623.945 97.7149 625.873 99.7606 628.337 101.483C630.8 103.206 633.746 104.552 637.174 105.521C640.708 106.49 644.564 106.974 648.742 106.974C657.204 106.974 664.006 105.628 669.147 102.937C674.289 100.245 676.859 96.0461 676.859 90.3398C676.859 86.7868 675.735 83.9337 673.485 81.7804C671.343 79.627 668.505 77.9044 664.97 76.6124C661.435 75.3204 657.365 74.2976 652.759 73.5439C648.26 72.7903 643.654 71.9828 638.941 71.1215C634.228 70.1525 629.568 69.022 624.963 67.73C620.464 66.3303 616.447 64.3923 612.912 61.916C609.377 59.4397 606.485 56.2636 604.236 52.3876C602.094 48.5116 601.022 43.6128 601.022 37.6912C601.022 32.6309 601.986 27.9475 603.914 23.6408C605.95 19.2265 608.949 15.4582 612.912 12.3359C616.875 9.10595 621.803 6.5758 627.694 4.74548C633.692 2.91516 640.708 2 648.742 2C656.776 2 663.738 3.02282 669.629 5.06847C675.521 7.00646 680.448 9.64427 684.411 12.9819C688.374 16.3196 691.32 20.1955 693.248 24.6098C695.283 29.0241 696.354 33.7076 696.461 38.6602H673.164C673.164 36.6146 672.682 34.6227 671.718 32.6848C670.754 30.6391 669.254 28.8088 667.219 27.1938C665.291 25.5788 662.774 24.2868 659.668 23.3178C656.561 22.3488 652.919 21.8643 648.742 21.8643C640.28 21.8643 634.067 23.3178 630.104 26.2248C626.248 29.0241 624.32 32.8463 624.32 37.6912C624.32 40.9212 625.391 43.4513 627.533 45.2817C629.783 47.0043 632.675 48.4578 636.21 49.6421C639.744 50.7188 643.761 51.5801 648.26 52.2261C652.866 52.8721 657.525 53.6796 662.238 54.6486C666.951 55.5099 671.557 56.6942 676.056 58.2015C680.662 59.6012 684.732 61.6469 688.267 64.3385C691.802 67.0301 694.641 70.4755 696.783 74.6744C699.032 78.7657 700.157 83.9875 700.157 90.3398C700.157 95.7231 698.979 100.676 696.622 105.198C694.266 109.72 690.838 113.596 686.339 116.826C681.948 120.056 676.592 122.586 670.272 124.416C663.952 126.139 656.776 127 648.742 127C640.708 127 633.532 126.031 627.212 124.093C620.999 122.047 615.644 119.302 611.145 115.857C606.753 112.304 603.379 108.158 601.022 103.421C598.666 98.5762 597.434 93.3544 597.327 87.7558ZM709.515 87.7558H732.812C732.812 90.4475 733.455 92.9776 734.74 95.3463C736.133 97.7149 738.061 99.7606 740.524 101.483C742.988 103.206 745.934 104.552 749.361 105.521C752.896 106.49 756.752 106.974 760.93 106.974C769.392 106.974 776.194 105.628 781.335 102.937C786.477 100.245 789.047 96.0461 789.047 90.3398C789.047 86.7868 787.923 83.9337 785.673 81.7804C783.531 79.627 780.692 77.9044 777.158 76.6124C773.623 75.3204 769.553 74.2976 764.947 73.5439C760.448 72.7903 755.842 71.9828 751.129 71.1215C746.416 70.1525 741.756 69.022 737.15 67.73C732.652 66.3303 728.635 64.3923 725.1 61.916C721.565 59.4397 718.673 56.2636 716.424 52.3876C714.281 48.5116 713.21 43.6128 713.21 37.6912C713.21 32.6309 714.174 27.9475 716.102 23.6408C718.138 19.2265 721.137 15.4582 725.1 12.3359C729.063 9.10595 733.99 6.5758 739.882 4.74548C745.88 2.91516 752.896 2 760.93 2C768.963 2 775.926 3.02282 781.817 5.06847C787.708 7.00646 792.636 9.64427 796.599 12.9819C800.562 16.3196 803.508 20.1955 805.436 24.6098C807.471 29.0241 808.542 33.7076 808.649 38.6602H785.352C785.352 36.6146 784.87 34.6227 783.906 32.6848C782.942 30.6391 781.442 28.8088 779.407 27.1938C777.479 25.5788 774.962 24.2868 771.856 23.3178C768.749 22.3488 765.107 21.8643 760.93 21.8643C752.468 21.8643 746.255 23.3178 742.292 26.2248C738.436 29.0241 736.508 32.8463 736.508 37.6912C736.508 40.9212 737.579 43.4513 739.721 45.2817C741.971 47.0043 744.863 48.4578 748.397 49.6421C751.932 50.7188 755.949 51.5801 760.448 52.2261C765.054 52.8721 769.713 53.6796 774.426 54.6486C779.139 55.5099 783.745 56.6942 788.244 58.2015C792.85 59.6012 796.92 61.6469 800.455 64.3385C803.99 67.0301 806.828 70.4755 808.971 74.6744C811.22 78.7657 812.345 83.9875 812.345 90.3398C812.345 95.7231 811.167 100.676 808.81 105.198C806.453 109.72 803.026 113.596 798.527 116.826C794.135 120.056 788.78 122.586 782.46 124.416C776.14 126.139 768.963 127 760.93 127C752.896 127 745.72 126.031 739.4 124.093C733.187 122.047 727.831 119.302 723.333 115.857C718.941 112.304 715.567 108.158 713.21 103.421C710.854 98.5762 709.622 93.3544 709.515 87.7558Z"/>
</mask>
<path d="M2 125.385V4.26098H44.7387C52.2367 4.26098 58.8778 5.06848 64.662 6.68347C70.4462 8.29845 75.2664 10.5056 79.1225 13.3049C83.0857 16.1042 86.085 19.4957 88.1201 23.4793C90.1553 27.3553 91.1729 31.5543 91.1729 36.0762C91.1729 43.0745 89.1377 48.727 85.0674 53.0336C81.1041 57.3402 75.1593 59.4935 67.2328 59.4935V64.823C77.0873 64.823 84.4782 67.1378 89.4055 71.7674C94.3328 76.3971 96.7964 83.0723 96.7964 91.7933C96.7964 96.7459 95.7788 101.268 93.7436 105.359C91.7085 109.45 88.7093 113.003 84.746 116.018C80.8899 118.925 76.0697 121.24 70.2856 122.963C64.5014 124.578 57.8603 125.385 50.3622 125.385H2ZM50.3622 105.359C57.9674 105.359 63.7516 103.96 67.7148 101.16C71.7852 98.3609 73.8203 94.3773 73.8203 89.2093C73.8203 83.3953 71.7852 79.2502 67.7148 76.7739C63.7516 74.2976 57.9674 73.0594 50.3622 73.0594H23.8514V105.359H50.3622ZM44.7387 53.1951C52.3439 53.1951 58.128 52.0108 62.0913 49.6421C66.1616 47.1658 68.1968 43.5052 68.1968 38.6602C68.1968 33.8152 66.1616 30.2084 62.0913 27.8398C58.128 25.3635 52.3439 24.1253 44.7387 24.1253H23.8514V53.1951H44.7387ZM111.52 71.283V4.26098H133.533V71.283C133.533 83.3415 135.728 92.3316 140.12 98.2532C144.512 104.067 151.635 106.974 161.489 106.974C171.344 106.974 178.467 104.067 182.859 98.2532C187.25 92.3316 189.446 83.3415 189.446 71.283V4.26098H211.458V71.283C211.458 80.1115 210.441 87.9711 208.406 94.8618C206.478 101.752 203.478 107.62 199.408 112.465C195.338 117.202 190.143 120.809 183.823 123.286C177.61 125.762 170.166 127 161.489 127C152.813 127 145.315 125.762 138.995 123.286C132.783 120.809 127.641 117.202 123.571 112.465C119.501 107.62 116.448 101.752 114.413 94.8618C112.485 87.9711 111.52 80.1115 111.52 71.283ZM226.401 87.7558H249.698C249.698 90.4475 250.341 92.9776 251.626 95.3463C253.019 97.7149 254.947 99.7606 257.411 101.483C259.874 103.206 262.82 104.552 266.247 105.521C269.782 106.49 273.638 106.974 277.816 106.974C286.278 106.974 293.08 105.628 298.221 102.937C303.363 100.245 305.933 96.0461 305.933 90.3398C305.933 86.7868 304.809 83.9337 302.559 81.7804C300.417 79.627 297.579 77.9044 294.044 76.6124C290.509 75.3204 286.439 74.2976 281.833 73.5439C277.334 72.7903 272.728 71.9828 268.015 71.1215C263.302 70.1525 258.642 69.022 254.036 67.73C249.538 66.3303 245.521 64.3923 241.986 61.916C238.451 59.4397 235.559 56.2636 233.31 52.3876C231.167 48.5116 230.096 43.6128 230.096 37.6912C230.096 32.6309 231.06 27.9475 232.988 23.6408C235.024 19.2265 238.023 15.4582 241.986 12.3359C245.949 9.10595 250.877 6.5758 256.768 4.74548C262.766 2.91516 269.782 2 277.816 2C285.849 2 292.812 3.02282 298.703 5.06847C304.595 7.00646 309.522 9.64427 313.485 12.9819C317.448 16.3196 320.394 20.1955 322.322 24.6098C324.357 29.0241 325.428 33.7076 325.535 38.6602H302.238C302.238 36.6146 301.756 34.6227 300.792 32.6848C299.828 30.6391 298.328 28.8088 296.293 27.1938C294.365 25.5788 291.848 24.2868 288.742 23.3178C285.635 22.3488 281.993 21.8643 277.816 21.8643C269.354 21.8643 263.141 23.3178 259.178 26.2248C255.322 29.0241 253.394 32.8463 253.394 37.6912C253.394 40.9212 254.465 43.4513 256.607 45.2817C258.857 47.0043 261.749 48.4578 265.283 49.6421C268.818 50.7188 272.835 51.5801 277.334 52.2261C281.94 52.8721 286.599 53.6796 291.312 54.6486C296.025 55.5099 300.631 56.6942 305.13 58.2015C309.736 59.6012 313.806 61.6469 317.341 64.3385C320.876 67.0301 323.714 70.4755 325.857 74.6744C328.106 78.7657 329.231 83.9875 329.231 90.3398C329.231 95.7231 328.053 100.676 325.696 105.198C323.34 109.72 319.912 113.596 315.413 116.826C311.021 120.056 305.666 122.586 299.346 124.416C293.026 126.139 285.849 127 277.816 127C269.782 127 262.606 126.031 256.286 124.093C250.073 122.047 244.717 119.302 240.219 115.857C235.827 112.304 232.453 108.158 230.096 103.421C227.74 98.5762 226.508 93.3544 226.401 87.7558ZM344.212 4.26098H366.224V125.385H344.212V4.26098ZM410.353 4.26098L445.379 59.978C448.485 65.146 451.003 69.8833 452.931 74.1899C454.966 78.3889 456.626 82.5879 457.911 86.7868L463.053 85.4948C462.303 83.1262 461.607 80.7575 460.964 78.3889C460.322 76.0202 459.786 73.4901 459.357 70.7984C458.929 68.1068 458.608 65.146 458.393 61.916C458.179 58.6861 458.072 55.0792 458.072 51.0956V4.26098H480.727V125.385H457.108L422.242 69.668C418.815 64.0693 416.137 59.2244 414.209 55.1331C412.281 50.9341 410.62 46.6813 409.228 42.3747L404.247 43.8282C404.997 46.0891 405.693 48.404 406.336 50.7726C406.978 53.1413 407.514 55.6714 407.943 58.3631C408.371 61.0547 408.692 64.0155 408.907 67.2455C409.228 70.4754 409.389 74.0823 409.389 78.0659V125.385H386.734V4.26098H410.353ZM501.275 125.385V4.26098H585.146V24.1253H523.287V54.8101H580.326V74.6744H523.287V105.359H585.146V125.385H501.275ZM597.327 87.7558H620.624C620.624 90.4475 621.267 92.9776 622.552 95.3463C623.945 97.7149 625.873 99.7606 628.337 101.483C630.8 103.206 633.746 104.552 637.174 105.521C640.708 106.49 644.564 106.974 648.742 106.974C657.204 106.974 664.006 105.628 669.147 102.937C674.289 100.245 676.859 96.0461 676.859 90.3398C676.859 86.7868 675.735 83.9337 673.485 81.7804C671.343 79.627 668.505 77.9044 664.97 76.6124C661.435 75.3204 657.365 74.2976 652.759 73.5439C648.26 72.7903 643.654 71.9828 638.941 71.1215C634.228 70.1525 629.568 69.022 624.963 67.73C620.464 66.3303 616.447 64.3923 612.912 61.916C609.377 59.4397 606.485 56.2636 604.236 52.3876C602.094 48.5116 601.022 43.6128 601.022 37.6912C601.022 32.6309 601.986 27.9475 603.914 23.6408C605.95 19.2265 608.949 15.4582 612.912 12.3359C616.875 9.10595 621.803 6.5758 627.694 4.74548C633.692 2.91516 640.708 2 648.742 2C656.776 2 663.738 3.02282 669.629 5.06847C675.521 7.00646 680.448 9.64427 684.411 12.9819C688.374 16.3196 691.32 20.1955 693.248 24.6098C695.283 29.0241 696.354 33.7076 696.461 38.6602H673.164C673.164 36.6146 672.682 34.6227 671.718 32.6848C670.754 30.6391 669.254 28.8088 667.219 27.1938C665.291 25.5788 662.774 24.2868 659.668 23.3178C656.561 22.3488 652.919 21.8643 648.742 21.8643C640.28 21.8643 634.067 23.3178 630.104 26.2248C626.248 29.0241 624.32 32.8463 624.32 37.6912C624.32 40.9212 625.391 43.4513 627.533 45.2817C629.783 47.0043 632.675 48.4578 636.21 49.6421C639.744 50.7188 643.761 51.5801 648.26 52.2261C652.866 52.8721 657.525 53.6796 662.238 54.6486C666.951 55.5099 671.557 56.6942 676.056 58.2015C680.662 59.6012 684.732 61.6469 688.267 64.3385C691.802 67.0301 694.641 70.4755 696.783 74.6744C699.032 78.7657 700.157 83.9875 700.157 90.3398C700.157 95.7231 698.979 100.676 696.622 105.198C694.266 109.72 690.838 113.596 686.339 116.826C681.948 120.056 676.592 122.586 670.272 124.416C663.952 126.139 656.776 127 648.742 127C640.708 127 633.532 126.031 627.212 124.093C620.999 122.047 615.644 119.302 611.145 115.857C606.753 112.304 603.379 108.158 601.022 103.421C598.666 98.5762 597.434 93.3544 597.327 87.7558ZM709.515 87.7558H732.812C732.812 90.4475 733.455 92.9776 734.74 95.3463C736.133 97.7149 738.061 99.7606 740.524 101.483C742.988 103.206 745.934 104.552 749.361 105.521C752.896 106.49 756.752 106.974 760.93 106.974C769.392 106.974 776.194 105.628 781.335 102.937C786.477 100.245 789.047 96.0461 789.047 90.3398C789.047 86.7868 787.923 83.9337 785.673 81.7804C783.531 79.627 780.692 77.9044 777.158 76.6124C773.623 75.3204 769.553 74.2976 764.947 73.5439C760.448 72.7903 755.842 71.9828 751.129 71.1215C746.416 70.1525 741.756 69.022 737.15 67.73C732.652 66.3303 728.635 64.3923 725.1 61.916C721.565 59.4397 718.673 56.2636 716.424 52.3876C714.281 48.5116 713.21 43.6128 713.21 37.6912C713.21 32.6309 714.174 27.9475 716.102 23.6408C718.138 19.2265 721.137 15.4582 725.1 12.3359C729.063 9.10595 733.99 6.5758 739.882 4.74548C745.88 2.91516 752.896 2 760.93 2C768.963 2 775.926 3.02282 781.817 5.06847C787.708 7.00646 792.636 9.64427 796.599 12.9819C800.562 16.3196 803.508 20.1955 805.436 24.6098C807.471 29.0241 808.542 33.7076 808.649 38.6602H785.352C785.352 36.6146 784.87 34.6227 783.906 32.6848C782.942 30.6391 781.442 28.8088 779.407 27.1938C777.479 25.5788 774.962 24.2868 771.856 23.3178C768.749 22.3488 765.107 21.8643 760.93 21.8643C752.468 21.8643 746.255 23.3178 742.292 26.2248C738.436 29.0241 736.508 32.8463 736.508 37.6912C736.508 40.9212 737.579 43.4513 739.721 45.2817C741.971 47.0043 744.863 48.4578 748.397 49.6421C751.932 50.7188 755.949 51.5801 760.448 52.2261C765.054 52.8721 769.713 53.6796 774.426 54.6486C779.139 55.5099 783.745 56.6942 788.244 58.2015C792.85 59.6012 796.92 61.6469 800.455 64.3385C803.99 67.0301 806.828 70.4755 808.971 74.6744C811.22 78.7657 812.345 83.9875 812.345 90.3398C812.345 95.7231 811.167 100.676 808.81 105.198C806.453 109.72 803.026 113.596 798.527 116.826C794.135 120.056 788.78 122.586 782.46 124.416C776.14 126.139 768.963 127 760.93 127C752.896 127 745.72 126.031 739.4 124.093C733.187 122.047 727.831 119.302 723.333 115.857C718.941 112.304 715.567 108.158 713.21 103.421C710.854 98.5762 709.622 93.3544 709.515 87.7558Z" stroke="white" stroke-opacity="0.6" stroke-width="4" mask="url(#path-1-outside-1_616_898)"/>
</svg>
