<svg width="633" height="129" viewBox="0 0 633 129" fill="none" xmlns="http://www.w3.org/2000/svg">
<mask id="path-1-outside-1_626_1290" maskUnits="userSpaceOnUse" x="0" y="0" width="633" height="129" fill="black">
<rect fill="white" width="633" height="129"/>
<path d="M3 87.7558H26.4173C26.4173 90.4475 27.0633 92.9776 28.3553 95.3463C29.755 97.7149 31.6929 99.7606 34.1693 101.483C36.6456 103.206 39.6064 104.552 43.0517 105.521C46.6046 106.49 50.4806 106.974 54.6796 106.974C63.1852 106.974 70.022 105.628 75.1899 102.937C80.3579 100.245 82.9419 96.0461 82.9419 90.3398C82.9419 86.7868 81.8114 83.9337 79.5504 81.7804C77.3971 79.627 74.5439 77.9044 70.991 76.6124C67.438 75.3204 63.3467 74.2976 58.7171 73.5439C54.1951 72.7903 49.5655 71.9828 44.8282 71.1214C40.0909 70.1525 35.4074 69.022 30.7778 67.73C26.2558 66.3303 22.2183 64.3923 18.6654 61.916C15.1124 59.4397 12.2054 56.2636 9.94444 52.3876C7.79113 48.5116 6.71447 43.6128 6.71447 37.6912C6.71447 32.6309 7.68346 27.9475 9.62145 23.6408C11.6671 19.2265 14.6817 15.4582 18.6654 12.3359C22.649 9.10595 27.6016 6.5758 33.5233 4.74548C39.5525 2.91516 46.6046 2 54.6796 2C62.7545 2 69.7528 3.02282 75.6744 5.06847C81.596 7.00646 86.5487 9.64427 90.5323 12.9819C94.5159 16.3196 97.4767 20.1955 99.4147 24.6098C101.46 29.0241 102.537 33.7076 102.645 38.6602H79.2274C79.2274 36.6146 78.7429 34.6227 77.7739 32.6848C76.8049 30.6391 75.2976 28.8088 73.2519 27.1938C71.3139 25.5788 68.7838 24.2868 65.6615 23.3178C62.5392 22.3488 58.8785 21.8643 54.6796 21.8643C46.174 21.8643 39.9294 23.3178 35.9457 26.2248C32.0698 29.0241 30.1318 32.8463 30.1318 37.6912C30.1318 40.9212 31.2084 43.4513 33.3618 45.2817C35.6227 47.0043 38.5297 48.4578 42.0827 49.6421C45.6357 50.7188 49.6731 51.5801 54.1951 52.2261C58.8247 52.8721 63.5082 53.6796 68.2455 54.6486C72.9828 55.5099 77.6124 56.6942 82.1344 58.2016C86.764 59.6012 90.8553 61.6469 94.4083 64.3385C97.9612 67.0302 100.814 70.4755 102.968 74.6744C105.229 78.7657 106.359 83.9875 106.359 90.3398C106.359 95.7231 105.175 100.676 102.806 105.198C100.438 109.72 96.9922 113.596 92.4703 116.826C88.056 120.056 82.6727 122.586 76.3204 124.416C69.9681 126.139 62.7545 127 54.6796 127C46.6046 127 39.391 126.031 33.0388 124.093C26.7941 122.047 21.4109 119.302 16.8889 115.857C12.4746 112.304 9.08312 108.158 6.71447 103.421C4.34582 98.5762 3.10767 93.3544 3 87.7558ZM119.803 64.823C119.803 54.9177 121.095 46.143 123.679 38.4987C126.263 30.7468 130.031 24.233 134.984 18.9574C140.044 13.5741 146.235 9.53661 153.556 6.84497C160.877 4.04565 169.275 2.646 178.75 2.646C188.224 2.646 196.622 4.04565 203.943 6.84497C211.265 9.53661 217.402 13.5741 222.354 18.9574C227.415 24.233 231.237 30.7468 233.821 38.4987C236.405 46.143 237.697 54.9177 237.697 64.823C237.697 74.7282 236.405 83.5568 233.821 91.3088C231.237 98.9531 227.415 105.467 222.354 110.85C217.402 116.126 211.265 120.163 203.943 122.963C196.622 125.654 188.224 127 178.75 127C169.275 127 160.877 125.654 153.556 122.963C146.235 120.163 140.044 116.126 134.984 110.85C130.031 105.467 126.263 98.9531 123.679 91.3088C121.095 83.5568 119.803 74.7282 119.803 64.823ZM143.22 64.823C143.22 78.9272 146.235 89.4785 152.264 96.4767C158.401 103.475 167.229 106.974 178.75 106.974C190.27 106.974 199.045 103.475 205.074 96.4767C211.211 89.4785 214.279 78.9272 214.279 64.823C214.279 50.7188 211.211 40.1675 205.074 33.1693C199.045 26.0633 190.27 22.5103 178.75 22.5103C167.229 22.5103 158.401 26.0633 152.264 33.1693C146.235 40.1675 143.22 50.7188 143.22 64.823ZM314.068 127C304.593 127 296.195 125.654 288.874 122.963C281.553 120.163 275.362 116.126 270.302 110.85C265.349 105.467 261.581 98.9531 258.997 91.3088C256.413 83.5568 255.121 74.7282 255.121 64.823C255.121 54.9177 256.413 46.143 258.997 38.4987C261.581 30.7468 265.349 24.233 270.302 18.9574C275.362 13.5741 281.553 9.53661 288.874 6.84497C296.195 4.04565 304.593 2.646 314.068 2.646C330.218 2.646 343.084 6.52197 352.666 14.2739C362.356 22.0258 368.116 33.2231 369.947 47.8656H346.045C344.753 39.4677 341.307 33.1693 335.709 28.9703C330.218 24.6637 323.004 22.5103 314.068 22.5103C302.548 22.5103 293.719 26.0633 287.582 33.1693C281.553 40.1675 278.538 50.7188 278.538 64.823C278.538 78.9272 281.553 89.4785 287.582 96.4767C293.719 103.475 302.548 106.974 314.068 106.974C323.004 106.974 330.218 104.875 335.709 100.676C341.2 96.4767 344.645 90.1783 346.045 81.7804H369.947C368.116 96.4229 362.356 107.62 352.666 115.372C343.084 123.124 330.218 127 314.068 127ZM389.058 4.26098H411.183V125.385H389.058V4.26098ZM471.042 4.26098H493.167L538.064 125.385H514.647L505.441 99.5452H458.768L449.563 125.385H426.146L471.042 4.26098ZM465.874 79.6809H498.335L488.322 52.2261C487.246 49.4268 486.385 46.5736 485.739 43.6667C485.093 40.652 484.77 37.745 484.77 34.9457V30.4238H479.44V34.9457C479.44 37.745 479.117 40.652 478.471 43.6667C477.825 46.5736 477.018 49.4268 476.049 52.2261L465.874 79.6809ZM575.205 4.26098V105.844H630.922V125.385H553.08V4.26098H575.205Z"/>
</mask>
<path d="M3 87.7558H26.4173C26.4173 90.4475 27.0633 92.9776 28.3553 95.3463C29.755 97.7149 31.6929 99.7606 34.1693 101.483C36.6456 103.206 39.6064 104.552 43.0517 105.521C46.6046 106.49 50.4806 106.974 54.6796 106.974C63.1852 106.974 70.022 105.628 75.1899 102.937C80.3579 100.245 82.9419 96.0461 82.9419 90.3398C82.9419 86.7868 81.8114 83.9337 79.5504 81.7804C77.3971 79.627 74.5439 77.9044 70.991 76.6124C67.438 75.3204 63.3467 74.2976 58.7171 73.5439C54.1951 72.7903 49.5655 71.9828 44.8282 71.1214C40.0909 70.1525 35.4074 69.022 30.7778 67.73C26.2558 66.3303 22.2183 64.3923 18.6654 61.916C15.1124 59.4397 12.2054 56.2636 9.94444 52.3876C7.79113 48.5116 6.71447 43.6128 6.71447 37.6912C6.71447 32.6309 7.68346 27.9475 9.62145 23.6408C11.6671 19.2265 14.6817 15.4582 18.6654 12.3359C22.649 9.10595 27.6016 6.5758 33.5233 4.74548C39.5525 2.91516 46.6046 2 54.6796 2C62.7545 2 69.7528 3.02282 75.6744 5.06847C81.596 7.00646 86.5487 9.64427 90.5323 12.9819C94.5159 16.3196 97.4767 20.1955 99.4147 24.6098C101.46 29.0241 102.537 33.7076 102.645 38.6602H79.2274C79.2274 36.6146 78.7429 34.6227 77.7739 32.6848C76.8049 30.6391 75.2976 28.8088 73.2519 27.1938C71.3139 25.5788 68.7838 24.2868 65.6615 23.3178C62.5392 22.3488 58.8785 21.8643 54.6796 21.8643C46.174 21.8643 39.9294 23.3178 35.9457 26.2248C32.0698 29.0241 30.1318 32.8463 30.1318 37.6912C30.1318 40.9212 31.2084 43.4513 33.3618 45.2817C35.6227 47.0043 38.5297 48.4578 42.0827 49.6421C45.6357 50.7188 49.6731 51.5801 54.1951 52.2261C58.8247 52.8721 63.5082 53.6796 68.2455 54.6486C72.9828 55.5099 77.6124 56.6942 82.1344 58.2016C86.764 59.6012 90.8553 61.6469 94.4083 64.3385C97.9612 67.0302 100.814 70.4755 102.968 74.6744C105.229 78.7657 106.359 83.9875 106.359 90.3398C106.359 95.7231 105.175 100.676 102.806 105.198C100.438 109.72 96.9922 113.596 92.4703 116.826C88.056 120.056 82.6727 122.586 76.3204 124.416C69.9681 126.139 62.7545 127 54.6796 127C46.6046 127 39.391 126.031 33.0388 124.093C26.7941 122.047 21.4109 119.302 16.8889 115.857C12.4746 112.304 9.08312 108.158 6.71447 103.421C4.34582 98.5762 3.10767 93.3544 3 87.7558ZM119.803 64.823C119.803 54.9177 121.095 46.143 123.679 38.4987C126.263 30.7468 130.031 24.233 134.984 18.9574C140.044 13.5741 146.235 9.53661 153.556 6.84497C160.877 4.04565 169.275 2.646 178.75 2.646C188.224 2.646 196.622 4.04565 203.943 6.84497C211.265 9.53661 217.402 13.5741 222.354 18.9574C227.415 24.233 231.237 30.7468 233.821 38.4987C236.405 46.143 237.697 54.9177 237.697 64.823C237.697 74.7282 236.405 83.5568 233.821 91.3088C231.237 98.9531 227.415 105.467 222.354 110.85C217.402 116.126 211.265 120.163 203.943 122.963C196.622 125.654 188.224 127 178.75 127C169.275 127 160.877 125.654 153.556 122.963C146.235 120.163 140.044 116.126 134.984 110.85C130.031 105.467 126.263 98.9531 123.679 91.3088C121.095 83.5568 119.803 74.7282 119.803 64.823ZM143.22 64.823C143.22 78.9272 146.235 89.4785 152.264 96.4767C158.401 103.475 167.229 106.974 178.75 106.974C190.27 106.974 199.045 103.475 205.074 96.4767C211.211 89.4785 214.279 78.9272 214.279 64.823C214.279 50.7188 211.211 40.1675 205.074 33.1693C199.045 26.0633 190.27 22.5103 178.75 22.5103C167.229 22.5103 158.401 26.0633 152.264 33.1693C146.235 40.1675 143.22 50.7188 143.22 64.823ZM314.068 127C304.593 127 296.195 125.654 288.874 122.963C281.553 120.163 275.362 116.126 270.302 110.85C265.349 105.467 261.581 98.9531 258.997 91.3088C256.413 83.5568 255.121 74.7282 255.121 64.823C255.121 54.9177 256.413 46.143 258.997 38.4987C261.581 30.7468 265.349 24.233 270.302 18.9574C275.362 13.5741 281.553 9.53661 288.874 6.84497C296.195 4.04565 304.593 2.646 314.068 2.646C330.218 2.646 343.084 6.52197 352.666 14.2739C362.356 22.0258 368.116 33.2231 369.947 47.8656H346.045C344.753 39.4677 341.307 33.1693 335.709 28.9703C330.218 24.6637 323.004 22.5103 314.068 22.5103C302.548 22.5103 293.719 26.0633 287.582 33.1693C281.553 40.1675 278.538 50.7188 278.538 64.823C278.538 78.9272 281.553 89.4785 287.582 96.4767C293.719 103.475 302.548 106.974 314.068 106.974C323.004 106.974 330.218 104.875 335.709 100.676C341.2 96.4767 344.645 90.1783 346.045 81.7804H369.947C368.116 96.4229 362.356 107.62 352.666 115.372C343.084 123.124 330.218 127 314.068 127ZM389.058 4.26098H411.183V125.385H389.058V4.26098ZM471.042 4.26098H493.167L538.064 125.385H514.647L505.441 99.5452H458.768L449.563 125.385H426.146L471.042 4.26098ZM465.874 79.6809H498.335L488.322 52.2261C487.246 49.4268 486.385 46.5736 485.739 43.6667C485.093 40.652 484.77 37.745 484.77 34.9457V30.4238H479.44V34.9457C479.44 37.745 479.117 40.652 478.471 43.6667C477.825 46.5736 477.018 49.4268 476.049 52.2261L465.874 79.6809ZM575.205 4.26098V105.844H630.922V125.385H553.08V4.26098H575.205Z" stroke="white" stroke-opacity="0.6" stroke-width="4" mask="url(#path-1-outside-1_626_1290)"/>
</svg>
