<svg width="317" height="52" viewBox="0 0 317 52" fill="none" xmlns="http://www.w3.org/2000/svg">
<mask id="path-1-outside-1_1153_433" maskUnits="userSpaceOnUse" x="0" y="0" width="317" height="52" fill="black">
<rect fill="white" width="317" height="52"/>
<path d="M2 49.368V2.868H18.492C21.3853 2.868 23.948 3.178 26.18 3.798C28.412 4.418 30.272 5.26534 31.76 6.34C33.2893 7.41467 34.4467 8.71667 35.232 10.246C36.0173 11.734 36.41 13.346 36.41 15.082C36.41 17.7687 35.6247 19.9387 34.054 21.592C32.5247 23.2453 30.2307 24.072 27.172 24.072V26.118C30.9747 26.118 33.8267 27.0067 35.728 28.784C37.6293 30.5613 38.58 33.124 38.58 36.472C38.58 38.3733 38.1873 40.1093 37.402 41.68C36.6167 43.2507 35.4593 44.6147 33.93 45.772C32.442 46.888 30.582 47.7767 28.35 48.438C26.118 49.058 23.5553 49.368 20.662 49.368H2ZM20.662 41.68C23.5967 41.68 25.8287 41.1427 27.358 40.068C28.9287 38.9933 29.714 37.464 29.714 35.48C29.714 33.248 28.9287 31.6567 27.358 30.706C25.8287 29.7553 23.5967 29.28 20.662 29.28H10.432V41.68H20.662ZM18.492 21.654C21.4267 21.654 23.6587 21.1993 25.188 20.29C26.7587 19.3393 27.544 17.934 27.544 16.074C27.544 14.214 26.7587 12.8293 25.188 11.92C23.6587 10.9693 21.4267 10.494 18.492 10.494H10.432V21.654H18.492ZM44.2617 28.598V2.868H52.7557V28.598C52.7557 33.2273 53.6031 36.6787 55.2977 38.952C56.9924 41.184 59.7411 42.3 63.5437 42.3C67.3464 42.3 70.0951 41.184 71.7897 38.952C73.4844 36.6787 74.3317 33.2273 74.3317 28.598V2.868H82.8257V28.598C82.8257 31.9873 82.4331 35.0047 81.6477 37.65C80.9037 40.2953 79.7464 42.548 78.1757 44.408C76.6051 46.2267 74.6004 47.6113 72.1617 48.562C69.7644 49.5127 66.8917 49.988 63.5437 49.988C60.1957 49.988 57.3024 49.5127 54.8637 48.562C52.4664 47.6113 50.4824 46.2267 48.9117 44.408C47.3411 42.548 46.1631 40.2953 45.3777 37.65C44.6337 35.0047 44.2617 31.9873 44.2617 28.598ZM88.5917 34.922H97.5817C97.5817 35.9553 97.8297 36.9267 98.3257 37.836C98.8631 38.7453 99.607 39.5307 100.558 40.192C101.508 40.8533 102.645 41.37 103.968 41.742C105.332 42.114 106.82 42.3 108.432 42.3C111.697 42.3 114.322 41.7833 116.306 40.75C118.29 39.7167 119.282 38.1047 119.282 35.914C119.282 34.55 118.848 33.4547 117.98 32.628C117.153 31.8013 116.058 31.14 114.694 30.644C113.33 30.148 111.759 29.7553 109.982 29.466C108.246 29.1767 106.468 28.8667 104.65 28.536C102.831 28.164 101.033 27.73 99.2557 27.234C97.5197 26.6967 95.9697 25.9527 94.6057 25.002C93.2417 24.0513 92.1257 22.832 91.2577 21.344C90.4311 19.856 90.0177 17.9753 90.0177 15.702C90.0177 13.7593 90.3897 11.9613 91.1337 10.308C91.9191 8.61334 93.0764 7.16667 94.6057 5.968C96.1351 4.728 98.0364 3.75667 100.31 3.054C102.624 2.35133 105.332 2 108.432 2C111.532 2 114.218 2.39267 116.492 3.178C118.765 3.922 120.666 4.93467 122.196 6.216C123.725 7.49734 124.862 8.98534 125.606 10.68C126.391 12.3747 126.804 14.1727 126.846 16.074H117.856C117.856 15.2887 117.67 14.524 117.298 13.78C116.926 12.9947 116.347 12.292 115.562 11.672C114.818 11.052 113.846 10.556 112.648 10.184C111.449 9.812 110.044 9.626 108.432 9.626C105.166 9.626 102.769 10.184 101.24 11.3C99.7517 12.3747 99.0077 13.842 99.0077 15.702C99.0077 16.942 99.4211 17.9133 100.248 18.616C101.116 19.2773 102.232 19.8353 103.596 20.29C104.96 20.7033 106.51 21.034 108.246 21.282C110.023 21.53 111.821 21.84 113.64 22.212C115.458 22.5427 117.236 22.9973 118.972 23.576C120.749 24.1133 122.32 24.8987 123.684 25.932C125.048 26.9653 126.143 28.288 126.97 29.9C127.838 31.4707 128.272 33.4753 128.272 35.914C128.272 37.9807 127.817 39.882 126.908 41.618C125.998 43.354 124.676 44.842 122.94 46.082C121.245 47.322 119.178 48.2933 116.74 48.996C114.301 49.6573 111.532 49.988 108.432 49.988C105.332 49.988 102.562 49.616 100.124 48.872C97.7264 48.0867 95.6597 47.0327 93.9237 45.71C92.2291 44.346 90.927 42.7547 90.0177 40.936C89.1084 39.076 88.6331 37.0713 88.5917 34.922ZM134.053 2.868H142.547V49.368H134.053V2.868ZM159.575 2.868L173.091 24.258C174.29 26.242 175.261 28.0607 176.005 29.714C176.79 31.326 177.431 32.938 177.927 34.55L179.911 34.054C179.622 33.1447 179.353 32.2353 179.105 31.326C178.857 30.4167 178.65 29.4453 178.485 28.412C178.32 27.3787 178.196 26.242 178.113 25.002C178.03 23.762 177.989 22.3773 177.989 20.848V2.868H186.731V49.368H177.617L164.163 27.978C162.84 25.8287 161.807 23.9687 161.063 22.398C160.319 20.786 159.678 19.1533 159.141 17.5L157.219 18.058C157.508 18.926 157.777 19.8147 158.025 20.724C158.273 21.6333 158.48 22.6047 158.645 23.638C158.81 24.6713 158.934 25.808 159.017 27.048C159.141 28.288 159.203 29.6727 159.203 31.202V49.368H150.461V2.868H159.575ZM194.66 49.368V2.868H227.024V10.494H203.154V22.274H225.164V29.9H203.154V41.68H227.024V49.368H194.66ZM231.725 34.922H240.715C240.715 35.9553 240.963 36.9267 241.459 37.836C241.996 38.7453 242.74 39.5307 243.691 40.192C244.641 40.8533 245.778 41.37 247.101 41.742C248.465 42.114 249.953 42.3 251.565 42.3C254.83 42.3 257.455 41.7833 259.439 40.75C261.423 39.7167 262.415 38.1047 262.415 35.914C262.415 34.55 261.981 33.4547 261.113 32.628C260.286 31.8013 259.191 31.14 257.827 30.644C256.463 30.148 254.892 29.7553 253.115 29.466C251.379 29.1767 249.601 28.8667 247.783 28.536C245.964 28.164 244.166 27.73 242.389 27.234C240.653 26.6967 239.103 25.9527 237.739 25.002C236.375 24.0513 235.259 22.832 234.391 21.344C233.564 19.856 233.151 17.9753 233.151 15.702C233.151 13.7593 233.523 11.9613 234.267 10.308C235.052 8.61334 236.209 7.16667 237.739 5.968C239.268 4.728 241.169 3.75667 243.443 3.054C245.757 2.35133 248.465 2 251.565 2C254.665 2 257.351 2.39267 259.625 3.178C261.898 3.922 263.799 4.93467 265.329 6.216C266.858 7.49734 267.995 8.98534 268.739 10.68C269.524 12.3747 269.937 14.1727 269.979 16.074H260.989C260.989 15.2887 260.803 14.524 260.431 13.78C260.059 12.9947 259.48 12.292 258.695 11.672C257.951 11.052 256.979 10.556 255.781 10.184C254.582 9.812 253.177 9.626 251.565 9.626C248.299 9.626 245.902 10.184 244.373 11.3C242.885 12.3747 242.141 13.842 242.141 15.702C242.141 16.942 242.554 17.9133 243.381 18.616C244.249 19.2773 245.365 19.8353 246.729 20.29C248.093 20.7033 249.643 21.034 251.379 21.282C253.156 21.53 254.954 21.84 256.773 22.212C258.591 22.5427 260.369 22.9973 262.105 23.576C263.882 24.1133 265.453 24.8987 266.817 25.932C268.181 26.9653 269.276 28.288 270.103 29.9C270.971 31.4707 271.405 33.4753 271.405 35.914C271.405 37.9807 270.95 39.882 270.041 41.618C269.131 43.354 267.809 44.842 266.073 46.082C264.378 47.322 262.311 48.2933 259.873 48.996C257.434 49.6573 254.665 49.988 251.565 49.988C248.465 49.988 245.695 49.616 243.257 48.872C240.859 48.0867 238.793 47.0327 237.057 45.71C235.362 44.346 234.06 42.7547 233.151 40.936C232.241 39.076 231.766 37.0713 231.725 34.922ZM275.016 34.922H284.006C284.006 35.9553 284.254 36.9267 284.75 37.836C285.287 38.7453 286.031 39.5307 286.982 40.192C287.932 40.8533 289.069 41.37 290.392 41.742C291.756 42.114 293.244 42.3 294.856 42.3C298.121 42.3 300.746 41.7833 302.73 40.75C304.714 39.7167 305.706 38.1047 305.706 35.914C305.706 34.55 305.272 33.4547 304.404 32.628C303.577 31.8013 302.482 31.14 301.118 30.644C299.754 30.148 298.183 29.7553 296.406 29.466C294.67 29.1767 292.892 28.8667 291.074 28.536C289.255 28.164 287.457 27.73 285.68 27.234C283.944 26.6967 282.394 25.9527 281.03 25.002C279.666 24.0513 278.55 22.832 277.682 21.344C276.855 19.856 276.442 17.9753 276.442 15.702C276.442 13.7593 276.814 11.9613 277.558 10.308C278.343 8.61334 279.5 7.16667 281.03 5.968C282.559 4.728 284.46 3.75667 286.734 3.054C289.048 2.35133 291.756 2 294.856 2C297.956 2 300.642 2.39267 302.916 3.178C305.189 3.922 307.09 4.93467 308.62 6.216C310.149 7.49734 311.286 8.98534 312.03 10.68C312.815 12.3747 313.228 14.1727 313.27 16.074H304.28C304.28 15.2887 304.094 14.524 303.722 13.78C303.35 12.9947 302.771 12.292 301.986 11.672C301.242 11.052 300.27 10.556 299.072 10.184C297.873 9.812 296.468 9.626 294.856 9.626C291.59 9.626 289.193 10.184 287.664 11.3C286.176 12.3747 285.432 13.842 285.432 15.702C285.432 16.942 285.845 17.9133 286.672 18.616C287.54 19.2773 288.656 19.8353 290.02 20.29C291.384 20.7033 292.934 21.034 294.67 21.282C296.447 21.53 298.245 21.84 300.064 22.212C301.882 22.5427 303.66 22.9973 305.396 23.576C307.173 24.1133 308.744 24.8987 310.108 25.932C311.472 26.9653 312.567 28.288 313.394 29.9C314.262 31.4707 314.696 33.4753 314.696 35.914C314.696 37.9807 314.241 39.882 313.332 41.618C312.422 43.354 311.1 44.842 309.364 46.082C307.669 47.322 305.602 48.2933 303.164 48.996C300.725 49.6573 297.956 49.988 294.856 49.988C291.756 49.988 288.986 49.616 286.548 48.872C284.15 48.0867 282.084 47.0327 280.348 45.71C278.653 44.346 277.351 42.7547 276.442 40.936C275.532 39.076 275.057 37.0713 275.016 34.922Z"/>
</mask>
<path d="M2 49.368V2.868H18.492C21.3853 2.868 23.948 3.178 26.18 3.798C28.412 4.418 30.272 5.26534 31.76 6.34C33.2893 7.41467 34.4467 8.71667 35.232 10.246C36.0173 11.734 36.41 13.346 36.41 15.082C36.41 17.7687 35.6247 19.9387 34.054 21.592C32.5247 23.2453 30.2307 24.072 27.172 24.072V26.118C30.9747 26.118 33.8267 27.0067 35.728 28.784C37.6293 30.5613 38.58 33.124 38.58 36.472C38.58 38.3733 38.1873 40.1093 37.402 41.68C36.6167 43.2507 35.4593 44.6147 33.93 45.772C32.442 46.888 30.582 47.7767 28.35 48.438C26.118 49.058 23.5553 49.368 20.662 49.368H2ZM20.662 41.68C23.5967 41.68 25.8287 41.1427 27.358 40.068C28.9287 38.9933 29.714 37.464 29.714 35.48C29.714 33.248 28.9287 31.6567 27.358 30.706C25.8287 29.7553 23.5967 29.28 20.662 29.28H10.432V41.68H20.662ZM18.492 21.654C21.4267 21.654 23.6587 21.1993 25.188 20.29C26.7587 19.3393 27.544 17.934 27.544 16.074C27.544 14.214 26.7587 12.8293 25.188 11.92C23.6587 10.9693 21.4267 10.494 18.492 10.494H10.432V21.654H18.492ZM44.2617 28.598V2.868H52.7557V28.598C52.7557 33.2273 53.6031 36.6787 55.2977 38.952C56.9924 41.184 59.7411 42.3 63.5437 42.3C67.3464 42.3 70.0951 41.184 71.7897 38.952C73.4844 36.6787 74.3317 33.2273 74.3317 28.598V2.868H82.8257V28.598C82.8257 31.9873 82.4331 35.0047 81.6477 37.65C80.9037 40.2953 79.7464 42.548 78.1757 44.408C76.6051 46.2267 74.6004 47.6113 72.1617 48.562C69.7644 49.5127 66.8917 49.988 63.5437 49.988C60.1957 49.988 57.3024 49.5127 54.8637 48.562C52.4664 47.6113 50.4824 46.2267 48.9117 44.408C47.3411 42.548 46.1631 40.2953 45.3777 37.65C44.6337 35.0047 44.2617 31.9873 44.2617 28.598ZM88.5917 34.922H97.5817C97.5817 35.9553 97.8297 36.9267 98.3257 37.836C98.8631 38.7453 99.607 39.5307 100.558 40.192C101.508 40.8533 102.645 41.37 103.968 41.742C105.332 42.114 106.82 42.3 108.432 42.3C111.697 42.3 114.322 41.7833 116.306 40.75C118.29 39.7167 119.282 38.1047 119.282 35.914C119.282 34.55 118.848 33.4547 117.98 32.628C117.153 31.8013 116.058 31.14 114.694 30.644C113.33 30.148 111.759 29.7553 109.982 29.466C108.246 29.1767 106.468 28.8667 104.65 28.536C102.831 28.164 101.033 27.73 99.2557 27.234C97.5197 26.6967 95.9697 25.9527 94.6057 25.002C93.2417 24.0513 92.1257 22.832 91.2577 21.344C90.4311 19.856 90.0177 17.9753 90.0177 15.702C90.0177 13.7593 90.3897 11.9613 91.1337 10.308C91.9191 8.61334 93.0764 7.16667 94.6057 5.968C96.1351 4.728 98.0364 3.75667 100.31 3.054C102.624 2.35133 105.332 2 108.432 2C111.532 2 114.218 2.39267 116.492 3.178C118.765 3.922 120.666 4.93467 122.196 6.216C123.725 7.49734 124.862 8.98534 125.606 10.68C126.391 12.3747 126.804 14.1727 126.846 16.074H117.856C117.856 15.2887 117.67 14.524 117.298 13.78C116.926 12.9947 116.347 12.292 115.562 11.672C114.818 11.052 113.846 10.556 112.648 10.184C111.449 9.812 110.044 9.626 108.432 9.626C105.166 9.626 102.769 10.184 101.24 11.3C99.7517 12.3747 99.0077 13.842 99.0077 15.702C99.0077 16.942 99.4211 17.9133 100.248 18.616C101.116 19.2773 102.232 19.8353 103.596 20.29C104.96 20.7033 106.51 21.034 108.246 21.282C110.023 21.53 111.821 21.84 113.64 22.212C115.458 22.5427 117.236 22.9973 118.972 23.576C120.749 24.1133 122.32 24.8987 123.684 25.932C125.048 26.9653 126.143 28.288 126.97 29.9C127.838 31.4707 128.272 33.4753 128.272 35.914C128.272 37.9807 127.817 39.882 126.908 41.618C125.998 43.354 124.676 44.842 122.94 46.082C121.245 47.322 119.178 48.2933 116.74 48.996C114.301 49.6573 111.532 49.988 108.432 49.988C105.332 49.988 102.562 49.616 100.124 48.872C97.7264 48.0867 95.6597 47.0327 93.9237 45.71C92.2291 44.346 90.927 42.7547 90.0177 40.936C89.1084 39.076 88.6331 37.0713 88.5917 34.922ZM134.053 2.868H142.547V49.368H134.053V2.868ZM159.575 2.868L173.091 24.258C174.29 26.242 175.261 28.0607 176.005 29.714C176.79 31.326 177.431 32.938 177.927 34.55L179.911 34.054C179.622 33.1447 179.353 32.2353 179.105 31.326C178.857 30.4167 178.65 29.4453 178.485 28.412C178.32 27.3787 178.196 26.242 178.113 25.002C178.03 23.762 177.989 22.3773 177.989 20.848V2.868H186.731V49.368H177.617L164.163 27.978C162.84 25.8287 161.807 23.9687 161.063 22.398C160.319 20.786 159.678 19.1533 159.141 17.5L157.219 18.058C157.508 18.926 157.777 19.8147 158.025 20.724C158.273 21.6333 158.48 22.6047 158.645 23.638C158.81 24.6713 158.934 25.808 159.017 27.048C159.141 28.288 159.203 29.6727 159.203 31.202V49.368H150.461V2.868H159.575ZM194.66 49.368V2.868H227.024V10.494H203.154V22.274H225.164V29.9H203.154V41.68H227.024V49.368H194.66ZM231.725 34.922H240.715C240.715 35.9553 240.963 36.9267 241.459 37.836C241.996 38.7453 242.74 39.5307 243.691 40.192C244.641 40.8533 245.778 41.37 247.101 41.742C248.465 42.114 249.953 42.3 251.565 42.3C254.83 42.3 257.455 41.7833 259.439 40.75C261.423 39.7167 262.415 38.1047 262.415 35.914C262.415 34.55 261.981 33.4547 261.113 32.628C260.286 31.8013 259.191 31.14 257.827 30.644C256.463 30.148 254.892 29.7553 253.115 29.466C251.379 29.1767 249.601 28.8667 247.783 28.536C245.964 28.164 244.166 27.73 242.389 27.234C240.653 26.6967 239.103 25.9527 237.739 25.002C236.375 24.0513 235.259 22.832 234.391 21.344C233.564 19.856 233.151 17.9753 233.151 15.702C233.151 13.7593 233.523 11.9613 234.267 10.308C235.052 8.61334 236.209 7.16667 237.739 5.968C239.268 4.728 241.169 3.75667 243.443 3.054C245.757 2.35133 248.465 2 251.565 2C254.665 2 257.351 2.39267 259.625 3.178C261.898 3.922 263.799 4.93467 265.329 6.216C266.858 7.49734 267.995 8.98534 268.739 10.68C269.524 12.3747 269.937 14.1727 269.979 16.074H260.989C260.989 15.2887 260.803 14.524 260.431 13.78C260.059 12.9947 259.48 12.292 258.695 11.672C257.951 11.052 256.979 10.556 255.781 10.184C254.582 9.812 253.177 9.626 251.565 9.626C248.299 9.626 245.902 10.184 244.373 11.3C242.885 12.3747 242.141 13.842 242.141 15.702C242.141 16.942 242.554 17.9133 243.381 18.616C244.249 19.2773 245.365 19.8353 246.729 20.29C248.093 20.7033 249.643 21.034 251.379 21.282C253.156 21.53 254.954 21.84 256.773 22.212C258.591 22.5427 260.369 22.9973 262.105 23.576C263.882 24.1133 265.453 24.8987 266.817 25.932C268.181 26.9653 269.276 28.288 270.103 29.9C270.971 31.4707 271.405 33.4753 271.405 35.914C271.405 37.9807 270.95 39.882 270.041 41.618C269.131 43.354 267.809 44.842 266.073 46.082C264.378 47.322 262.311 48.2933 259.873 48.996C257.434 49.6573 254.665 49.988 251.565 49.988C248.465 49.988 245.695 49.616 243.257 48.872C240.859 48.0867 238.793 47.0327 237.057 45.71C235.362 44.346 234.06 42.7547 233.151 40.936C232.241 39.076 231.766 37.0713 231.725 34.922ZM275.016 34.922H284.006C284.006 35.9553 284.254 36.9267 284.75 37.836C285.287 38.7453 286.031 39.5307 286.982 40.192C287.932 40.8533 289.069 41.37 290.392 41.742C291.756 42.114 293.244 42.3 294.856 42.3C298.121 42.3 300.746 41.7833 302.73 40.75C304.714 39.7167 305.706 38.1047 305.706 35.914C305.706 34.55 305.272 33.4547 304.404 32.628C303.577 31.8013 302.482 31.14 301.118 30.644C299.754 30.148 298.183 29.7553 296.406 29.466C294.67 29.1767 292.892 28.8667 291.074 28.536C289.255 28.164 287.457 27.73 285.68 27.234C283.944 26.6967 282.394 25.9527 281.03 25.002C279.666 24.0513 278.55 22.832 277.682 21.344C276.855 19.856 276.442 17.9753 276.442 15.702C276.442 13.7593 276.814 11.9613 277.558 10.308C278.343 8.61334 279.5 7.16667 281.03 5.968C282.559 4.728 284.46 3.75667 286.734 3.054C289.048 2.35133 291.756 2 294.856 2C297.956 2 300.642 2.39267 302.916 3.178C305.189 3.922 307.09 4.93467 308.62 6.216C310.149 7.49734 311.286 8.98534 312.03 10.68C312.815 12.3747 313.228 14.1727 313.27 16.074H304.28C304.28 15.2887 304.094 14.524 303.722 13.78C303.35 12.9947 302.771 12.292 301.986 11.672C301.242 11.052 300.27 10.556 299.072 10.184C297.873 9.812 296.468 9.626 294.856 9.626C291.59 9.626 289.193 10.184 287.664 11.3C286.176 12.3747 285.432 13.842 285.432 15.702C285.432 16.942 285.845 17.9133 286.672 18.616C287.54 19.2773 288.656 19.8353 290.02 20.29C291.384 20.7033 292.934 21.034 294.67 21.282C296.447 21.53 298.245 21.84 300.064 22.212C301.882 22.5427 303.66 22.9973 305.396 23.576C307.173 24.1133 308.744 24.8987 310.108 25.932C311.472 26.9653 312.567 28.288 313.394 29.9C314.262 31.4707 314.696 33.4753 314.696 35.914C314.696 37.9807 314.241 39.882 313.332 41.618C312.422 43.354 311.1 44.842 309.364 46.082C307.669 47.322 305.602 48.2933 303.164 48.996C300.725 49.6573 297.956 49.988 294.856 49.988C291.756 49.988 288.986 49.616 286.548 48.872C284.15 48.0867 282.084 47.0327 280.348 45.71C278.653 44.346 277.351 42.7547 276.442 40.936C275.532 39.076 275.057 37.0713 275.016 34.922Z" stroke="white" stroke-opacity="0.6" stroke-width="4" mask="url(#path-1-outside-1_1153_433)"/>
</svg>
