<svg width="303" height="53" viewBox="0 0 303 53" fill="none" xmlns="http://www.w3.org/2000/svg">
<mask id="path-1-outside-1_788_972" maskUnits="userSpaceOnUse" x="0.102783" y="0.879883" width="303" height="52" fill="black">
<rect fill="white" x="0.102783" y="0.879883" width="303" height="52"/>
<path d="M2.10278 49.9999V3.49988H19.3388C22.9761 3.49988 26.2001 4.03722 29.0108 5.11188C31.8215 6.14522 34.1775 7.67455 36.0788 9.69988C37.9801 11.6839 39.4268 14.1225 40.4188 17.0159C41.4108 19.8679 41.9068 23.1126 41.9068 26.7499C41.9068 30.3872 41.4108 33.6526 40.4188 36.5459C39.4268 39.3979 37.9801 41.8366 36.0788 43.8619C34.1775 45.8459 31.8215 47.3752 29.0108 48.4499C26.2001 49.4832 22.9761 49.9999 19.3388 49.9999H2.10278ZM10.5968 42.3119H19.3388C23.7615 42.3119 27.1508 41.0099 29.5068 38.4059C31.8628 35.7606 33.0408 31.8752 33.0408 26.7499C33.0408 21.6246 31.8628 17.7392 29.5068 15.0939C27.1508 12.4486 23.7615 11.1259 19.3388 11.1259H10.5968V42.3119ZM57.7168 3.49988L71.2328 24.8899C72.4314 26.8739 73.4028 28.6926 74.1468 30.3459C74.9321 31.9579 75.5728 33.5699 76.0688 35.1819L78.0528 34.6859C77.7635 33.7766 77.4948 32.8672 77.2468 31.9579C76.9988 31.0486 76.7921 30.0772 76.6268 29.0439C76.4615 28.0106 76.3374 26.8739 76.2548 25.6339C76.1721 24.3939 76.1308 23.0092 76.1308 21.4799V3.49988H84.8728V49.9999H75.7588L62.3048 28.6099C60.9821 26.4606 59.9488 24.6006 59.2048 23.0299C58.4608 21.4179 57.8201 19.7852 57.2828 18.1319L55.3608 18.6899C55.6501 19.5579 55.9188 20.4466 56.1668 21.3559C56.4148 22.2652 56.6215 23.2366 56.7868 24.2699C56.9521 25.3032 57.0761 26.4399 57.1588 27.6799C57.2828 28.9199 57.3448 30.3046 57.3448 31.8339V49.9999H48.6028V3.49988H57.7168ZM107.263 3.49988H115.757L132.993 49.9999H124.003L120.469 40.0799H102.551L99.0165 49.9999H90.0265L107.263 3.49988ZM105.279 32.4539H117.741L113.897 21.9139C113.483 20.8392 113.153 19.7439 112.905 18.6279C112.657 17.4705 112.533 16.3546 112.533 15.2799V13.5439H110.487V15.2799C110.487 16.3546 110.363 17.4705 110.115 18.6279C109.867 19.7439 109.557 20.8392 109.185 21.9139L105.279 32.4539ZM155.151 26.7499C155.151 19.1446 157.155 13.2752 161.165 9.14188C165.174 4.96722 171.126 2.87988 179.021 2.87988C182.327 2.87988 185.241 3.35522 187.763 4.30588C190.284 5.21522 192.433 6.41388 194.211 7.90188C195.988 9.38989 197.393 11.0639 198.427 12.9239C199.46 14.7426 200.121 16.5612 200.411 18.3799L191.421 18.8759C191.255 17.9252 190.842 16.9539 190.181 15.9619C189.561 14.9699 188.734 14.0812 187.701 13.2959C186.667 12.4692 185.427 11.8079 183.981 11.3119C182.534 10.7746 180.881 10.5059 179.021 10.5059C173.978 10.5059 170.237 11.8699 167.799 14.5979C165.36 17.2845 164.141 21.3352 164.141 26.7499C164.141 32.1646 165.319 36.2152 167.675 38.9019C170.031 41.5886 173.482 42.9319 178.029 42.9319C181.253 42.9319 184.001 42.2086 186.275 40.7619C188.548 39.3152 190.077 37.1246 190.863 34.1899H179.641V27.4939H201.651V49.5039H194.831V47.2099C194.831 45.4739 194.975 43.9859 195.265 42.7459C195.595 41.5059 196.091 40.1212 196.753 38.5919L194.769 38.0959C193.653 41.9812 191.586 45.0399 188.569 47.2719C185.551 49.5039 181.666 50.6199 176.913 50.6199C173.482 50.6199 170.423 50.1032 167.737 49.0699C165.05 47.9952 162.777 46.4452 160.917 44.4199C159.057 42.3532 157.631 39.8526 156.639 36.9179C155.647 33.9419 155.151 30.5526 155.151 26.7499ZM208.991 49.9999V3.49988H241.355V11.1259H217.485V22.9059H239.495V30.5319H217.485V42.3119H241.355V49.9999H208.991ZM257.34 3.49988L270.856 24.8899C272.055 26.8739 273.026 28.6926 273.77 30.3459C274.555 31.9579 275.196 33.5699 275.692 35.1819L277.676 34.6859C277.387 33.7766 277.118 32.8672 276.87 31.9579C276.622 31.0486 276.415 30.0772 276.25 29.0439C276.084 28.0106 275.961 26.8739 275.878 25.6339C275.795 24.3939 275.754 23.0092 275.754 21.4799V3.49988H284.496V49.9999H275.382L261.928 28.6099C260.605 26.4606 259.572 24.6006 258.828 23.0299C258.084 21.4179 257.443 19.7852 256.906 18.1319L254.984 18.6899C255.273 19.5579 255.542 20.4466 255.79 21.3559C256.038 22.2652 256.245 23.2366 256.41 24.2699C256.575 25.3032 256.699 26.4399 256.782 27.6799C256.906 28.9199 256.968 30.3046 256.968 31.8339V49.9999H248.226V3.49988H257.34ZM292.425 3.49988H300.919V49.9999H292.425V3.49988Z"/>
</mask>
<path d="M2.10278 49.9999V3.49988H19.3388C22.9761 3.49988 26.2001 4.03722 29.0108 5.11188C31.8215 6.14522 34.1775 7.67455 36.0788 9.69988C37.9801 11.6839 39.4268 14.1225 40.4188 17.0159C41.4108 19.8679 41.9068 23.1126 41.9068 26.7499C41.9068 30.3872 41.4108 33.6526 40.4188 36.5459C39.4268 39.3979 37.9801 41.8366 36.0788 43.8619C34.1775 45.8459 31.8215 47.3752 29.0108 48.4499C26.2001 49.4832 22.9761 49.9999 19.3388 49.9999H2.10278ZM10.5968 42.3119H19.3388C23.7615 42.3119 27.1508 41.0099 29.5068 38.4059C31.8628 35.7606 33.0408 31.8752 33.0408 26.7499C33.0408 21.6246 31.8628 17.7392 29.5068 15.0939C27.1508 12.4486 23.7615 11.1259 19.3388 11.1259H10.5968V42.3119ZM57.7168 3.49988L71.2328 24.8899C72.4314 26.8739 73.4028 28.6926 74.1468 30.3459C74.9321 31.9579 75.5728 33.5699 76.0688 35.1819L78.0528 34.6859C77.7635 33.7766 77.4948 32.8672 77.2468 31.9579C76.9988 31.0486 76.7921 30.0772 76.6268 29.0439C76.4615 28.0106 76.3374 26.8739 76.2548 25.6339C76.1721 24.3939 76.1308 23.0092 76.1308 21.4799V3.49988H84.8728V49.9999H75.7588L62.3048 28.6099C60.9821 26.4606 59.9488 24.6006 59.2048 23.0299C58.4608 21.4179 57.8201 19.7852 57.2828 18.1319L55.3608 18.6899C55.6501 19.5579 55.9188 20.4466 56.1668 21.3559C56.4148 22.2652 56.6215 23.2366 56.7868 24.2699C56.9521 25.3032 57.0761 26.4399 57.1588 27.6799C57.2828 28.9199 57.3448 30.3046 57.3448 31.8339V49.9999H48.6028V3.49988H57.7168ZM107.263 3.49988H115.757L132.993 49.9999H124.003L120.469 40.0799H102.551L99.0165 49.9999H90.0265L107.263 3.49988ZM105.279 32.4539H117.741L113.897 21.9139C113.483 20.8392 113.153 19.7439 112.905 18.6279C112.657 17.4705 112.533 16.3546 112.533 15.2799V13.5439H110.487V15.2799C110.487 16.3546 110.363 17.4705 110.115 18.6279C109.867 19.7439 109.557 20.8392 109.185 21.9139L105.279 32.4539ZM155.151 26.7499C155.151 19.1446 157.155 13.2752 161.165 9.14188C165.174 4.96722 171.126 2.87988 179.021 2.87988C182.327 2.87988 185.241 3.35522 187.763 4.30588C190.284 5.21522 192.433 6.41388 194.211 7.90188C195.988 9.38989 197.393 11.0639 198.427 12.9239C199.46 14.7426 200.121 16.5612 200.411 18.3799L191.421 18.8759C191.255 17.9252 190.842 16.9539 190.181 15.9619C189.561 14.9699 188.734 14.0812 187.701 13.2959C186.667 12.4692 185.427 11.8079 183.981 11.3119C182.534 10.7746 180.881 10.5059 179.021 10.5059C173.978 10.5059 170.237 11.8699 167.799 14.5979C165.36 17.2845 164.141 21.3352 164.141 26.7499C164.141 32.1646 165.319 36.2152 167.675 38.9019C170.031 41.5886 173.482 42.9319 178.029 42.9319C181.253 42.9319 184.001 42.2086 186.275 40.7619C188.548 39.3152 190.077 37.1246 190.863 34.1899H179.641V27.4939H201.651V49.5039H194.831V47.2099C194.831 45.4739 194.975 43.9859 195.265 42.7459C195.595 41.5059 196.091 40.1212 196.753 38.5919L194.769 38.0959C193.653 41.9812 191.586 45.0399 188.569 47.2719C185.551 49.5039 181.666 50.6199 176.913 50.6199C173.482 50.6199 170.423 50.1032 167.737 49.0699C165.05 47.9952 162.777 46.4452 160.917 44.4199C159.057 42.3532 157.631 39.8526 156.639 36.9179C155.647 33.9419 155.151 30.5526 155.151 26.7499ZM208.991 49.9999V3.49988H241.355V11.1259H217.485V22.9059H239.495V30.5319H217.485V42.3119H241.355V49.9999H208.991ZM257.34 3.49988L270.856 24.8899C272.055 26.8739 273.026 28.6926 273.77 30.3459C274.555 31.9579 275.196 33.5699 275.692 35.1819L277.676 34.6859C277.387 33.7766 277.118 32.8672 276.87 31.9579C276.622 31.0486 276.415 30.0772 276.25 29.0439C276.084 28.0106 275.961 26.8739 275.878 25.6339C275.795 24.3939 275.754 23.0092 275.754 21.4799V3.49988H284.496V49.9999H275.382L261.928 28.6099C260.605 26.4606 259.572 24.6006 258.828 23.0299C258.084 21.4179 257.443 19.7852 256.906 18.1319L254.984 18.6899C255.273 19.5579 255.542 20.4466 255.79 21.3559C256.038 22.2652 256.245 23.2366 256.41 24.2699C256.575 25.3032 256.699 26.4399 256.782 27.6799C256.906 28.9199 256.968 30.3046 256.968 31.8339V49.9999H248.226V3.49988H257.34ZM292.425 3.49988H300.919V49.9999H292.425V3.49988Z" stroke="white" stroke-opacity="0.6" stroke-width="4" mask="url(#path-1-outside-1_788_972)"/>
</svg>
