<svg width="125" height="51" viewBox="0 0 125 51" fill="none" xmlns="http://www.w3.org/2000/svg">
<path d="M12.0192 1.96582L11.7248 1.5H11.1738H2.05981H1.05981V2.5V49V50H2.05981H10.8018H11.8018V49V30.834C11.8018 29.2853 11.7393 27.8722 11.6125 26.597C11.5282 25.3382 11.4015 24.176 11.2313 23.112C11.0609 22.0471 10.847 21.0404 10.5886 20.0929C10.4292 19.5083 10.2613 18.9318 10.0849 18.3634L10.0984 18.3595C10.5797 19.7376 11.1316 21.1008 11.7539 22.4491L11.7538 22.4491L11.7581 22.4581C12.5229 24.0727 13.5761 25.9663 14.9102 28.1341L14.9101 28.1341L14.9153 28.1424L28.3693 49.5324L28.6634 50H29.2158H38.3298H39.3298V49V2.5V1.5H38.3298H29.5878H28.5878V2.5V20.48C28.5878 22.0267 28.6296 23.434 28.714 24.7005C28.7984 25.9657 28.9254 27.1334 29.0964 28.202C29.2668 29.2669 29.4806 30.2736 29.7391 31.2211C29.8983 31.8049 30.0659 32.3886 30.2418 32.9722L30.1892 32.9854C29.7275 31.6279 29.1673 30.2734 28.5095 28.9218C27.746 27.2271 26.7565 25.3769 25.5457 23.3729L25.5405 23.3643L25.5352 23.3558L12.0192 1.96582ZM45.259 49V50H46.259H78.623H79.623V49V41.312V40.312H78.623H55.753V30.532H76.763H77.763V29.532V21.906V20.906H76.763H55.753V11.126H78.623H79.623V10.126V2.5V1.5H78.623H46.259H45.259V2.5V49ZM123.135 2.5V1.5H122.135H83.3234H82.3234V2.5V9.878V10.878H83.3234H97.4514V49V50H98.4514H107.069H108.069V49V10.878H122.135H123.135V9.878V2.5Z" stroke="white" stroke-opacity="0.6" stroke-width="2"/>
</svg>
