<svg width="83" height="51" viewBox="0 0 83 51" fill="none" xmlns="http://www.w3.org/2000/svg">
<path d="M1.40259 49V50H2.40259H10.8966H11.8966V49V32.95H18.0266C23.9809 32.95 28.6874 31.6642 31.9927 28.9396L31.9927 28.9397L31.9988 28.9345C35.3261 26.1468 36.9446 22.2046 36.9446 17.256C36.9446 12.2713 35.3291 8.3243 31.9957 5.57492C28.6903 2.80711 23.9823 1.5 18.0266 1.5H2.40259H1.40259V2.5V49ZM50.7677 49V32.95H59.2949L68.8026 49.4982L69.0909 50H69.6697H78.6597H80.3919L79.5257 48.4999L74.4423 39.697C73.6532 38.3266 72.9249 37.0986 72.2573 36.0139C71.5709 34.8984 70.8516 33.9349 70.0959 33.1331C69.3362 32.2861 68.4964 31.5999 67.5739 31.0883C66.9487 30.6974 66.2495 30.4038 65.4847 30.1994C65.6652 30.2371 65.8485 30.2774 66.0348 30.3204L66.0425 30.3222L66.0502 30.3238C66.7009 30.4632 67.3706 30.532 68.0577 30.532C69.1233 30.532 70.2534 30.3469 71.4418 29.9948L71.4528 29.9915L71.4637 29.988C72.7724 29.5674 73.9706 28.8474 75.0574 27.8512L75.0656 27.8437L75.0736 27.836C76.1831 26.7727 77.0787 25.3914 77.7802 23.7276C78.5559 21.987 78.9157 19.8132 78.9157 17.256C78.9157 12.2714 77.3002 8.3244 73.967 5.57502C70.6615 2.80714 65.9534 1.5 59.9977 1.5H41.2737H40.2737V2.5V49V50H41.2737H49.7677H50.7677V49ZM18.0266 23.324H11.8966V11.126H18.0266C20.7986 11.126 22.784 11.7025 24.1159 12.719C25.3896 13.691 26.0786 15.1444 26.0786 17.256C26.0786 19.3639 25.3921 20.8159 24.1226 21.7879C22.7889 22.7676 20.8 23.324 18.0266 23.324ZM59.9977 23.324H50.7677V11.126H59.9977C62.7697 11.126 64.755 11.7025 66.087 12.719C67.3607 13.691 68.0497 15.1444 68.0497 17.256C68.0497 19.3639 67.3632 20.8159 66.0937 21.7879C64.76 22.7676 62.7711 23.324 59.9977 23.324Z" stroke="white" stroke-opacity="0.6" stroke-width="2"/>
</svg>
