<svg width="1518" height="145" viewBox="0 0 1518 145" fill="none" xmlns="http://www.w3.org/2000/svg">
<path d="M0 139.463L23.781 5.33238H90.819C106.946 5.33238 119.315 9.70768 127.926 18.4583C136.673 27.2089 139.884 38.4206 137.561 52.0933C135.238 65.2192 128.267 75.8157 116.65 83.8826C105.033 91.9496 91.0923 95.983 74.8283 95.983H39.9767L32.1864 139.463H0ZM45.307 66.0396H78.1084C85.8988 66.0396 92.1174 64.8091 96.7642 62.3479C101.548 59.7501 104.35 56.1268 105.17 51.4781C106.126 46.2824 104.691 42.3173 100.864 39.5827C97.1742 36.7115 91.3657 35.2758 83.4386 35.2758H50.6372L45.307 66.0396Z" fill="white"/>
<path d="M203.811 82.8571H238.662L259.368 139.463H224.927L203.811 82.8571ZM137.388 139.463L161.169 5.33238H228.207C244.334 5.33238 256.703 9.70768 265.314 18.4583C274.061 27.2089 277.272 38.4206 274.949 52.0933C272.626 65.2192 265.655 75.8157 254.038 83.8826C242.421 91.9496 228.48 95.983 212.216 95.983H177.365L169.574 139.463H137.388ZM182.695 66.0396H215.496C223.287 66.0396 229.505 64.8091 234.152 62.3479C238.936 59.7501 241.738 56.1268 242.558 51.4781C243.514 46.2824 242.079 42.3173 238.252 39.5827C234.562 36.7115 228.754 35.2758 220.827 35.2758H188.025L182.695 66.0396Z" fill="white"/>
<path d="M315.573 72.3974C313.386 85.1131 314.958 95.0259 320.288 102.136C325.618 109.109 334.092 112.595 345.709 112.595C357.463 112.595 367.167 109.109 374.82 102.136C382.611 95.0259 387.668 85.1131 389.991 72.3974C392.178 59.6817 390.606 49.7006 385.276 42.454C380.082 35.2074 371.677 31.5842 360.06 31.5842C348.443 31.5842 338.67 35.2074 330.743 42.454C322.816 49.7006 317.76 59.6817 315.573 72.3974ZM283.181 72.3974C287.145 49.8373 296.507 32.1311 311.268 19.2786C326.165 6.42621 344.274 0 365.595 0C375.162 0 383.841 1.7091 391.631 5.12729C399.558 8.40876 406.118 13.0575 411.312 19.0735C416.642 25.0896 420.264 32.7463 422.177 42.0438C424.228 51.2046 424.296 61.3225 422.382 72.3974C418.419 95.0943 409.057 112.801 394.296 125.516C379.536 138.095 361.495 144.385 340.174 144.385C318.853 144.385 302.999 138.027 292.612 125.311C282.361 112.595 279.218 94.9576 283.181 72.3974Z" fill="white"/>
<path d="M525.606 109.314H561.688C577.405 109.314 585.879 105.759 587.109 98.6492C587.792 94.9576 586.289 92.223 582.599 90.4455C579.045 88.5314 573.373 87.5743 565.583 87.5743H529.501L525.606 109.314ZM534.831 57.4257H570.913C585.127 57.4257 592.917 53.529 594.284 45.7355C594.967 42.0438 593.806 39.3776 590.799 37.7369C587.792 36.0962 582.462 35.2758 574.808 35.2758H538.727L534.831 57.4257ZM594.694 71.1669L594.284 73.8331C602.894 75.6106 609.386 79.3706 613.76 85.1132C618.133 90.719 619.637 97.5554 618.27 105.622C616.357 115.877 610.07 124.081 599.409 130.233C588.749 136.386 575.15 139.463 558.612 139.463H488.089L511.87 5.33238H582.394C598.794 5.33238 610.89 8.54549 618.68 14.9717C626.47 21.3979 629.409 29.9434 627.496 40.6082C626.129 48.6752 622.575 55.4432 616.835 60.9123C611.095 66.3814 603.714 69.7996 594.694 71.1669Z" fill="white"/>
<path d="M684.048 5.33238L668.467 93.3168C667.374 99.743 669.219 104.734 674.002 108.289C678.786 111.707 686.098 113.416 695.938 113.416C705.642 113.416 713.364 111.707 719.104 108.289C724.981 104.734 728.466 99.743 729.56 93.3168L745.14 5.33238H777.532L761.541 95.5728C759.081 109.656 751.154 121.209 737.76 130.233C724.503 139.257 708.785 143.769 690.608 143.769C671.747 143.769 657.26 139.326 647.146 130.438C637.169 121.551 633.41 109.929 635.87 95.5728L651.861 5.33238H684.048Z" fill="white"/>
<path d="M897.302 102.136C894.978 115.535 887.94 126.063 876.186 133.72C864.569 141.24 850.15 145 832.929 145C816.938 145 804.023 141.308 794.182 133.925C784.478 126.542 778.67 115.535 776.756 100.905L808.943 94.5474C812.496 107.126 822.268 113.416 838.259 113.416C845.639 113.416 851.79 112.39 856.71 110.339C861.63 108.289 864.364 105.486 864.91 101.931C865.184 100.427 865.047 99.0594 864.5 97.8289C864.09 96.5983 863.065 95.5045 861.425 94.5474C859.922 93.5903 858.418 92.8383 856.915 92.2914C855.548 91.6077 853.293 90.9241 850.15 90.2405C847.143 89.5568 844.614 89.0783 842.564 88.8048C840.651 88.3946 837.644 87.8477 833.544 87.1641C832.861 87.1641 832.314 87.0957 831.904 86.959C798.556 81.4899 784 66.86 788.237 43.0693C790.56 29.8067 797.462 19.347 808.943 11.6902C820.56 3.89675 835.047 0 852.405 0C868.259 0 880.901 3.48656 890.331 10.4597C899.898 17.4328 905.434 27.8925 906.937 41.8388L875.161 48.1966C872.974 37.1216 863.817 31.5842 847.69 31.5842C839.899 31.5842 833.544 32.678 828.624 34.8656C823.703 36.9165 820.97 39.7195 820.423 43.2744C819.74 47.3762 821.79 50.3843 826.574 52.2984C831.357 54.2126 839.968 56.2636 852.405 58.4512C852.815 58.5879 853.088 58.6563 853.225 58.6563C858.282 59.6134 862.86 60.7072 866.96 61.9378C871.197 63.1683 875.502 64.9458 879.876 67.2701C884.386 69.5945 888.008 72.2607 890.741 75.2687C893.475 78.14 895.525 81.9 896.892 86.5488C898.258 91.1975 898.395 96.3932 897.302 102.136Z" fill="white"/>
<path d="M930.241 5.12729H962.427L938.646 139.463H906.46L930.241 5.12729Z" fill="white"/>
<path d="M1085.47 5.33238H1117.86L1094.08 139.463H1055.54L1006.13 51.273L990.547 139.463H958.361L982.142 5.33238H1020.48L1069.89 93.1117L1085.47 5.33238Z" fill="white"/>
<path d="M1137.55 5.33238H1258.91L1253.58 35.4809H1164.4L1160.51 57.4257H1243.74L1238.41 87.5743H1155.18L1151.28 109.314H1240.46L1235.13 139.463H1113.77L1137.55 5.33238Z" fill="white"/>
<path d="M1375.38 102.136C1373.06 115.535 1366.02 126.063 1354.27 133.72C1342.65 141.24 1328.23 145 1311.01 145C1295.02 145 1282.1 141.308 1272.26 133.925C1262.56 126.542 1256.75 115.535 1254.84 100.905L1287.02 94.5474C1290.58 107.126 1300.35 113.416 1316.34 113.416C1323.72 113.416 1329.87 112.39 1334.79 110.339C1339.71 108.289 1342.44 105.486 1342.99 101.931C1343.26 100.427 1343.13 99.0594 1342.58 97.8289C1342.17 96.5983 1341.14 95.5045 1339.5 94.5474C1338 93.5903 1336.5 92.8383 1334.99 92.2914C1333.63 91.6077 1331.37 90.9241 1328.23 90.2405C1325.22 89.5568 1322.69 89.0783 1320.64 88.8048C1318.73 88.3946 1315.72 87.8477 1311.62 87.1641C1310.94 87.1641 1310.39 87.0957 1309.98 86.959C1276.64 81.4899 1262.08 66.86 1266.32 43.0693C1268.64 29.8067 1275.54 19.347 1287.02 11.6902C1298.64 3.89675 1313.13 0 1330.48 0C1346.34 0 1358.98 3.48656 1368.41 10.4597C1377.98 17.4328 1383.51 27.8925 1385.02 41.8388L1353.24 48.1966C1351.05 37.1216 1341.9 31.5842 1325.77 31.5842C1317.98 31.5842 1311.62 32.678 1306.7 34.8656C1301.78 36.9165 1299.05 39.7195 1298.5 43.2744C1297.82 47.3762 1299.87 50.3843 1304.65 52.2984C1309.44 54.2126 1318.05 56.2636 1330.48 58.4512C1330.89 58.5879 1331.17 58.6563 1331.3 58.6563C1336.36 59.6134 1340.94 60.7072 1345.04 61.9378C1349.28 63.1683 1353.58 64.9458 1357.96 67.2701C1362.47 69.5945 1366.09 72.2607 1368.82 75.2687C1371.55 78.14 1373.6 81.9 1374.97 86.5488C1376.34 91.1975 1376.47 96.3932 1375.38 102.136Z" fill="white"/>
<path d="M1508.36 102.136C1506.04 115.535 1499 126.063 1487.25 133.72C1475.63 141.24 1461.21 145 1443.99 145C1428 145 1415.09 141.308 1405.24 133.925C1395.54 126.542 1389.73 115.535 1387.82 100.905L1420.01 94.5474C1423.56 107.126 1433.33 113.416 1449.32 113.416C1456.7 113.416 1462.85 112.39 1467.77 110.339C1472.69 108.289 1475.43 105.486 1475.97 101.931C1476.25 100.427 1476.11 99.0594 1475.56 97.8289C1475.15 96.5983 1474.13 95.5045 1472.49 94.5474C1470.98 93.5903 1469.48 92.8383 1467.98 92.2914C1466.61 91.6077 1464.36 90.9241 1461.21 90.2405C1458.21 89.5568 1455.68 89.0783 1453.63 88.8048C1451.71 88.3946 1448.71 87.8477 1444.61 87.1641C1443.92 87.1641 1443.38 87.0957 1442.97 86.959C1409.62 81.4899 1395.06 66.86 1399.3 43.0693C1401.62 29.8067 1408.53 19.347 1420.01 11.6902C1431.62 3.89675 1446.11 0 1463.47 0C1479.32 0 1491.96 3.48656 1501.39 10.4597C1510.96 17.4328 1516.5 27.8925 1518 41.8388L1486.22 48.1966C1484.04 37.1216 1474.88 31.5842 1458.75 31.5842C1450.96 31.5842 1444.61 32.678 1439.69 34.8656C1434.77 36.9165 1432.03 39.7195 1431.49 43.2744C1430.8 47.3762 1432.85 50.3843 1437.64 52.2984C1442.42 54.2126 1451.03 56.2636 1463.47 58.4512C1463.88 58.5879 1464.15 58.6563 1464.29 58.6563C1469.34 59.6134 1473.92 60.7072 1478.02 61.9378C1482.26 63.1683 1486.57 64.9458 1490.94 67.2701C1495.45 69.5945 1499.07 72.2607 1501.8 75.2687C1504.54 78.14 1506.59 81.9 1507.95 86.5488C1509.32 91.1975 1509.46 96.3932 1508.36 102.136Z" fill="white"/>
</svg>
