<svg width="220" height="42" viewBox="0 0 220 42" fill="none" xmlns="http://www.w3.org/2000/svg">
<rect width="220" height="42" rx="6" fill="url(#paint0_linear_705_282)"/>
<path d="M28.4999 12.5L26.5 24.2765L31.9722 29.5L38.6882 24.2765L41.1656 12.8346L33.4995 17.8342L28.4999 12.5Z" stroke="white" stroke-width="3" stroke-linejoin="bevel"/>
<mask id="mask0_705_282" style="mask-type:alpha" maskUnits="userSpaceOnUse" x="25" y="11" width="18" height="20">
<path d="M28.4999 12.5L26.5 24.2765L31.9722 29.5L38.6882 24.2765L41.1656 12.8346L33.4995 17.8342L28.4999 12.5Z" stroke="black" stroke-width="3" stroke-linejoin="bevel"/>
</mask>
<g mask="url(#mask0_705_282)">
<rect x="22.8572" y="23.4286" width="21.8571" height="12.75" fill="white"/>
</g>
<path d="M51.9856 28L54.3056 14.92H60.8456C62.4189 14.92 63.6256 15.3467 64.4656 16.2C65.3189 17.0533 65.6323 18.1467 65.4056 19.48C65.1789 20.76 64.4989 21.7933 63.3656 22.58C62.2323 23.3667 60.8723 23.76 59.2856 23.76H55.8856L55.1256 28H51.9856ZM56.4056 20.84H59.6056C60.3656 20.84 60.9723 20.72 61.4256 20.48C61.8923 20.2267 62.1656 19.8733 62.2456 19.42C62.3389 18.9133 62.1989 18.5267 61.8256 18.26C61.4656 17.98 60.8989 17.84 60.1256 17.84H56.9256L56.4056 20.84ZM71.5687 22.48H74.9687L76.9887 28H73.6287L71.5687 22.48ZM65.0887 28L67.4087 14.92H73.9487C75.522 14.92 76.7287 15.3467 77.5687 16.2C78.422 17.0533 78.7354 18.1467 78.5087 19.48C78.282 20.76 77.602 21.7933 76.4687 22.58C75.3354 23.3667 73.9754 23.76 72.3887 23.76H68.9887L68.2287 28H65.0887ZM69.5087 20.84H72.7087C73.4687 20.84 74.0754 20.72 74.5287 20.48C74.9954 20.2267 75.2687 19.8733 75.3487 19.42C75.442 18.9133 75.302 18.5267 74.9287 18.26C74.5687 17.98 74.002 17.84 73.2287 17.84H70.0287L69.5087 20.84ZM82.1718 21.46C81.9585 22.7 82.1118 23.6667 82.6318 24.36C83.1518 25.04 83.9785 25.38 85.1118 25.38C86.2585 25.38 87.2052 25.04 87.9518 24.36C88.7118 23.6667 89.2052 22.7 89.4318 21.46C89.6452 20.22 89.4918 19.2467 88.9718 18.54C88.4652 17.8333 87.6452 17.48 86.5118 17.48C85.3785 17.48 84.4252 17.8333 83.6518 18.54C82.8785 19.2467 82.3852 20.22 82.1718 21.46ZM79.0118 21.46C79.3985 19.26 80.3118 17.5333 81.7518 16.28C83.2052 15.0267 84.9718 14.4 87.0518 14.4C87.9852 14.4 88.8318 14.5667 89.5918 14.9C90.3652 15.22 91.0052 15.6733 91.5118 16.26C92.0318 16.8467 92.3852 17.5933 92.5718 18.5C92.7718 19.3933 92.7785 20.38 92.5918 21.46C92.2052 23.6733 91.2918 25.4 89.8518 26.64C88.4118 27.8667 86.6518 28.48 84.5718 28.48C82.4918 28.48 80.9452 27.86 79.9318 26.62C78.9318 25.38 78.6252 23.66 79.0118 21.46ZM96.3222 25.06H99.8422C101.375 25.06 102.202 24.7133 102.322 24.02C102.389 23.66 102.242 23.3933 101.882 23.22C101.535 23.0333 100.982 22.94 100.222 22.94H96.7022L96.3222 25.06ZM97.2222 20H100.742C102.129 20 102.889 19.62 103.022 18.86C103.089 18.5 102.975 18.24 102.682 18.08C102.389 17.92 101.869 17.84 101.122 17.84H97.6022L97.2222 20ZM103.062 21.34L103.022 21.6C103.862 21.7733 104.495 22.14 104.922 22.7C105.349 23.2467 105.495 23.9133 105.362 24.7C105.175 25.7 104.562 26.5 103.522 27.1C102.482 27.7 101.155 28 99.5422 28H92.6622L94.9822 14.92H101.862C103.462 14.92 104.642 15.2333 105.402 15.86C106.162 16.4867 106.449 17.32 106.262 18.36C106.129 19.1467 105.782 19.8067 105.222 20.34C104.662 20.8733 103.942 21.2067 103.062 21.34ZM111.479 14.92L109.959 23.5C109.853 24.1267 110.033 24.6133 110.499 24.96C110.966 25.2933 111.679 25.46 112.639 25.46C113.586 25.46 114.339 25.2933 114.899 24.96C115.473 24.6133 115.813 24.1267 115.919 23.5L117.439 14.92H120.599L119.039 23.72C118.799 25.0933 118.026 26.22 116.719 27.1C115.426 27.98 113.893 28.42 112.119 28.42C110.279 28.42 108.866 27.9867 107.879 27.12C106.906 26.2533 106.539 25.12 106.779 23.72L108.339 14.92H111.479ZM131.984 24.36C131.757 25.6667 131.07 26.6933 129.924 27.44C128.79 28.1733 127.384 28.54 125.704 28.54C124.144 28.54 122.884 28.18 121.924 27.46C120.977 26.74 120.41 25.6667 120.224 24.24L123.364 23.62C123.71 24.8467 124.664 25.46 126.224 25.46C126.944 25.46 127.544 25.36 128.024 25.16C128.504 24.96 128.77 24.6867 128.824 24.34C128.85 24.1933 128.837 24.06 128.784 23.94C128.744 23.82 128.644 23.7133 128.484 23.62C128.337 23.5267 128.19 23.4533 128.044 23.4C127.91 23.3333 127.69 23.2667 127.384 23.2C127.09 23.1333 126.844 23.0867 126.644 23.06C126.457 23.02 126.164 22.9667 125.764 22.9C125.697 22.9 125.644 22.8933 125.604 22.88C122.35 22.3467 120.93 20.92 121.344 18.6C121.57 17.3067 122.244 16.2867 123.364 15.54C124.497 14.78 125.91 14.4 127.604 14.4C129.15 14.4 130.384 14.74 131.304 15.42C132.237 16.1 132.777 17.12 132.924 18.48L129.824 19.1C129.61 18.02 128.717 17.48 127.144 17.48C126.384 17.48 125.764 17.5867 125.284 17.8C124.804 18 124.537 18.2733 124.484 18.62C124.417 19.02 124.617 19.3133 125.084 19.5C125.55 19.6867 126.39 19.8867 127.604 20.1C127.644 20.1133 127.67 20.12 127.684 20.12C128.177 20.2133 128.624 20.32 129.024 20.44C129.437 20.56 129.857 20.7333 130.284 20.96C130.724 21.1867 131.077 21.4467 131.344 21.74C131.61 22.02 131.81 22.3867 131.944 22.84C132.077 23.2933 132.09 23.8 131.984 24.36ZM134.897 14.9H138.037L135.717 28H132.577L134.897 14.9ZM149.74 14.92H152.9L150.58 28H146.82L142 19.4L140.48 28H137.34L139.66 14.92H143.4L148.22 23.48L149.74 14.92ZM154.521 14.92H166.361L165.841 17.86H157.141L156.761 20H164.881L164.361 22.94H156.241L155.861 25.06H164.561L164.041 28H152.201L154.521 14.92ZM177.423 24.36C177.197 25.6667 176.51 26.6933 175.363 27.44C174.23 28.1733 172.823 28.54 171.143 28.54C169.583 28.54 168.323 28.18 167.363 27.46C166.417 26.74 165.85 25.6667 165.663 24.24L168.803 23.62C169.15 24.8467 170.103 25.46 171.663 25.46C172.383 25.46 172.983 25.36 173.463 25.16C173.943 24.96 174.21 24.6867 174.263 24.34C174.29 24.1933 174.277 24.06 174.223 23.94C174.183 23.82 174.083 23.7133 173.923 23.62C173.777 23.5267 173.63 23.4533 173.483 23.4C173.35 23.3333 173.13 23.2667 172.823 23.2C172.53 23.1333 172.283 23.0867 172.083 23.06C171.897 23.02 171.603 22.9667 171.203 22.9C171.137 22.9 171.083 22.8933 171.043 22.88C167.79 22.3467 166.37 20.92 166.783 18.6C167.01 17.3067 167.683 16.2867 168.803 15.54C169.937 14.78 171.35 14.4 173.043 14.4C174.59 14.4 175.823 14.74 176.743 15.42C177.677 16.1 178.217 17.12 178.363 18.48L175.263 19.1C175.05 18.02 174.157 17.48 172.583 17.48C171.823 17.48 171.203 17.5867 170.723 17.8C170.243 18 169.977 18.2733 169.923 18.62C169.857 19.02 170.057 19.3133 170.523 19.5C170.99 19.6867 171.83 19.8867 173.043 20.1C173.083 20.1133 173.11 20.12 173.123 20.12C173.617 20.2133 174.063 20.32 174.463 20.44C174.877 20.56 175.297 20.7333 175.723 20.96C176.163 21.1867 176.517 21.4467 176.783 21.74C177.05 22.02 177.25 22.3867 177.383 22.84C177.517 23.2933 177.53 23.8 177.423 24.36ZM190.097 24.36C189.87 25.6667 189.184 26.6933 188.037 27.44C186.904 28.1733 185.497 28.54 183.817 28.54C182.257 28.54 180.997 28.18 180.037 27.46C179.09 26.74 178.524 25.6667 178.337 24.24L181.477 23.62C181.824 24.8467 182.777 25.46 184.337 25.46C185.057 25.46 185.657 25.36 186.137 25.16C186.617 24.96 186.884 24.6867 186.937 24.34C186.964 24.1933 186.95 24.06 186.897 23.94C186.857 23.82 186.757 23.7133 186.597 23.62C186.45 23.5267 186.304 23.4533 186.157 23.4C186.024 23.3333 185.804 23.2667 185.497 23.2C185.204 23.1333 184.957 23.0867 184.757 23.06C184.57 23.02 184.277 22.9667 183.877 22.9C183.81 22.9 183.757 22.8933 183.717 22.88C180.464 22.3467 179.044 20.92 179.457 18.6C179.684 17.3067 180.357 16.2867 181.477 15.54C182.61 14.78 184.024 14.4 185.717 14.4C187.264 14.4 188.497 14.74 189.417 15.42C190.35 16.1 190.89 17.12 191.037 18.48L187.937 19.1C187.724 18.02 186.83 17.48 185.257 17.48C184.497 17.48 183.877 17.5867 183.397 17.8C182.917 18 182.65 18.2733 182.597 18.62C182.53 19.02 182.73 19.3133 183.197 19.5C183.664 19.6867 184.504 19.8867 185.717 20.1C185.757 20.1133 185.784 20.12 185.797 20.12C186.29 20.2133 186.737 20.32 187.137 20.44C187.55 20.56 187.97 20.7333 188.397 20.96C188.837 21.1867 189.19 21.4467 189.457 21.74C189.724 22.02 189.924 22.3867 190.057 22.84C190.19 23.2933 190.204 23.8 190.097 24.36Z" fill="white"/>
<defs>
<linearGradient id="paint0_linear_705_282" x1="0" y1="0" x2="220.656" y2="38.2089" gradientUnits="userSpaceOnUse">
<stop offset="0.236839" stop-color="#0047FF"/>
<stop offset="0.960724" stop-color="#00A9D6"/>
</linearGradient>
</defs>
</svg>
