<svg width="86" height="120" viewBox="0 0 86 120" fill="none" xmlns="http://www.w3.org/2000/svg">
<path d="M0 120V106.263C0 100.684 0.894737 95.8421 2.68421 91.7368C4.47368 87.5263 6.78947 83.7895 9.63158 80.5263C12.5789 77.2632 15.8947 74.4211 19.5789 72C23.3684 69.4737 27.2105 67.1579 31.1053 65.0526C35.1053 62.8421 38.9474 60.7368 42.6316 58.7368C46.4211 56.6316 49.7368 54.4737 52.5789 52.2632C55.5263 49.9474 57.8947 47.4211 59.6842 44.6842C61.4737 41.9474 62.3684 38.7895 62.3684 35.2105C62.3684 30.2632 60.5263 26.4211 56.8421 23.6842C53.2632 20.8421 48.7895 19.4211 43.4211 19.4211C38.0526 19.4211 33.5263 21.0526 29.8421 24.3158C26.2632 27.4737 24.4737 32.2632 24.4737 38.6842V40.7368H1.57895V38.6842C1.57895 32.4737 2.52632 27 4.42105 22.2632C6.42105 17.4211 9.21053 13.3684 12.7895 10.1053C16.4737 6.8421 20.8947 4.36842 26.0526 2.68421C31.2105 0.894738 37 0 43.4211 0C49.8421 0 55.6316 0.842107 60.7895 2.52632C65.9474 4.10527 70.3158 6.42105 73.8947 9.47368C77.5789 12.5263 80.3684 16.2632 82.2632 20.6842C84.2632 25 85.2632 29.8947 85.2632 35.3684C85.2632 42.1053 83.9474 47.9474 81.3158 52.8947C78.7895 57.7368 75.4737 62 71.3684 65.6842C67.3684 69.2632 62.8421 72.4737 57.7895 75.3158C52.8421 78.0526 47.8947 80.7368 42.9474 83.3684C38 85.8947 33.3158 88.5263 28.8947 91.2632C24.5789 93.8947 21.0526 97 18.3158 100.579L20.8421 104.842C23.4737 104 25.8947 103.368 28.1053 102.947C30.4211 102.421 32.6842 102.053 34.8947 101.842C37.1053 101.632 39.3158 101.526 41.5263 101.526C43.8421 101.421 46.3158 101.368 48.9474 101.368H85.2632V120H0Z" fill="white"/>
<path d="M0 120V106.263C0 100.684 0.894737 95.8421 2.68421 91.7368C4.47368 87.5263 6.78947 83.7895 9.63158 80.5263C12.5789 77.2632 15.8947 74.4211 19.5789 72C23.3684 69.4737 27.2105 67.1579 31.1053 65.0526C35.1053 62.8421 38.9474 60.7368 42.6316 58.7368C46.4211 56.6316 49.7368 54.4737 52.5789 52.2632C55.5263 49.9474 57.8947 47.4211 59.6842 44.6842C61.4737 41.9474 62.3684 38.7895 62.3684 35.2105C62.3684 30.2632 60.5263 26.4211 56.8421 23.6842C53.2632 20.8421 48.7895 19.4211 43.4211 19.4211C38.0526 19.4211 33.5263 21.0526 29.8421 24.3158C26.2632 27.4737 24.4737 32.2632 24.4737 38.6842V40.7368H1.57895V38.6842C1.57895 32.4737 2.52632 27 4.42105 22.2632C6.42105 17.4211 9.21053 13.3684 12.7895 10.1053C16.4737 6.8421 20.8947 4.36842 26.0526 2.68421C31.2105 0.894738 37 0 43.4211 0C49.8421 0 55.6316 0.842107 60.7895 2.52632C65.9474 4.10527 70.3158 6.42105 73.8947 9.47368C77.5789 12.5263 80.3684 16.2632 82.2632 20.6842C84.2632 25 85.2632 29.8947 85.2632 35.3684C85.2632 42.1053 83.9474 47.9474 81.3158 52.8947C78.7895 57.7368 75.4737 62 71.3684 65.6842C67.3684 69.2632 62.8421 72.4737 57.7895 75.3158C52.8421 78.0526 47.8947 80.7368 42.9474 83.3684C38 85.8947 33.3158 88.5263 28.8947 91.2632C24.5789 93.8947 21.0526 97 18.3158 100.579L20.8421 104.842C23.4737 104 25.8947 103.368 28.1053 102.947C30.4211 102.421 32.6842 102.053 34.8947 101.842C37.1053 101.632 39.3158 101.526 41.5263 101.526C43.8421 101.421 46.3158 101.368 48.9474 101.368H85.2632V120H0Z" fill="url(#paint0_angular_442_134)"/>
<defs>
<radialGradient id="paint0_angular_442_134" cx="0" cy="0" r="1" gradientUnits="userSpaceOnUse" gradientTransform="translate(58.5414 67.3681) rotate(115.767) scale(101.44 92.4824)">
<stop stop-color="#F1C6DD"/>
<stop offset="0.139053" stop-color="#C1A4E8"/>
<stop offset="0.238718" stop-color="#B8E2FB"/>
<stop offset="0.374927" stop-color="#F2EFE8"/>
<stop offset="0.477914" stop-color="#F9DCDD"/>
<stop offset="0.557645" stop-color="#E1C1E5"/>
<stop offset="0.624089" stop-color="#BDAFE3"/>
<stop offset="0.720431" stop-color="#C7EDEB"/>
<stop offset="0.830062" stop-color="#E7F5EB"/>
<stop offset="0.913116" stop-color="#F2F0E7"/>
<stop offset="1" stop-color="#DDC1E1"/>
</radialGradient>
</defs>
</svg>
