<svg width="247" height="52" viewBox="0 0 247 52" fill="none" xmlns="http://www.w3.org/2000/svg">
<mask id="path-1-outside-1_1153_434" maskUnits="userSpaceOnUse" x="0" y="0" width="247" height="52" fill="black">
<rect fill="white" width="247" height="52"/>
<path d="M3 34.922H11.99C11.99 35.9553 12.238 36.9267 12.734 37.836C13.2713 38.7453 14.0153 39.5307 14.966 40.192C15.9167 40.8533 17.0533 41.37 18.376 41.742C19.74 42.114 21.228 42.3 22.84 42.3C26.1053 42.3 28.73 41.7833 30.714 40.75C32.698 39.7167 33.69 38.1047 33.69 35.914C33.69 34.55 33.256 33.4547 32.388 32.628C31.5613 31.8013 30.466 31.14 29.102 30.644C27.738 30.148 26.1673 29.7553 24.39 29.466C22.654 29.1767 20.8767 28.8667 19.058 28.536C17.2393 28.164 15.4413 27.73 13.664 27.234C11.928 26.6967 10.378 25.9527 9.014 25.002C7.65 24.0513 6.534 22.832 5.666 21.344C4.83933 19.856 4.426 17.9753 4.426 15.702C4.426 13.7593 4.798 11.9613 5.542 10.308C6.32733 8.61334 7.48467 7.16667 9.014 5.968C10.5433 4.728 12.4447 3.75667 14.718 3.054C17.0327 2.35133 19.74 2 22.84 2C25.94 2 28.6267 2.39267 30.9 3.178C33.1733 3.922 35.0747 4.93467 36.604 6.216C38.1333 7.49734 39.27 8.98534 40.014 10.68C40.7993 12.3747 41.2127 14.1727 41.254 16.074H32.264C32.264 15.2887 32.078 14.524 31.706 13.78C31.334 12.9947 30.7553 12.292 29.97 11.672C29.226 11.052 28.2547 10.556 27.056 10.184C25.8573 9.812 24.452 9.626 22.84 9.626C19.5747 9.626 17.1773 10.184 15.648 11.3C14.16 12.3747 13.416 13.842 13.416 15.702C13.416 16.942 13.8293 17.9133 14.656 18.616C15.524 19.2773 16.64 19.8353 18.004 20.29C19.368 20.7033 20.918 21.034 22.654 21.282C24.4313 21.53 26.2293 21.84 28.048 22.212C29.8667 22.5427 31.644 22.9973 33.38 23.576C35.1573 24.1133 36.728 24.8987 38.092 25.932C39.456 26.9653 40.5513 28.288 41.378 29.9C42.246 31.4707 42.68 33.4753 42.68 35.914C42.68 37.9807 42.2253 39.882 41.316 41.618C40.4067 43.354 39.084 44.842 37.348 46.082C35.6533 47.322 33.5867 48.2933 31.148 48.996C28.7093 49.6573 25.94 49.988 22.84 49.988C19.74 49.988 16.9707 49.616 14.532 48.872C12.1347 48.0867 10.068 47.0327 8.332 45.71C6.63733 44.346 5.33533 42.7547 4.426 40.936C3.51667 39.076 3.04133 37.0713 3 34.922ZM47.841 26.118C47.841 22.3153 48.337 18.9467 49.329 16.012C50.321 13.036 51.7677 10.5353 53.669 8.51C55.6117 6.44333 57.9883 4.89333 60.799 3.86C63.6097 2.78533 66.8337 2.248 70.471 2.248C74.1083 2.248 77.3324 2.78533 80.143 3.86C82.9537 4.89333 85.3097 6.44333 87.211 8.51C89.1537 10.5353 90.621 13.036 91.613 16.012C92.605 18.9467 93.101 22.3153 93.101 26.118C93.101 29.9207 92.605 33.31 91.613 36.286C90.621 39.2207 89.1537 41.7213 87.211 43.788C85.3097 45.8133 82.9537 47.3633 80.143 48.438C77.3324 49.4713 74.1083 49.988 70.471 49.988C66.8337 49.988 63.6097 49.4713 60.799 48.438C57.9883 47.3633 55.6117 45.8133 53.669 43.788C51.7677 41.7213 50.321 39.2207 49.329 36.286C48.337 33.31 47.841 29.9207 47.841 26.118ZM56.831 26.118C56.831 31.5327 57.9883 35.5833 60.303 38.27C62.659 40.9567 66.0483 42.3 70.471 42.3C74.8937 42.3 78.2624 40.9567 80.577 38.27C82.933 35.5833 84.111 31.5327 84.111 26.118C84.111 20.7033 82.933 16.6527 80.577 13.966C78.2624 11.238 74.8937 9.874 70.471 9.874C66.0483 9.874 62.659 11.238 60.303 13.966C57.9883 16.6527 56.831 20.7033 56.831 26.118ZM122.42 49.988C118.783 49.988 115.559 49.4713 112.748 48.438C109.938 47.3633 107.561 45.8133 105.618 43.788C103.717 41.7213 102.27 39.2207 101.278 36.286C100.286 33.31 99.7902 29.9207 99.7902 26.118C99.7902 22.3153 100.286 18.9467 101.278 16.012C102.27 13.036 103.717 10.5353 105.618 8.51C107.561 6.44333 109.938 4.89333 112.748 3.86C115.559 2.78533 118.783 2.248 122.42 2.248C128.62 2.248 133.56 3.736 137.238 6.712C140.958 9.688 143.17 13.9867 143.872 19.608H134.696C134.2 16.384 132.878 13.966 130.728 12.354C128.62 10.7007 125.851 9.874 122.42 9.874C117.998 9.874 114.608 11.238 112.252 13.966C109.938 16.6527 108.78 20.7033 108.78 26.118C108.78 31.5327 109.938 35.5833 112.252 38.27C114.608 40.9567 117.998 42.3 122.42 42.3C125.851 42.3 128.62 41.494 130.728 39.882C132.836 38.27 134.159 35.852 134.696 32.628H143.872C143.17 38.2493 140.958 42.548 137.238 45.524C133.56 48.5 128.62 49.988 122.42 49.988ZM151.209 2.868H159.703V49.368H151.209V2.868ZM182.683 2.868H191.177L208.413 49.368H199.423L195.889 39.448H177.971L174.437 49.368H165.447L182.683 2.868ZM180.699 31.822H193.161L189.317 21.282C188.904 20.2073 188.573 19.112 188.325 17.996C188.077 16.8387 187.953 15.7227 187.953 14.648V12.912H185.907V14.648C185.907 15.7227 185.783 16.8387 185.535 17.996C185.287 19.112 184.977 20.2073 184.605 21.282L180.699 31.822ZM222.672 2.868V41.866H244.062V49.368H214.178V2.868H222.672Z"/>
</mask>
<path d="M3 34.922H11.99C11.99 35.9553 12.238 36.9267 12.734 37.836C13.2713 38.7453 14.0153 39.5307 14.966 40.192C15.9167 40.8533 17.0533 41.37 18.376 41.742C19.74 42.114 21.228 42.3 22.84 42.3C26.1053 42.3 28.73 41.7833 30.714 40.75C32.698 39.7167 33.69 38.1047 33.69 35.914C33.69 34.55 33.256 33.4547 32.388 32.628C31.5613 31.8013 30.466 31.14 29.102 30.644C27.738 30.148 26.1673 29.7553 24.39 29.466C22.654 29.1767 20.8767 28.8667 19.058 28.536C17.2393 28.164 15.4413 27.73 13.664 27.234C11.928 26.6967 10.378 25.9527 9.014 25.002C7.65 24.0513 6.534 22.832 5.666 21.344C4.83933 19.856 4.426 17.9753 4.426 15.702C4.426 13.7593 4.798 11.9613 5.542 10.308C6.32733 8.61334 7.48467 7.16667 9.014 5.968C10.5433 4.728 12.4447 3.75667 14.718 3.054C17.0327 2.35133 19.74 2 22.84 2C25.94 2 28.6267 2.39267 30.9 3.178C33.1733 3.922 35.0747 4.93467 36.604 6.216C38.1333 7.49734 39.27 8.98534 40.014 10.68C40.7993 12.3747 41.2127 14.1727 41.254 16.074H32.264C32.264 15.2887 32.078 14.524 31.706 13.78C31.334 12.9947 30.7553 12.292 29.97 11.672C29.226 11.052 28.2547 10.556 27.056 10.184C25.8573 9.812 24.452 9.626 22.84 9.626C19.5747 9.626 17.1773 10.184 15.648 11.3C14.16 12.3747 13.416 13.842 13.416 15.702C13.416 16.942 13.8293 17.9133 14.656 18.616C15.524 19.2773 16.64 19.8353 18.004 20.29C19.368 20.7033 20.918 21.034 22.654 21.282C24.4313 21.53 26.2293 21.84 28.048 22.212C29.8667 22.5427 31.644 22.9973 33.38 23.576C35.1573 24.1133 36.728 24.8987 38.092 25.932C39.456 26.9653 40.5513 28.288 41.378 29.9C42.246 31.4707 42.68 33.4753 42.68 35.914C42.68 37.9807 42.2253 39.882 41.316 41.618C40.4067 43.354 39.084 44.842 37.348 46.082C35.6533 47.322 33.5867 48.2933 31.148 48.996C28.7093 49.6573 25.94 49.988 22.84 49.988C19.74 49.988 16.9707 49.616 14.532 48.872C12.1347 48.0867 10.068 47.0327 8.332 45.71C6.63733 44.346 5.33533 42.7547 4.426 40.936C3.51667 39.076 3.04133 37.0713 3 34.922ZM47.841 26.118C47.841 22.3153 48.337 18.9467 49.329 16.012C50.321 13.036 51.7677 10.5353 53.669 8.51C55.6117 6.44333 57.9883 4.89333 60.799 3.86C63.6097 2.78533 66.8337 2.248 70.471 2.248C74.1083 2.248 77.3324 2.78533 80.143 3.86C82.9537 4.89333 85.3097 6.44333 87.211 8.51C89.1537 10.5353 90.621 13.036 91.613 16.012C92.605 18.9467 93.101 22.3153 93.101 26.118C93.101 29.9207 92.605 33.31 91.613 36.286C90.621 39.2207 89.1537 41.7213 87.211 43.788C85.3097 45.8133 82.9537 47.3633 80.143 48.438C77.3324 49.4713 74.1083 49.988 70.471 49.988C66.8337 49.988 63.6097 49.4713 60.799 48.438C57.9883 47.3633 55.6117 45.8133 53.669 43.788C51.7677 41.7213 50.321 39.2207 49.329 36.286C48.337 33.31 47.841 29.9207 47.841 26.118ZM56.831 26.118C56.831 31.5327 57.9883 35.5833 60.303 38.27C62.659 40.9567 66.0483 42.3 70.471 42.3C74.8937 42.3 78.2624 40.9567 80.577 38.27C82.933 35.5833 84.111 31.5327 84.111 26.118C84.111 20.7033 82.933 16.6527 80.577 13.966C78.2624 11.238 74.8937 9.874 70.471 9.874C66.0483 9.874 62.659 11.238 60.303 13.966C57.9883 16.6527 56.831 20.7033 56.831 26.118ZM122.42 49.988C118.783 49.988 115.559 49.4713 112.748 48.438C109.938 47.3633 107.561 45.8133 105.618 43.788C103.717 41.7213 102.27 39.2207 101.278 36.286C100.286 33.31 99.7902 29.9207 99.7902 26.118C99.7902 22.3153 100.286 18.9467 101.278 16.012C102.27 13.036 103.717 10.5353 105.618 8.51C107.561 6.44333 109.938 4.89333 112.748 3.86C115.559 2.78533 118.783 2.248 122.42 2.248C128.62 2.248 133.56 3.736 137.238 6.712C140.958 9.688 143.17 13.9867 143.872 19.608H134.696C134.2 16.384 132.878 13.966 130.728 12.354C128.62 10.7007 125.851 9.874 122.42 9.874C117.998 9.874 114.608 11.238 112.252 13.966C109.938 16.6527 108.78 20.7033 108.78 26.118C108.78 31.5327 109.938 35.5833 112.252 38.27C114.608 40.9567 117.998 42.3 122.42 42.3C125.851 42.3 128.62 41.494 130.728 39.882C132.836 38.27 134.159 35.852 134.696 32.628H143.872C143.17 38.2493 140.958 42.548 137.238 45.524C133.56 48.5 128.62 49.988 122.42 49.988ZM151.209 2.868H159.703V49.368H151.209V2.868ZM182.683 2.868H191.177L208.413 49.368H199.423L195.889 39.448H177.971L174.437 49.368H165.447L182.683 2.868ZM180.699 31.822H193.161L189.317 21.282C188.904 20.2073 188.573 19.112 188.325 17.996C188.077 16.8387 187.953 15.7227 187.953 14.648V12.912H185.907V14.648C185.907 15.7227 185.783 16.8387 185.535 17.996C185.287 19.112 184.977 20.2073 184.605 21.282L180.699 31.822ZM222.672 2.868V41.866H244.062V49.368H214.178V2.868H222.672Z" stroke="white" stroke-opacity="0.6" stroke-width="4" mask="url(#path-1-outside-1_1153_434)"/>
</svg>
