<svg width="735" height="189" viewBox="0 0 735 189" fill="none" xmlns="http://www.w3.org/2000/svg">
<path d="M5.28 2.84H28.96L27.92 8.72H10.52L9.76 13H26L24.96 18.88H8.72L7.96 23.12H25.36L24.32 29H0.64L5.28 2.84ZM51.2844 17.24L45.0844 18.04C44.8977 17.0267 44.4444 16.2533 43.7244 15.72C43.031 15.1867 42.0977 14.92 40.9244 14.92C39.4044 14.92 38.1377 15.3467 37.1244 16.2C36.111 17.0267 35.471 18.2 35.2044 19.72C34.9377 21.2667 35.151 22.4667 35.8444 23.32C36.5644 24.1467 37.6977 24.56 39.2444 24.56C40.4977 24.56 41.591 24.2667 42.5244 23.68C43.4844 23.0667 44.1777 22.2 44.6044 21.08L50.6444 21.88C49.631 24.4667 48.0044 26.4667 45.7644 27.88C43.551 29.2667 41.0577 29.96 38.2844 29.96C34.871 29.96 32.311 29.0667 30.6044 27.28C28.8977 25.4667 28.3244 22.9467 28.8844 19.72C29.4444 16.52 30.8977 14.0267 33.2444 12.24C35.591 10.4533 38.471 9.56 41.8844 9.56C44.391 9.56 46.4844 10.2267 48.1644 11.56C49.8444 12.8933 50.8844 14.7867 51.2844 17.24ZM77.4316 10.6L74.1916 29H67.9116L70.1516 16.44H64.5116L63.8716 20.04C63.6049 21.5333 63.2049 22.8267 62.6716 23.92C62.1649 25.0133 61.5782 25.88 60.9116 26.52C60.2716 27.16 59.5116 27.68 58.6316 28.08C57.7782 28.4533 56.9382 28.7067 56.1116 28.84C55.2849 28.9467 54.3516 29 53.3116 29H51.7916L52.8316 23.08H54.3516C55.2316 23.08 55.9382 22.8667 56.4716 22.44C57.0049 21.9867 57.4049 21.04 57.6716 19.6L59.2316 10.6H77.4316ZM87.9916 10.6H81.6716L78.3916 29H85.5916L96.4316 18.28L94.5116 29H100.792L104.072 10.6H96.9116L86.1116 21.24L87.9916 10.6ZM124.731 23.92H131.131C133.291 23.92 134.424 23.6133 134.531 23C134.611 22.5467 133.571 22.32 131.411 22.32H125.011L124.731 23.92ZM125.891 17.24H132.291C134.157 17.24 135.144 16.9733 135.251 16.44C135.304 16.1733 135.117 15.9733 134.691 15.84C134.264 15.7067 133.557 15.64 132.571 15.64H126.171L125.891 17.24ZM136.451 19.52L136.371 20.04C137.811 20.2533 138.917 20.7333 139.691 21.48C140.491 22.2 140.797 23.0533 140.611 24.04C140.344 25.56 139.317 26.7733 137.531 27.68C135.744 28.56 133.451 29 130.651 29H117.531L120.811 10.6H133.931C136.704 10.6 138.757 11.0267 140.091 11.88C141.451 12.7333 142.011 13.8933 141.771 15.36C141.557 16.4267 140.984 17.3467 140.051 18.12C139.144 18.8667 137.944 19.3333 136.451 19.52ZM169.253 10.6H175.533L172.253 29H165.973L169.253 10.6ZM150.573 23.12H155.253C157.386 23.12 158.506 22.84 158.613 22.28C158.719 21.64 157.666 21.32 155.453 21.32H150.893L150.573 23.12ZM152.813 10.6L151.933 15.4H156.893C159.666 15.4 161.786 16.0133 163.253 17.24C164.719 18.4667 165.266 20.16 164.893 22.32C164.519 24.4533 163.439 26.1067 161.653 27.28C159.893 28.4267 157.559 29 154.653 29H143.253L146.533 10.6H152.813ZM202.754 16.28L207.834 10.6H214.914L206.474 19.88L211.674 29H204.634L201.514 23.32L201.394 21.48H200.874L200.114 23.32L195.034 29H187.954L196.354 19.88L191.194 10.6H198.234L201.354 16.28L201.474 18.12H201.994L202.754 16.28ZM222.112 19.72C221.846 21.2667 222.046 22.4667 222.712 23.32C223.406 24.1467 224.499 24.56 225.992 24.56C227.486 24.56 228.726 24.1467 229.712 23.32C230.699 22.4667 231.326 21.2667 231.592 19.72C231.859 18.2 231.646 17.0267 230.952 16.2C230.259 15.3467 229.166 14.92 227.672 14.92C226.179 14.92 224.939 15.3333 223.952 16.16C222.992 16.9867 222.379 18.1733 222.112 19.72ZM215.792 19.72C216.352 16.4933 217.779 14 220.072 12.24C222.392 10.4533 225.246 9.56 228.632 9.56C231.806 9.56 234.286 10.4667 236.072 12.28C237.859 14.0933 238.472 16.5733 237.912 19.72C237.352 22.9467 235.912 25.4667 233.592 27.28C231.272 29.0667 228.419 29.96 225.032 29.96C221.646 29.96 219.112 29.0667 217.432 27.28C215.779 25.4667 215.232 22.9467 215.792 19.72ZM242.494 10.6L241.454 16.44H248.574L246.374 29H252.694L254.894 16.44H262.094L263.134 10.6H242.494ZM273.181 10.6H266.861L263.581 29H270.781L281.621 18.28L279.701 29H285.981L289.261 10.6H282.101L271.301 21.24L273.181 10.6ZM293 10.6L291.96 16.44H299.08L296.88 29H303.2L305.4 16.44H312.6L313.64 10.6H293ZM321.087 21.48C321.034 22.4667 321.407 23.2267 322.207 23.76C323.007 24.2933 324.167 24.56 325.687 24.56C326.86 24.56 327.874 24.4 328.727 24.08C329.58 23.7333 330.167 23.2667 330.487 22.68L336.487 23.52C335.58 25.52 334.074 27.0933 331.967 28.24C329.86 29.3867 327.447 29.96 324.727 29.96C321.154 29.96 318.5 29.0533 316.767 27.24C315.06 25.4 314.487 22.8933 315.047 19.72C315.607 16.5733 317.034 14.0933 319.327 12.28C321.62 10.4667 324.474 9.56 327.887 9.56C331.327 9.56 333.874 10.4667 335.527 12.28C337.18 14.0933 337.74 16.4933 337.207 19.48L336.847 21.48H321.087ZM321.887 17.4H331.207C331.34 16.68 330.994 16.0933 330.167 15.64C329.367 15.16 328.287 14.92 326.927 14.92C324.26 14.92 322.58 15.7467 321.887 17.4ZM358.748 19.72C358.481 21.2667 358.681 22.4667 359.348 23.32C360.041 24.1467 361.135 24.56 362.628 24.56C364.121 24.56 365.361 24.1467 366.348 23.32C367.335 22.4667 367.961 21.2667 368.228 19.72C368.495 18.2 368.281 17.0267 367.588 16.2C366.895 15.3467 365.801 14.92 364.308 14.92C362.815 14.92 361.575 15.3333 360.588 16.16C359.628 16.9867 359.015 18.1733 358.748 19.72ZM352.428 19.72C352.988 16.4933 354.415 14 356.708 12.24C359.028 10.4533 361.881 9.56 365.268 9.56C368.441 9.56 370.921 10.4667 372.708 12.28C374.495 14.0933 375.108 16.5733 374.548 19.72C373.988 22.9467 372.548 25.4667 370.228 27.28C367.908 29.0667 365.055 29.96 361.668 29.96C358.281 29.96 355.748 29.0667 354.068 27.28C352.415 25.4667 351.868 22.9467 352.428 19.72ZM377.41 19.24C376.85 22.4133 377.503 25 379.37 27C381.263 28.9733 383.983 29.96 387.53 29.96C390.783 29.96 393.543 29.1333 395.81 27.48C398.103 25.8 399.49 23.6133 399.97 20.92C400.45 18.12 400.023 15.8133 398.69 14C397.356 12.1867 395.396 11.28 392.81 11.28C390.41 11.28 388.303 12.08 386.49 13.68C384.676 15.28 383.543 17.3467 383.09 19.88L377.41 19.24ZM383.49 20.76C383.703 19.48 384.316 18.48 385.33 17.76C386.37 17.0133 387.663 16.64 389.21 16.64C390.863 16.64 392.076 16.9867 392.85 17.68C393.65 18.3733 393.93 19.3467 393.69 20.6C393.476 21.8267 392.863 22.8 391.85 23.52C390.836 24.2133 389.556 24.56 388.01 24.56C386.543 24.56 385.37 24.2 384.49 23.48C383.61 22.76 383.276 21.8533 383.49 20.76ZM391.33 3.36C388.983 3.92 387.05 4.56 385.53 5.28C384.036 6 382.743 6.98666 381.65 8.24C380.556 9.49333 379.69 10.9733 379.05 12.68C378.436 14.3867 377.89 16.5733 377.41 19.24L383.57 20.12C383.863 18.4667 384.17 17.3067 384.49 16.64L383.17 15.92L385.09 12.6C385.623 11.4 386.356 10.4933 387.29 9.88C388.25 9.26667 389.77 8.81333 391.85 8.52C394.49 8.12 396.743 7.49333 398.61 6.64C400.476 5.78667 401.73 4.94667 402.37 4.12L397.93 0.759999C397.05 1.96 394.85 2.82667 391.33 3.36ZM425.373 17.24L419.173 18.04C418.987 17.0267 418.533 16.2533 417.813 15.72C417.12 15.1867 416.187 14.92 415.013 14.92C413.493 14.92 412.227 15.3467 411.213 16.2C410.2 17.0267 409.56 18.2 409.293 19.72C409.027 21.2667 409.24 22.4667 409.933 23.32C410.653 24.1467 411.787 24.56 413.333 24.56C414.587 24.56 415.68 24.2667 416.613 23.68C417.573 23.0667 418.267 22.2 418.693 21.08L424.733 21.88C423.72 24.4667 422.093 26.4667 419.853 27.88C417.64 29.2667 415.147 29.96 412.373 29.96C408.96 29.96 406.4 29.0667 404.693 27.28C402.987 25.4667 402.413 22.9467 402.973 19.72C403.533 16.52 404.987 14.0267 407.333 12.24C409.68 10.4533 412.56 9.56 415.973 9.56C418.48 9.56 420.573 10.2267 422.253 11.56C423.933 12.8933 424.973 14.7867 425.373 17.24ZM439.561 21.72L445.681 10.6H452.641L439.641 32.24C438.707 33.8133 437.534 35.0133 436.121 35.84C434.734 36.6667 433.254 37.08 431.681 37.08H425.681L426.641 31.52H430.001C430.827 31.52 431.467 31.4267 431.921 31.24C432.401 31.08 432.787 30.7867 433.081 30.36L433.921 29L428.921 10.6H435.841L438.121 21.72L438.161 23.96H438.681L439.561 21.72ZM477.719 25.08L475.919 35.4H469.599L470.359 31H457.799L457.039 35.4H450.799L452.599 25.08H453.759C454.345 25.08 454.839 25.0267 455.239 24.92C455.639 24.8133 456.052 24.5867 456.479 24.24C456.932 23.8933 457.319 23.3333 457.639 22.56C457.985 21.7867 458.265 20.8 458.479 19.6L460.039 10.6H477.519L474.959 25.08H477.719ZM468.679 25.08L470.239 16.44H465.319L464.679 20.04C464.279 22.2533 463.399 23.6267 462.039 24.16L461.999 25.08H468.679ZM490.068 10.6H483.748L480.468 29H487.668L498.508 18.28L496.588 29H502.868L506.148 10.6H498.988L488.188 21.24L490.068 10.6ZM509.887 10.6L508.847 16.44H515.967L513.767 29H520.087L522.287 16.44H529.487L530.527 10.6H509.887ZM538.294 23.12H543.694C545.988 23.12 547.188 22.84 547.294 22.28C547.401 21.64 546.268 21.32 543.894 21.32H538.614L538.294 23.12ZM540.534 10.6L539.654 15.4H545.334C548.188 15.4 550.361 16.0133 551.854 17.24C553.374 18.4667 553.948 20.16 553.574 22.32C553.201 24.4533 552.108 26.1067 550.294 27.28C548.481 28.4267 546.081 29 543.094 29H530.974L534.254 10.6H540.534ZM581.236 21.72L587.356 10.6H594.316L581.316 32.24C580.382 33.8133 579.209 35.0133 577.796 35.84C576.409 36.6667 574.929 37.08 573.356 37.08H567.356L568.316 31.52H571.676C572.502 31.52 573.142 31.4267 573.596 31.24C574.076 31.08 574.462 30.7867 574.756 30.36L575.596 29L570.596 10.6H577.516L579.796 21.72L579.836 23.96H580.356L581.236 21.72ZM617.594 17.24L611.394 18.04C611.207 17.0267 610.754 16.2533 610.034 15.72C609.34 15.1867 608.407 14.92 607.234 14.92C605.714 14.92 604.447 15.3467 603.434 16.2C602.42 17.0267 601.78 18.2 601.514 19.72C601.247 21.2667 601.46 22.4667 602.154 23.32C602.874 24.1467 604.007 24.56 605.554 24.56C606.807 24.56 607.9 24.2667 608.834 23.68C609.794 23.0667 610.487 22.2 610.914 21.08L616.954 21.88C615.94 24.4667 614.314 26.4667 612.074 27.88C609.86 29.2667 607.367 29.96 604.594 29.96C601.18 29.96 598.62 29.0667 596.914 27.28C595.207 25.4667 594.634 22.9467 595.194 19.72C595.754 16.52 597.207 14.0267 599.554 12.24C601.9 10.4533 604.78 9.56 608.194 9.56C610.7 9.56 612.794 10.2267 614.474 11.56C616.154 12.8933 617.194 14.7867 617.594 17.24ZM643.741 10.6L640.501 29H634.221L636.461 16.44H630.821L630.181 20.04C629.914 21.5333 629.514 22.8267 628.981 23.92C628.474 25.0133 627.888 25.88 627.221 26.52C626.581 27.16 625.821 27.68 624.941 28.08C624.088 28.4533 623.248 28.7067 622.421 28.84C621.594 28.9467 620.661 29 619.621 29H618.101L619.141 23.08H620.661C621.541 23.08 622.248 22.8667 622.781 22.44C623.314 21.9867 623.714 21.04 623.981 19.6L625.541 10.6H643.741ZM657.581 21.72L663.701 10.6H670.661L657.661 32.24C656.728 33.8133 655.554 35.0133 654.141 35.84C652.754 36.6667 651.274 37.08 649.701 37.08H643.701L644.661 31.52H648.021C648.848 31.52 649.488 31.4267 649.941 31.24C650.421 31.08 650.808 30.7867 651.101 30.36L651.941 29L646.941 10.6H653.861L656.141 21.72L656.181 23.96H656.701L657.581 21.72ZM673.859 10.6L670.579 29H676.859L679.099 16.44H690.939L691.979 10.6H673.859ZM701.487 10.6H695.167L691.887 29H699.087L709.927 18.28L708.007 29H714.287L717.567 10.6H710.407L699.607 21.24L701.487 10.6ZM10.24 62.6H3.92L0.64 81H7.84L18.68 70.28L16.76 81H23.04L26.32 62.6H19.16L8.36 73.24L10.24 62.6ZM52.1394 62.6L48.8994 81H42.6194L44.8594 68.44H39.2194L38.5794 72.04C38.3127 73.5333 37.9127 74.8267 37.3794 75.92C36.8727 77.0133 36.286 77.88 35.6194 78.52C34.9794 79.16 34.2194 79.68 33.3394 80.08C32.486 80.4533 31.646 80.7067 30.8194 80.84C29.9927 80.9467 29.0594 81 28.0194 81H26.4994L27.5394 75.08H29.0594C29.9394 75.08 30.646 74.8667 31.1794 74.44C31.7127 73.9867 32.1127 73.04 32.3794 71.6L33.9394 62.6H52.1394ZM62.6994 62.6H56.3794L53.0994 81H60.2994L71.1394 70.28L69.2194 81H75.4994L78.7794 62.6H71.6194L60.8194 73.24L62.6994 62.6ZM115.598 69.24L109.398 70.04C109.212 69.0267 108.758 68.2533 108.038 67.72C107.345 67.1867 106.412 66.92 105.238 66.92C103.718 66.92 102.452 67.3467 101.438 68.2C100.425 69.0267 99.7851 70.2 99.5184 71.72C99.2518 73.2667 99.4651 74.4667 100.158 75.32C100.878 76.1467 102.012 76.56 103.558 76.56C104.812 76.56 105.905 76.2667 106.838 75.68C107.798 75.0667 108.492 74.2 108.918 73.08L114.958 73.88C113.945 76.4667 112.318 78.4667 110.078 79.88C107.865 81.2667 105.372 81.96 102.598 81.96C99.1851 81.96 96.6251 81.0667 94.9184 79.28C93.2118 77.4667 92.6384 74.9467 93.1984 71.72C93.7584 68.52 95.2118 66.0267 97.5584 64.24C99.9051 62.4533 102.785 61.56 106.198 61.56C108.705 61.56 110.798 62.2267 112.478 63.56C114.158 64.8933 115.198 66.7867 115.598 69.24ZM124.106 75.92H130.506C132.666 75.92 133.799 75.6133 133.906 75C133.986 74.5467 132.946 74.32 130.786 74.32H124.386L124.106 75.92ZM125.266 69.24H131.666C133.532 69.24 134.519 68.9733 134.626 68.44C134.679 68.1733 134.492 67.9733 134.066 67.84C133.639 67.7067 132.932 67.64 131.946 67.64H125.546L125.266 69.24ZM135.826 71.52L135.746 72.04C137.186 72.2533 138.292 72.7333 139.066 73.48C139.866 74.2 140.172 75.0533 139.986 76.04C139.719 77.56 138.692 78.7733 136.906 79.68C135.119 80.56 132.826 81 130.026 81H116.906L120.186 62.6H133.306C136.079 62.6 138.132 63.0267 139.466 63.88C140.826 64.7333 141.386 65.8933 141.146 67.36C140.932 68.4267 140.359 69.3467 139.426 70.12C138.519 70.8667 137.319 71.3333 135.826 71.52ZM142.788 81L148.868 72.84H155.668L149.668 81H142.788ZM159.148 68.48H153.148C151.548 68.48 150.721 68.6933 150.668 69.12C150.561 69.6267 151.361 69.88 153.068 69.88H158.908L159.148 68.48ZM156.948 81L157.868 75.8H152.188C149.414 75.8 147.281 75.2133 145.788 74.04C144.321 72.84 143.774 71.2 144.148 69.12C144.521 67.04 145.588 65.44 147.348 64.32C149.108 63.1733 151.441 62.6 154.348 62.6H166.668L163.428 81H156.948ZM184.566 71.44C186.086 71.28 187.326 70.8267 188.286 70.08C189.273 69.3067 189.873 68.36 190.086 67.24C190.38 65.5867 189.673 64.24 187.966 63.2C186.26 62.1333 183.9 61.6 180.886 61.6C177.98 61.6 175.54 62.1067 173.566 63.12C171.62 64.1333 170.206 65.6267 169.326 67.6L175.446 68.4C176.113 67.52 177.566 67.08 179.806 67.08C181.033 67.08 181.98 67.2133 182.646 67.48C183.313 67.72 183.606 68.0533 183.526 68.48C183.446 68.9333 182.366 69.16 180.286 69.16H175.806L174.926 74.24H179.406C180.366 74.24 181.1 74.3467 181.606 74.56C182.14 74.7733 182.38 75.0533 182.326 75.4C182.246 75.88 181.806 76.2667 181.006 76.56C180.233 76.8533 179.233 77 178.006 77C175.82 77 174.58 76.32 174.286 74.96L167.886 75.72C168.046 77.7733 168.926 79.3467 170.526 80.44C172.126 81.5067 174.366 82.04 177.246 82.04C180.26 82.04 182.82 81.4667 184.926 80.32C187.033 79.1467 188.246 77.64 188.566 75.8C188.753 74.76 188.486 73.8933 187.766 73.2C187.046 72.5067 185.953 72.08 184.486 71.92L184.566 71.44ZM197.822 75.08C197.742 75.56 197.915 75.92 198.342 76.16C198.795 76.4 199.422 76.52 200.222 76.52C201.715 76.52 202.955 76.2933 203.942 75.84C204.955 75.36 205.528 74.7467 205.662 74H206.582C206.155 76.4 205.035 78.3333 203.222 79.8C201.408 81.24 199.222 81.96 196.662 81.96C194.822 81.96 193.382 81.4533 192.342 80.44C191.328 79.4 190.968 78.08 191.262 76.48C191.555 74.88 192.302 73.6133 193.502 72.68C194.702 71.72 196.395 71.0267 198.582 70.6L206.542 69L205.862 72.8L200.182 73.96C198.688 74.28 197.902 74.6533 197.822 75.08ZM210.742 81H204.422L206.822 76.6L205.342 75.8L206.582 68.84C206.662 68.3067 206.395 67.88 205.782 67.56C205.168 67.24 204.315 67.08 203.222 67.08C202.075 67.08 201.102 67.32 200.302 67.8C199.502 68.28 198.968 68.9067 198.702 69.68L192.622 68.88C193.368 66.7733 194.782 65.04 196.862 63.68C198.942 62.32 201.408 61.64 204.262 61.64C207.168 61.64 209.422 62.2933 211.022 63.6C212.648 64.9067 213.302 66.5067 212.982 68.4L210.742 81ZM217.709 62.6L216.669 68.44H223.789L221.589 81H227.909L230.109 68.44H237.309L238.349 62.6H217.709ZM246.116 75.12H251.516C253.81 75.12 255.01 74.84 255.116 74.28C255.223 73.64 254.09 73.32 251.716 73.32H246.436L246.116 75.12ZM248.356 62.6L247.476 67.4H253.156C256.01 67.4 258.183 68.0133 259.676 69.24C261.196 70.4667 261.77 72.16 261.396 74.32C261.023 76.4533 259.93 78.1067 258.116 79.28C256.303 80.4267 253.903 81 250.916 81H238.796L242.076 62.6H248.356ZM287.058 69.24L280.858 70.04C280.671 69.0267 280.218 68.2533 279.498 67.72C278.804 67.1867 277.871 66.92 276.698 66.92C275.178 66.92 273.911 67.3467 272.898 68.2C271.884 69.0267 271.244 70.2 270.978 71.72C270.711 73.2667 270.924 74.4667 271.618 75.32C272.338 76.1467 273.471 76.56 275.018 76.56C276.271 76.56 277.364 76.2667 278.298 75.68C279.258 75.0667 279.951 74.2 280.378 73.08L286.418 73.88C285.404 76.4667 283.778 78.4667 281.538 79.88C279.324 81.2667 276.831 81.96 274.058 81.96C270.644 81.96 268.084 81.0667 266.378 79.28C264.671 77.4667 264.098 74.9467 264.658 71.72C265.218 68.52 266.671 66.0267 269.018 64.24C271.364 62.4533 274.244 61.56 277.658 61.56C280.164 61.56 282.258 62.2267 283.938 63.56C285.618 64.8933 286.658 66.7867 287.058 69.24ZM288.525 81L294.605 72.84H301.405L295.405 81H288.525ZM304.885 68.48H298.885C297.285 68.48 296.458 68.6933 296.405 69.12C296.298 69.6267 297.098 69.88 298.805 69.88H304.645L304.885 68.48ZM302.685 81L303.605 75.8H297.925C295.152 75.8 293.018 75.2133 291.525 74.04C290.058 72.84 289.512 71.2 289.885 69.12C290.258 67.04 291.325 65.44 293.085 64.32C294.845 63.1733 297.178 62.6 300.085 62.6H312.405L309.165 81H302.685ZM349.223 69.24L343.023 70.04C342.837 69.0267 342.383 68.2533 341.663 67.72C340.97 67.1867 340.037 66.92 338.863 66.92C337.343 66.92 336.077 67.3467 335.063 68.2C334.05 69.0267 333.41 70.2 333.143 71.72C332.877 73.2667 333.09 74.4667 333.783 75.32C334.503 76.1467 335.637 76.56 337.183 76.56C338.437 76.56 339.53 76.2667 340.463 75.68C341.423 75.0667 342.117 74.2 342.543 73.08L348.583 73.88C347.57 76.4667 345.943 78.4667 343.703 79.88C341.49 81.2667 338.997 81.96 336.223 81.96C332.81 81.96 330.25 81.0667 328.543 79.28C326.837 77.4667 326.263 74.9467 326.823 71.72C327.383 68.52 328.837 66.0267 331.183 64.24C333.53 62.4533 336.41 61.56 339.823 61.56C342.33 61.56 344.423 62.2267 346.103 63.56C347.783 64.8933 348.823 66.7867 349.223 69.24ZM357.811 71.72C357.544 73.2667 357.744 74.4667 358.411 75.32C359.104 76.1467 360.197 76.56 361.691 76.56C363.184 76.56 364.424 76.1467 365.411 75.32C366.397 74.4667 367.024 73.2667 367.291 71.72C367.557 70.2 367.344 69.0267 366.651 68.2C365.957 67.3467 364.864 66.92 363.371 66.92C361.877 66.92 360.637 67.3333 359.651 68.16C358.691 68.9867 358.077 70.1733 357.811 71.72ZM351.491 71.72C352.051 68.4933 353.477 66 355.771 64.24C358.091 62.4533 360.944 61.56 364.331 61.56C367.504 61.56 369.984 62.4667 371.771 64.28C373.557 66.0933 374.171 68.5733 373.611 71.72C373.051 74.9467 371.611 77.4667 369.291 79.28C366.971 81.0667 364.117 81.96 360.731 81.96C357.344 81.96 354.811 81.0667 353.131 79.28C351.477 77.4667 350.931 74.9467 351.491 71.72ZM404.952 81H399.392L395.832 71.72L394.192 81H387.912L391.192 62.6H398.792L403.272 74.68L412.192 62.6H419.392L416.112 81H410.192L411.832 71.72L404.952 81ZM423.632 62.6H429.912L428.752 69H437.432L438.592 62.6H444.912L441.632 81H435.312L436.392 74.88H427.712L426.632 81H420.352L423.632 62.6ZM453.159 71.72C452.892 73.2667 453.092 74.4667 453.759 75.32C454.452 76.1467 455.546 76.56 457.039 76.56C458.532 76.56 459.772 76.1467 460.759 75.32C461.746 74.4667 462.372 73.2667 462.639 71.72C462.906 70.2 462.692 69.0267 461.999 68.2C461.306 67.3467 460.212 66.92 458.719 66.92C457.226 66.92 455.986 67.3333 454.999 68.16C454.039 68.9867 453.426 70.1733 453.159 71.72ZM446.839 71.72C447.399 68.4933 448.826 66 451.119 64.24C453.439 62.4533 456.292 61.56 459.679 61.56C462.852 61.56 465.332 62.4667 467.119 64.28C468.906 66.0933 469.519 68.5733 468.959 71.72C468.399 74.9467 466.959 77.4667 464.639 79.28C462.319 81.0667 459.466 81.96 456.079 81.96C452.692 81.96 450.159 81.0667 448.479 79.28C446.826 77.4667 446.279 74.9467 446.839 71.72ZM489.781 54.8C489.674 55.36 489.274 55.8533 488.581 56.28C487.914 56.68 487.141 56.88 486.261 56.88C485.407 56.88 484.714 56.68 484.181 56.28C483.647 55.8533 483.434 55.36 483.541 54.8H479.021C478.754 56.2933 479.261 57.5467 480.541 58.56C481.821 59.5467 483.541 60.04 485.701 60.04C487.887 60.04 489.794 59.5467 491.421 58.56C493.074 57.5467 494.034 56.2933 494.301 54.8H489.781ZM480.381 62.6H474.061L470.781 81H477.981L488.821 70.28L486.901 81H493.181L496.461 62.6H489.301L478.501 73.24L480.381 62.6ZM160.47 114.6H154.15L150.87 133H158.07L168.91 122.28L166.99 133H173.27L176.55 114.6H169.39L158.59 125.24L160.47 114.6ZM202.369 114.6L199.129 133H192.849L195.089 120.44H189.449L188.809 124.04C188.542 125.533 188.142 126.827 187.609 127.92C187.102 129.013 186.516 129.88 185.849 130.52C185.209 131.16 184.449 131.68 183.569 132.08C182.716 132.453 181.876 132.707 181.049 132.84C180.222 132.947 179.289 133 178.249 133H176.729L177.769 127.08H179.289C180.169 127.08 180.876 126.867 181.409 126.44C181.942 125.987 182.342 125.04 182.609 123.6L184.169 114.6H202.369ZM212.929 114.6H206.609L203.329 133H210.529L221.369 122.28L219.449 133H225.729L229.009 114.6H221.849L211.049 125.24L212.929 114.6Z" fill="white"/>
<path d="M526.84 71.44C528.36 71.28 529.6 70.8267 530.56 70.08C531.546 69.3067 532.146 68.36 532.36 67.24C532.653 65.5867 531.946 64.24 530.24 63.2C528.533 62.1333 526.173 61.6 523.16 61.6C520.253 61.6 517.813 62.1067 515.84 63.12C513.893 64.1333 512.48 65.6267 511.6 67.6L517.72 68.4C518.386 67.52 519.84 67.08 522.08 67.08C523.306 67.08 524.253 67.2133 524.92 67.48C525.586 67.72 525.88 68.0533 525.8 68.48C525.72 68.9333 524.64 69.16 522.56 69.16H518.08L517.2 74.24H521.68C522.64 74.24 523.373 74.3467 523.88 74.56C524.413 74.7733 524.653 75.0533 524.6 75.4C524.52 75.88 524.08 76.2667 523.28 76.56C522.506 76.8533 521.506 77 520.28 77C518.093 77 516.853 76.32 516.56 74.96L510.16 75.72C510.32 77.7733 511.2 79.3467 512.8 80.44C514.4 81.5067 516.64 82.04 519.52 82.04C522.533 82.04 525.093 81.4667 527.2 80.32C529.306 79.1467 530.52 77.64 530.84 75.8C531.026 74.76 530.76 73.8933 530.04 73.2C529.32 72.5067 528.226 72.08 526.76 71.92L526.84 71.44ZM540.095 75.08C540.015 75.56 540.188 75.92 540.615 76.16C541.068 76.4 541.695 76.52 542.495 76.52C543.988 76.52 545.228 76.2933 546.215 75.84C547.228 75.36 547.802 74.7467 547.935 74H548.855C548.428 76.4 547.308 78.3333 545.495 79.8C543.682 81.24 541.495 81.96 538.935 81.96C537.095 81.96 535.655 81.4533 534.615 80.44C533.602 79.4 533.242 78.08 533.535 76.48C533.828 74.88 534.575 73.6133 535.775 72.68C536.975 71.72 538.668 71.0267 540.855 70.6L548.815 69L548.135 72.8L542.455 73.96C540.962 74.28 540.175 74.6533 540.095 75.08ZM553.015 81H546.695L549.095 76.6L547.615 75.8L548.855 68.84C548.935 68.3067 548.668 67.88 548.055 67.56C547.442 67.24 546.588 67.08 545.495 67.08C544.348 67.08 543.375 67.32 542.575 67.8C541.775 68.28 541.242 68.9067 540.975 69.68L534.895 68.88C535.642 66.7733 537.055 65.04 539.135 63.68C541.215 62.32 543.682 61.64 546.535 61.64C549.442 61.64 551.695 62.2933 553.295 63.6C554.922 64.9067 555.575 66.5067 555.255 68.4L553.015 81ZM560.503 62.6H582.583L579.303 81H572.983L575.223 68.48H565.743L563.503 81H557.223L560.503 62.6ZM590.811 71.72C590.544 73.2667 590.744 74.4667 591.411 75.32C592.104 76.1467 593.197 76.56 594.691 76.56C596.184 76.56 597.424 76.1467 598.411 75.32C599.397 74.4667 600.024 73.2667 600.291 71.72C600.557 70.2 600.344 69.0267 599.651 68.2C598.957 67.3467 597.864 66.92 596.371 66.92C594.877 66.92 593.637 67.3333 592.651 68.16C591.691 68.9867 591.077 70.1733 590.811 71.72ZM584.491 71.72C585.051 68.4933 586.477 66 588.771 64.24C591.091 62.4533 593.944 61.56 597.331 61.56C600.504 61.56 602.984 62.4667 604.771 64.28C606.557 66.0933 607.171 68.5733 606.611 71.72C606.051 74.9467 604.611 77.4667 602.291 79.28C599.971 81.0667 597.117 81.96 593.731 81.96C590.344 81.96 587.811 81.0667 586.131 79.28C584.477 77.4667 583.931 74.9467 584.491 71.72ZM633.272 62.6L630.032 81H623.752L625.992 68.44H620.352L619.712 72.04C619.446 73.5333 619.046 74.8267 618.512 75.92C618.006 77.0133 617.419 77.88 616.752 78.52C616.112 79.16 615.352 79.68 614.472 80.08C613.619 80.4533 612.779 80.7067 611.952 80.84C611.126 80.9467 610.192 81 609.152 81H607.632L608.672 75.08H610.192C611.072 75.08 611.779 74.8667 612.312 74.44C612.846 73.9867 613.246 73.04 613.512 71.6L615.072 62.6H633.272ZM637.512 62.6H643.792L642.632 69H651.312L652.472 62.6H658.792L655.512 81H649.192L650.272 74.88H641.592L640.512 81H634.232L637.512 62.6ZM669.359 62.6H663.039L659.759 81H666.959L677.799 70.28L675.879 81H682.159L685.439 62.6H678.279L667.479 73.24L669.359 62.6ZM689.178 62.6L688.138 68.44H695.258L693.058 81H699.378L701.578 68.44H708.778L709.818 62.6H689.178ZM717.265 73.48C717.212 74.4667 717.585 75.2267 718.385 75.76C719.185 76.2933 720.345 76.56 721.865 76.56C723.038 76.56 724.052 76.4 724.905 76.08C725.758 75.7333 726.345 75.2667 726.665 74.68L732.665 75.52C731.758 77.52 730.252 79.0933 728.145 80.24C726.038 81.3867 723.625 81.96 720.905 81.96C717.332 81.96 714.678 81.0533 712.945 79.24C711.238 77.4 710.665 74.8933 711.225 71.72C711.785 68.5733 713.212 66.0933 715.505 64.28C717.798 62.4667 720.652 61.56 724.065 61.56C727.505 61.56 730.052 62.4667 731.705 64.28C733.358 66.0933 733.918 68.4933 733.385 71.48L733.025 73.48H717.265ZM718.065 69.4H727.385C727.518 68.68 727.172 68.0933 726.345 67.64C725.545 67.16 724.465 66.92 723.105 66.92C720.438 66.92 718.758 67.7467 718.065 69.4ZM12.8 111.84H19.96L15.68 136.12H8.52L12.8 111.84ZM7.96 123.8C7.77333 124.787 8.18667 125.56 9.2 126.12C10.2133 126.653 11.7067 126.92 13.68 126.92C15.6533 126.92 17.24 126.653 18.44 126.12C19.6667 125.56 20.3733 124.787 20.56 123.8C20.72 122.813 20.2933 122.053 19.28 121.52C18.2667 120.987 16.76 120.72 14.76 120.72C12.7867 120.72 11.2 120.987 10 121.52C8.8 122.053 8.12 122.813 7.96 123.8ZM1.6 123.8C2.08 121.08 3.58667 118.973 6.12 117.48C8.65333 115.987 11.8533 115.24 15.72 115.24C18.0933 115.24 20.16 115.56 21.92 116.2C23.7067 116.84 25.0667 117.827 26 119.16C26.9333 120.467 27.24 122.013 26.92 123.8C26.44 126.547 24.92 128.68 22.36 130.2C19.8 131.693 16.5867 132.44 12.72 132.44C8.85333 132.44 5.90667 131.693 3.88 130.2C1.88 128.68 1.12 126.547 1.6 123.8ZM36.0247 123.72C35.758 125.267 35.958 126.467 36.6247 127.32C37.318 128.147 38.4114 128.56 39.9047 128.56C41.398 128.56 42.638 128.147 43.6247 127.32C44.6114 126.467 45.238 125.267 45.5047 123.72C45.7714 122.2 45.558 121.027 44.8647 120.2C44.1714 119.347 43.078 118.92 41.5847 118.92C40.0914 118.92 38.8514 119.333 37.8647 120.16C36.9047 120.987 36.2914 122.173 36.0247 123.72ZM29.7047 123.72C30.2647 120.493 31.6914 118 33.9847 116.24C36.3047 114.453 39.158 113.56 42.5447 113.56C45.718 113.56 48.198 114.467 49.9847 116.28C51.7714 118.093 52.3847 120.573 51.8247 123.72C51.2647 126.947 49.8247 129.467 47.5047 131.28C45.1847 133.067 42.3314 133.96 38.9447 133.96C35.558 133.96 33.0247 133.067 31.3447 131.28C29.6914 129.467 29.1447 126.947 29.7047 123.72ZM62.3262 127.44C61.5796 126.587 61.3396 125.387 61.6062 123.84C61.8729 122.293 62.5262 121.107 63.5662 120.28C64.6329 119.453 65.9796 119.04 67.6062 119.04C69.2329 119.04 70.4196 119.453 71.1662 120.28C71.9129 121.107 72.1529 122.293 71.8862 123.84C71.6196 125.387 70.9529 126.587 69.8862 127.44C68.8462 128.267 67.5129 128.68 65.8862 128.68C64.2862 128.68 63.0996 128.267 62.3262 127.44ZM60.4862 123.84C59.8996 127.093 60.1662 129.613 61.2862 131.4C62.4062 133.16 64.2462 134.04 66.8062 134.04C69.5262 134.04 71.9662 133.133 74.1262 131.32C76.2862 129.507 77.6462 126.973 78.2062 123.72C78.7663 120.6 78.3263 118.147 76.8863 116.36C75.4729 114.547 73.3796 113.64 70.6062 113.64C67.9662 113.64 65.7529 114.533 63.9662 116.32C62.2062 118.08 61.0462 120.587 60.4862 123.84ZM52.2862 140.88H58.6062L59.9662 133L59.1662 128.44L60.8862 127.8L62.3262 119.8L60.8462 119.16L63.2462 114.6H56.9262L52.2862 140.88ZM97.1113 133H91.5513L87.9913 123.72L86.3513 133H80.0713L83.3513 114.6H90.9513L95.4313 126.68L104.351 114.6H111.551L108.271 133H102.351L103.991 123.72L97.1113 133ZM125.392 125.72L131.512 114.6H138.472L125.472 136.24C124.539 137.813 123.365 139.013 121.952 139.84C120.565 140.667 119.085 141.08 117.512 141.08H111.512L112.472 135.52H115.832C116.659 135.52 117.299 135.427 117.752 135.24C118.232 135.08 118.619 134.787 118.912 134.36L119.752 133L114.752 114.6H121.672L123.952 125.72L123.992 127.96H124.512L125.392 125.72ZM245.748 114.6H252.028L250.868 121H259.548L260.708 114.6H267.028L263.748 133H257.428L258.508 126.88H249.828L248.748 133H242.468L245.748 114.6ZM274.675 127.08C274.595 127.56 274.768 127.92 275.195 128.16C275.648 128.4 276.275 128.52 277.075 128.52C278.568 128.52 279.808 128.293 280.795 127.84C281.808 127.36 282.381 126.747 282.515 126H283.435C283.008 128.4 281.888 130.333 280.075 131.8C278.261 133.24 276.075 133.96 273.515 133.96C271.675 133.96 270.235 133.453 269.195 132.44C268.181 131.4 267.821 130.08 268.115 128.48C268.408 126.88 269.155 125.613 270.355 124.68C271.555 123.72 273.248 123.027 275.435 122.6L283.395 121L282.715 124.8L277.035 125.96C275.541 126.28 274.755 126.653 274.675 127.08ZM287.595 133H281.275L283.675 128.6L282.195 127.8L283.435 120.84C283.515 120.307 283.248 119.88 282.635 119.56C282.021 119.24 281.168 119.08 280.075 119.08C278.928 119.08 277.955 119.32 277.155 119.8C276.355 120.28 275.821 120.907 275.555 121.68L269.475 120.88C270.221 118.773 271.635 117.04 273.715 115.68C275.795 114.32 278.261 113.64 281.115 113.64C284.021 113.64 286.275 114.293 287.875 115.6C289.501 116.907 290.155 118.507 289.835 120.4L287.595 133ZM295.083 114.6H317.163L313.883 133H307.563L309.803 120.48H300.323L298.083 133H291.803L295.083 114.6ZM327.71 114.6H321.39L318.11 133H325.31L336.15 122.28L334.23 133H340.51L343.79 114.6H336.63L325.83 125.24L327.71 114.6ZM372.77 133H344.77L348.05 114.6H354.57L352.33 127.16H356.45L358.69 114.6H365.45L363.21 127.16H367.29L369.53 114.6H376.05L372.77 133ZM383.256 114.6H376.936L373.656 133H380.856L391.696 122.28L389.776 133H396.056L399.336 114.6H392.176L381.376 125.24L383.256 114.6ZM403.075 114.6L402.035 120.44H409.155L406.955 133H413.275L415.475 120.44H422.675L423.715 114.6H403.075ZM431.162 125.48C431.109 126.467 431.482 127.227 432.282 127.76C433.082 128.293 434.242 128.56 435.762 128.56C436.935 128.56 437.949 128.4 438.802 128.08C439.655 127.733 440.242 127.267 440.562 126.68L446.562 127.52C445.655 129.52 444.149 131.093 442.042 132.24C439.935 133.387 437.522 133.96 434.802 133.96C431.229 133.96 428.575 133.053 426.842 131.24C425.135 129.4 424.562 126.893 425.122 123.72C425.682 120.573 427.109 118.093 429.402 116.28C431.695 114.467 434.549 113.56 437.962 113.56C441.402 113.56 443.949 114.467 445.602 116.28C447.255 118.093 447.815 120.493 447.282 123.48L446.922 125.48H431.162ZM431.962 121.4H441.282C441.415 120.68 441.069 120.093 440.242 119.64C439.442 119.16 438.362 118.92 437.002 118.92C434.335 118.92 432.655 119.747 431.962 121.4ZM7.84 179.92H14.24C16.4 179.92 17.5333 179.613 17.64 179C17.72 178.547 16.68 178.32 14.52 178.32H8.12L7.84 179.92ZM9 173.24H15.4C17.2667 173.24 18.2533 172.973 18.36 172.44C18.4133 172.173 18.2267 171.973 17.8 171.84C17.3733 171.707 16.6667 171.64 15.68 171.64H9.28L9 173.24ZM19.56 175.52L19.48 176.04C20.92 176.253 22.0267 176.733 22.8 177.48C23.6 178.2 23.9067 179.053 23.72 180.04C23.4533 181.56 22.4267 182.773 20.64 183.68C18.8533 184.56 16.56 185 13.76 185H0.64L3.92 166.6H17.04C19.8133 166.6 21.8667 167.027 23.2 167.88C24.56 168.733 25.12 169.893 24.88 171.36C24.6667 172.427 24.0933 173.347 23.16 174.12C22.2533 174.867 21.0533 175.333 19.56 175.52ZM62.2016 173.24L56.0016 174.04C55.8149 173.027 55.3616 172.253 54.6416 171.72C53.9482 171.187 53.0149 170.92 51.8416 170.92C50.3216 170.92 49.0549 171.347 48.0416 172.2C47.0282 173.027 46.3882 174.2 46.1216 175.72C45.8549 177.267 46.0682 178.467 46.7616 179.32C47.4816 180.147 48.6149 180.56 50.1616 180.56C51.4149 180.56 52.5082 180.267 53.4416 179.68C54.4016 179.067 55.0949 178.2 55.5216 177.08L61.5616 177.88C60.5482 180.467 58.9216 182.467 56.6816 183.88C54.4682 185.267 51.9749 185.96 49.2016 185.96C45.7882 185.96 43.2282 185.067 41.5216 183.28C39.8149 181.467 39.2416 178.947 39.8016 175.72C40.3616 172.52 41.8149 170.027 44.1616 168.24C46.5082 166.453 49.3882 165.56 52.8016 165.56C55.3082 165.56 57.4016 166.227 59.0816 167.56C60.7616 168.893 61.8016 170.787 62.2016 173.24ZM70.7888 175.72C70.5221 177.267 70.7221 178.467 71.3888 179.32C72.0821 180.147 73.1754 180.56 74.6688 180.56C76.1621 180.56 77.4021 180.147 78.3888 179.32C79.3754 178.467 80.0021 177.267 80.2688 175.72C80.5354 174.2 80.3221 173.027 79.6288 172.2C78.9354 171.347 77.8421 170.92 76.3488 170.92C74.8554 170.92 73.6154 171.333 72.6288 172.16C71.6688 172.987 71.0554 174.173 70.7888 175.72ZM64.4688 175.72C65.0288 172.493 66.4554 170 68.7488 168.24C71.0688 166.453 73.9221 165.56 77.3088 165.56C80.4821 165.56 82.9621 166.467 84.7488 168.28C86.5354 170.093 87.1488 172.573 86.5888 175.72C86.0288 178.947 84.5888 181.467 82.2688 183.28C79.9488 185.067 77.0954 185.96 73.7088 185.96C70.3221 185.96 67.7888 185.067 66.1088 183.28C64.4554 181.467 63.9088 178.947 64.4688 175.72ZM88.4103 185L91.6903 166.6H97.9703L95.7303 179.16H102.85L105.09 166.6H111.37L109.13 179.16H111.93L110.25 188.76H103.97L104.61 185H88.4103ZM124.006 166.6H117.686L114.406 185H121.606L132.446 174.28L130.526 185H136.806L140.086 166.6H132.926L122.126 177.24L124.006 166.6ZM147.745 179.08C147.665 179.56 147.838 179.92 148.265 180.16C148.718 180.4 149.345 180.52 150.145 180.52C151.638 180.52 152.878 180.293 153.865 179.84C154.878 179.36 155.452 178.747 155.585 178H156.505C156.078 180.4 154.958 182.333 153.145 183.8C151.332 185.24 149.145 185.96 146.585 185.96C144.745 185.96 143.305 185.453 142.265 184.44C141.252 183.4 140.892 182.08 141.185 180.48C141.478 178.88 142.225 177.613 143.425 176.68C144.625 175.72 146.318 175.027 148.505 174.6L156.465 173L155.785 176.8L150.105 177.96C148.612 178.28 147.825 178.653 147.745 179.08ZM160.665 185H154.345L156.745 180.6L155.265 179.8L156.505 172.84C156.585 172.307 156.318 171.88 155.705 171.56C155.092 171.24 154.238 171.08 153.145 171.08C151.998 171.08 151.025 171.32 150.225 171.8C149.425 172.28 148.892 172.907 148.625 173.68L142.545 172.88C143.292 170.773 144.705 169.04 146.785 167.68C148.865 166.32 151.332 165.64 154.185 165.64C157.092 165.64 159.345 166.293 160.945 167.6C162.572 168.907 163.225 170.507 162.905 172.4L160.665 185ZM189.713 166.6L186.473 185H180.193L182.433 172.44H176.793L176.153 176.04C175.886 177.533 175.486 178.827 174.953 179.92C174.446 181.013 173.859 181.88 173.193 182.52C172.553 183.16 171.793 183.68 170.913 184.08C170.059 184.453 169.219 184.707 168.393 184.84C167.566 184.947 166.633 185 165.593 185H164.073L165.113 179.08H166.633C167.513 179.08 168.219 178.867 168.753 178.44C169.286 177.987 169.686 177.04 169.953 175.6L171.513 166.6H189.713ZM197.993 179.12H203.393C205.686 179.12 206.886 178.84 206.993 178.28C207.099 177.64 205.966 177.32 203.593 177.32H198.313L197.993 179.12ZM200.233 166.6L199.353 171.4H205.033C207.886 171.4 210.059 172.013 211.553 173.24C213.073 174.467 213.646 176.16 213.273 178.32C212.899 180.453 211.806 182.107 209.993 183.28C208.179 184.427 205.779 185 202.793 185H190.673L193.953 166.6H200.233ZM218.854 166.6H225.134L223.974 173H232.654L233.814 166.6H240.134L236.854 185H230.534L231.614 178.88H222.934L221.854 185H215.574L218.854 166.6ZM267.101 166.6H273.381L270.101 185H263.821L267.101 166.6ZM248.421 179.12H253.101C255.234 179.12 256.354 178.84 256.461 178.28C256.568 177.64 255.514 177.32 253.301 177.32H248.741L248.421 179.12ZM250.661 166.6L249.781 171.4H254.741C257.514 171.4 259.634 172.013 261.101 173.24C262.568 174.467 263.114 176.16 262.741 178.32C262.368 180.453 261.288 182.107 259.501 183.28C257.741 184.427 255.408 185 252.501 185H241.101L244.381 166.6H250.661ZM281.323 177.48C281.269 178.467 281.643 179.227 282.443 179.76C283.243 180.293 284.403 180.56 285.923 180.56C287.096 180.56 288.109 180.4 288.963 180.08C289.816 179.733 290.403 179.267 290.723 178.68L296.723 179.52C295.816 181.52 294.309 183.093 292.203 184.24C290.096 185.387 287.683 185.96 284.963 185.96C281.389 185.96 278.736 185.053 277.003 183.24C275.296 181.4 274.723 178.893 275.283 175.72C275.843 172.573 277.269 170.093 279.563 168.28C281.856 166.467 284.709 165.56 288.123 165.56C291.563 165.56 294.109 166.467 295.763 168.28C297.416 170.093 297.976 172.493 297.443 175.48L297.083 177.48H281.323ZM282.123 173.4H291.443C291.576 172.68 291.229 172.093 290.403 171.64C289.603 171.16 288.523 170.92 287.163 170.92C284.496 170.92 282.816 171.747 282.123 173.4ZM335.064 173.24L328.864 174.04C328.677 173.027 328.224 172.253 327.504 171.72C326.811 171.187 325.877 170.92 324.704 170.92C323.184 170.92 321.917 171.347 320.904 172.2C319.891 173.027 319.251 174.2 318.984 175.72C318.717 177.267 318.931 178.467 319.624 179.32C320.344 180.147 321.477 180.56 323.024 180.56C324.277 180.56 325.371 180.267 326.304 179.68C327.264 179.067 327.957 178.2 328.384 177.08L334.424 177.88C333.411 180.467 331.784 182.467 329.544 183.88C327.331 185.267 324.837 185.96 322.064 185.96C318.651 185.96 316.091 185.067 314.384 183.28C312.677 181.467 312.104 178.947 312.664 175.72C313.224 172.52 314.677 170.027 317.024 168.24C319.371 166.453 322.251 165.56 325.664 165.56C328.171 165.56 330.264 166.227 331.944 167.56C333.624 168.893 334.664 170.787 335.064 173.24ZM343.371 177.48C343.318 178.467 343.691 179.227 344.491 179.76C345.291 180.293 346.451 180.56 347.971 180.56C349.145 180.56 350.158 180.4 351.011 180.08C351.865 179.733 352.451 179.267 352.771 178.68L358.771 179.52C357.865 181.52 356.358 183.093 354.251 184.24C352.145 185.387 349.731 185.96 347.011 185.96C343.438 185.96 340.785 185.053 339.051 183.24C337.345 181.4 336.771 178.893 337.331 175.72C337.891 172.573 339.318 170.093 341.611 168.28C343.905 166.467 346.758 165.56 350.171 165.56C353.611 165.56 356.158 166.467 357.811 168.28C359.465 170.093 360.025 172.493 359.491 175.48L359.131 177.48H343.371ZM344.171 173.4H353.491C353.625 172.68 353.278 172.093 352.451 171.64C351.651 171.16 350.571 170.92 349.211 170.92C346.545 170.92 344.865 171.747 344.171 173.4ZM364.033 166.6L362.993 172.44H370.113L367.913 185H374.233L376.433 172.44H383.633L384.673 166.6H364.033ZM394.72 166.6H388.4L385.12 185H392.32L403.16 174.28L401.24 185H407.52L410.8 166.6H403.64L392.84 177.24L394.72 166.6Z" fill="#00FFB2"/>
</svg>
