<svg width="91" height="120" viewBox="0 0 91 120" fill="none" xmlns="http://www.w3.org/2000/svg">
<path d="M45.1948 120C30.5455 120 19.3247 116.727 11.5325 110.182C3.84416 103.532 0 94.0779 0 81.8182H22.5974C22.5974 88.1558 24.5195 92.8831 28.3636 96C32.3117 99.1169 37.9221 100.675 45.1948 100.675C52.4675 100.675 58.026 99.2208 61.8701 96.3117C65.8182 93.2987 67.7922 88.7792 67.7922 82.7532C67.7922 78.2857 66.4416 74.7532 63.7402 72.1558C61.039 69.5584 56.8831 68.2597 51.2727 68.2597H39.5844V49.4026H51.2727C61.2467 49.4026 66.2338 44.5195 66.2338 34.7533C66.2338 32.5714 65.7143 30.5455 64.6753 28.6753C63.7403 26.7013 62.3896 25.039 60.6234 23.6883C58.961 22.2338 56.9351 21.1429 54.5454 20.4156C52.1558 19.5844 49.5584 19.1688 46.7532 19.1688C40.2078 19.1688 35.0649 20.6234 31.3247 23.5325C27.5844 26.3377 25.7143 30.7013 25.7143 36.6234H3.11688C3.11688 24.8831 6.90909 15.8442 14.4935 9.50649C22.0779 3.16883 32.8312 0 46.7532 0C53.2987 0 59.1688 0.83117 64.3636 2.49351C69.5584 4.05195 73.974 6.33766 77.6104 9.35065C81.2467 12.2597 84 15.7922 85.8701 19.9481C87.8442 24.1039 88.8312 28.7792 88.8312 33.974C88.8312 40.6234 86.8571 46.026 82.9091 50.1818C79.0649 54.2338 73.2467 56.2597 65.4545 56.2597V61.4026C73.2467 61.4026 79.3247 63.4805 83.6883 67.6364C88.1558 71.7922 90.3896 77.4545 90.3896 84.6234C90.3896 96.0519 86.4935 104.831 78.7013 110.961C71.013 116.987 59.8442 120 45.1948 120Z" fill="white"/>
<path d="M45.1948 120C30.5455 120 19.3247 116.727 11.5325 110.182C3.84416 103.532 0 94.0779 0 81.8182H22.5974C22.5974 88.1558 24.5195 92.8831 28.3636 96C32.3117 99.1169 37.9221 100.675 45.1948 100.675C52.4675 100.675 58.026 99.2208 61.8701 96.3117C65.8182 93.2987 67.7922 88.7792 67.7922 82.7532C67.7922 78.2857 66.4416 74.7532 63.7402 72.1558C61.039 69.5584 56.8831 68.2597 51.2727 68.2597H39.5844V49.4026H51.2727C61.2467 49.4026 66.2338 44.5195 66.2338 34.7533C66.2338 32.5714 65.7143 30.5455 64.6753 28.6753C63.7403 26.7013 62.3896 25.039 60.6234 23.6883C58.961 22.2338 56.9351 21.1429 54.5454 20.4156C52.1558 19.5844 49.5584 19.1688 46.7532 19.1688C40.2078 19.1688 35.0649 20.6234 31.3247 23.5325C27.5844 26.3377 25.7143 30.7013 25.7143 36.6234H3.11688C3.11688 24.8831 6.90909 15.8442 14.4935 9.50649C22.0779 3.16883 32.8312 0 46.7532 0C53.2987 0 59.1688 0.83117 64.3636 2.49351C69.5584 4.05195 73.974 6.33766 77.6104 9.35065C81.2467 12.2597 84 15.7922 85.8701 19.9481C87.8442 24.1039 88.8312 28.7792 88.8312 33.974C88.8312 40.6234 86.8571 46.026 82.9091 50.1818C79.0649 54.2338 73.2467 56.2597 65.4545 56.2597V61.4026C73.2467 61.4026 79.3247 63.4805 83.6883 67.6364C88.1558 71.7922 90.3896 77.4545 90.3896 84.6234C90.3896 96.0519 86.4935 104.831 78.7013 110.961C71.013 116.987 59.8442 120 45.1948 120Z" fill="url(#paint0_angular_442_139)"/>
<defs>
<radialGradient id="paint0_angular_442_139" cx="0" cy="0" r="1" gradientUnits="userSpaceOnUse" gradientTransform="translate(58.4044 66.4932) rotate(115.767) scale(100.122 91.2813)">
<stop stop-color="#F1C6DD"/>
<stop offset="0.139053" stop-color="#C1A4E8"/>
<stop offset="0.238718" stop-color="#B8E2FB"/>
<stop offset="0.374927" stop-color="#F2EFE8"/>
<stop offset="0.477914" stop-color="#F9DCDD"/>
<stop offset="0.557645" stop-color="#E1C1E5"/>
<stop offset="0.624089" stop-color="#BDAFE3"/>
<stop offset="0.720431" stop-color="#C7EDEB"/>
<stop offset="0.830062" stop-color="#E7F5EB"/>
<stop offset="0.913116" stop-color="#F2F0E7"/>
<stop offset="1" stop-color="#DDC1E1"/>
</radialGradient>
</defs>
</svg>
