<svg width="200" height="200" viewBox="0 0 200 200" fill="none" xmlns="http://www.w3.org/2000/svg">
<path d="M153.015 0H46.9848C21.0358 0 0 20.9867 0 46.875V153.125C0 179.013 21.0358 200 46.9848 200H153.015C178.964 200 200 179.013 200 153.125V46.875C200 20.9867 178.964 0 153.015 0Z" fill="white"/>
<path d="M53.6364 45.3936C53.6364 44.289 54.5318 43.3936 55.6364 43.3936H89.8859C90.9905 43.3936 91.8859 44.289 91.8859 45.3936V51.4618C91.8859 52.5664 90.9905 53.4618 89.8859 53.4618H79.8018C78.6972 53.4618 77.8018 54.3573 77.8018 55.4618V93.2154C77.8018 94.32 76.9063 95.2154 75.8018 95.2154H69.7205C68.6159 95.2154 67.7205 94.32 67.7205 93.2154V55.4618C67.7205 54.3573 66.8251 53.4618 65.7205 53.4618H55.6364C54.5318 53.4618 53.6364 52.5664 53.6364 51.4618V45.3936Z" fill="black"/>
<path d="M125.884 43.3936C131.864 44.7261 136.806 47.8108 140.71 52.6475C144.614 57.4842 146.566 63.0365 146.566 69.3045C146.566 75.5725 144.614 81.1248 140.71 85.9615C136.806 90.7982 131.864 93.8829 125.884 95.2154C123.957 95.6596 122.005 95.8817 120.028 95.8817H119.88C117.903 95.8817 115.951 95.6596 114.024 95.2154C110.12 94.327 106.586 92.649 103.424 90.1813C100.31 87.7136 97.8394 84.6536 96.011 81.0014C94.2319 77.3492 93.3424 73.4502 93.3424 69.3045C93.3424 65.1588 94.2319 61.2598 96.011 57.6076C97.8394 53.9554 100.31 50.8954 103.424 48.4277C106.586 45.96 110.12 44.282 114.024 43.3936C115.951 42.9494 117.903 42.7273 119.88 42.7273C121.906 42.7273 123.907 42.9494 125.884 43.3936ZM108.242 81.0014C111.504 84.2095 115.408 85.8135 119.954 85.8135C124.5 85.8135 128.38 84.2095 131.592 81.0014C134.804 77.7441 136.41 73.8451 136.41 69.3045C136.41 64.7639 134.804 60.8896 131.592 57.6816C128.38 54.4242 124.5 52.7955 119.954 52.7955C115.408 52.7955 111.504 54.4242 108.242 57.6816C105.03 60.8896 103.424 64.7639 103.424 69.3045C103.424 73.8451 105.03 77.7441 108.242 81.0014Z" fill="black"/>
<path d="M94.7769 116.489C94.7769 117.594 93.8815 118.489 92.7769 118.489H69.6464C68.5418 118.489 67.6464 119.385 67.6464 120.489V127.298C67.6464 128.402 68.5418 129.298 69.6464 129.298H89.4412C90.5457 129.298 91.4412 130.193 91.4412 131.298V137.366C91.4412 138.471 90.5457 139.366 89.4412 139.366H69.6464C68.5418 139.366 67.6464 140.261 67.6464 141.366V158.243C67.6464 159.347 66.7509 160.243 65.6464 160.243H59.5651C58.4605 160.243 57.5651 159.347 57.5651 158.243V110.421C57.5651 109.316 58.4605 108.421 59.5651 108.421H92.7769C93.8815 108.421 94.7769 109.316 94.7769 110.421V116.489Z" fill="black"/>
<path d="M131.396 110.421C131.396 109.316 132.292 108.421 133.396 108.421H139.478C140.582 108.421 141.478 109.316 141.478 110.421V140.18C141.478 142.648 141.057 145.042 140.217 147.361C139.377 149.632 138.191 151.68 136.659 153.506C135.177 155.283 133.422 156.763 131.396 157.948C128.135 159.922 124.577 160.909 120.722 160.909C116.917 160.909 113.383 159.922 110.122 157.948C107.058 156.122 104.612 153.654 102.783 150.545C100.955 147.386 100.04 143.931 100.04 140.18V110.421C100.04 109.316 100.936 108.421 102.04 108.421H108.122C109.226 108.421 110.122 109.316 110.122 110.421V140.18C110.122 143.142 111.16 145.659 113.235 147.732C115.311 149.804 117.831 150.841 120.796 150.841C122.674 150.841 124.428 150.372 126.059 149.434C127.69 148.447 128.975 147.139 129.914 145.511C130.902 143.882 131.396 142.105 131.396 140.18V110.421Z" fill="black"/>
</svg>
