<svg width="297" height="53" viewBox="0 0 297 53" fill="none" xmlns="http://www.w3.org/2000/svg">
<mask id="path-1-outside-1_788_969" maskUnits="userSpaceOnUse" x="0.201294" y="0.63208" width="297" height="52" fill="black">
<rect fill="white" x="0.201294" y="0.63208" width="297" height="52"/>
<path d="M41.0133 3.50008V10.8781H25.9473V50.0001H17.3293V10.8781H2.20129V3.50008H41.0133ZM41.1693 26.7501C41.1693 22.9474 41.6653 19.5787 42.6573 16.6441C43.6493 13.6681 45.0959 11.1674 46.9973 9.14208C48.9399 7.07541 51.3166 5.52541 54.1273 4.49208C56.9379 3.41741 60.1619 2.88008 63.7993 2.88008C67.4366 2.88008 70.6606 3.41741 73.4713 4.49208C76.2819 5.52541 78.6379 7.07541 80.5393 9.14208C82.4819 11.1674 83.9493 13.6681 84.9413 16.6441C85.9333 19.5787 86.4293 22.9474 86.4293 26.7501C86.4293 30.5527 85.9333 33.9421 84.9413 36.9181C83.9493 39.8528 82.4819 42.3534 80.5393 44.4201C78.6379 46.4454 76.2819 47.9954 73.4713 49.0701C70.6606 50.1034 67.4366 50.6201 63.7993 50.6201C60.1619 50.6201 56.9379 50.1034 54.1273 49.0701C51.3166 47.9954 48.9399 46.4454 46.9973 44.4201C45.0959 42.3534 43.6493 39.8528 42.6573 36.9181C41.6653 33.9421 41.1693 30.5527 41.1693 26.7501ZM50.1593 26.7501C50.1593 32.1647 51.3166 36.2154 53.6313 38.9021C55.9873 41.5888 59.3766 42.9321 63.7993 42.9321C68.2219 42.9321 71.5906 41.5888 73.9053 38.9021C76.2613 36.2154 77.4393 32.1647 77.4393 26.7501C77.4393 21.3354 76.2613 17.2847 73.9053 14.5981C71.5906 11.8701 68.2219 10.5061 63.7993 10.5061C59.3766 10.5061 55.9873 11.8701 53.6313 14.5981C51.3166 17.2847 50.1593 21.3354 50.1593 26.7501ZM93.7385 29.2301V3.50008H102.232V29.2301C102.232 33.8594 103.08 37.3108 104.774 39.5841C106.469 41.8161 109.218 42.9321 113.02 42.9321C116.823 42.9321 119.572 41.8161 121.266 39.5841C122.961 37.3108 123.808 33.8594 123.808 29.2301V3.50008H132.302V29.2301C132.302 32.6194 131.91 35.6367 131.124 38.2821C130.38 40.9274 129.223 43.1801 127.652 45.0401C126.082 46.8588 124.077 48.2434 121.638 49.1941C119.241 50.1448 116.368 50.6201 113.02 50.6201C109.672 50.6201 106.779 50.1448 104.34 49.1941C101.943 48.2434 99.9591 46.8588 98.3885 45.0401C96.8178 43.1801 95.6398 40.9274 94.8545 38.2821C94.1105 35.6367 93.7385 32.6194 93.7385 29.2301ZM158.962 3.50008C164.79 3.50008 169.234 4.78141 172.292 7.34408C175.351 9.86542 176.88 13.5027 176.88 18.2561C176.88 20.7361 176.529 22.7614 175.826 24.3321C175.165 25.9027 174.338 27.1634 173.346 28.1141C172.354 29.0234 171.28 29.6641 170.122 30.0361C169.006 30.3667 167.973 30.5321 167.022 30.5321C166.402 30.5321 165.803 30.4701 165.224 30.3461C164.687 30.2221 164.17 30.1187 163.674 30.0361L163.178 31.9581C164.294 32.1234 165.245 32.4541 166.03 32.9501C166.857 33.4047 167.622 34.0247 168.324 34.8101C169.027 35.5541 169.709 36.4634 170.37 37.5381C171.032 38.6127 171.755 39.8321 172.54 41.1961L177.624 50.0001H168.634L158.838 32.9501H148.732V50.0001H140.238V3.50008H158.962ZM148.732 25.3241H158.962C161.856 25.3241 164.088 24.7454 165.658 23.5881C167.229 22.3894 168.014 20.6121 168.014 18.2561C168.014 15.9001 167.229 14.1227 165.658 12.9241C164.088 11.7254 161.856 11.1261 158.962 11.1261H148.732V25.3241ZM184.498 3.50008H192.992V50.0001H184.498V3.50008ZM198.736 35.5541H207.726C207.726 36.5874 207.974 37.5587 208.47 38.4681C209.008 39.3774 209.752 40.1628 210.702 40.8241C211.653 41.4854 212.79 42.0021 214.112 42.3741C215.476 42.7461 216.964 42.9321 218.576 42.9321C221.842 42.9321 224.466 42.4154 226.45 41.3821C228.434 40.3488 229.426 38.7367 229.426 36.5461C229.426 35.1821 228.992 34.0867 228.124 33.2601C227.298 32.4334 226.202 31.7721 224.838 31.2761C223.474 30.7801 221.904 30.3874 220.126 30.0981C218.39 29.8088 216.613 29.4987 214.794 29.1681C212.976 28.7961 211.178 28.3621 209.4 27.8661C207.664 27.3288 206.114 26.5847 204.75 25.6341C203.386 24.6834 202.27 23.4641 201.402 21.9761C200.576 20.4881 200.162 18.6074 200.162 16.3341C200.162 14.3914 200.534 12.5934 201.278 10.9401C202.064 9.24542 203.221 7.79875 204.75 6.60008C206.28 5.36008 208.181 4.38875 210.454 3.68608C212.769 2.98341 215.476 2.63208 218.576 2.63208C221.676 2.63208 224.363 3.02475 226.636 3.81008C228.91 4.55408 230.811 5.56675 232.34 6.84808C233.87 8.12942 235.006 9.61742 235.75 11.3121C236.536 13.0068 236.949 14.8047 236.99 16.7061H228C228 15.9207 227.814 15.1561 227.442 14.4121C227.07 13.6267 226.492 12.9241 225.706 12.3041C224.962 11.6841 223.991 11.1881 222.792 10.8161C221.594 10.4441 220.188 10.2581 218.576 10.2581C215.311 10.2581 212.914 10.8161 211.384 11.9321C209.896 13.0067 209.152 14.4741 209.152 16.3341C209.152 17.5741 209.566 18.5454 210.392 19.2481C211.26 19.9094 212.376 20.4674 213.74 20.9221C215.104 21.3354 216.654 21.6661 218.39 21.9141C220.168 22.1621 221.966 22.4721 223.784 22.8441C225.603 23.1747 227.38 23.6294 229.116 24.2081C230.894 24.7454 232.464 25.5307 233.828 26.5641C235.192 27.5974 236.288 28.9201 237.114 30.5321C237.982 32.1027 238.416 34.1074 238.416 36.5461C238.416 38.6127 237.962 40.5141 237.052 42.2501C236.143 43.9861 234.82 45.4741 233.084 46.7141C231.39 47.9541 229.323 48.9254 226.884 49.6281C224.446 50.2894 221.676 50.6201 218.576 50.6201C215.476 50.6201 212.707 50.2481 210.268 49.5041C207.871 48.7188 205.804 47.6647 204.068 46.3421C202.374 44.9781 201.072 43.3868 200.162 41.5681C199.253 39.7081 198.778 37.7034 198.736 35.5541ZM244.197 50.0001V3.50008H253.311L265.711 26.8121C266.786 28.7961 267.489 30.5941 267.819 32.2061C268.191 33.8181 268.377 35.2647 268.377 36.5461V38.0341H270.423V36.5461C270.423 35.2647 270.589 33.8181 270.919 32.2061C271.291 30.5941 272.015 28.7961 273.089 26.8121L285.489 3.50008H294.603V50.0001H285.861V31.8341C285.861 30.3048 285.923 28.9201 286.047 27.6801C286.213 26.4401 286.399 25.3034 286.605 24.2701C286.812 23.2367 287.039 22.2654 287.287 21.3561C287.535 20.4467 287.763 19.5581 287.969 18.6901L285.985 18.1321C285.531 20.0334 284.828 22.1001 283.877 24.3321C282.968 26.5227 281.914 28.9407 280.715 31.5861L273.399 46.6521H265.401L258.085 31.5861C256.887 28.9407 255.812 26.5227 254.861 24.3321C253.952 22.1001 253.27 20.0334 252.815 18.1321L250.831 18.6901C251.038 19.5581 251.265 20.4467 251.513 21.3561C251.761 22.2654 251.989 23.2367 252.195 24.2701C252.402 25.3034 252.567 26.4401 252.691 27.6801C252.857 28.9201 252.939 30.3048 252.939 31.8341V50.0001H244.197Z"/>
</mask>
<path d="M41.0133 3.50008V10.8781H25.9473V50.0001H17.3293V10.8781H2.20129V3.50008H41.0133ZM41.1693 26.7501C41.1693 22.9474 41.6653 19.5787 42.6573 16.6441C43.6493 13.6681 45.0959 11.1674 46.9973 9.14208C48.9399 7.07541 51.3166 5.52541 54.1273 4.49208C56.9379 3.41741 60.1619 2.88008 63.7993 2.88008C67.4366 2.88008 70.6606 3.41741 73.4713 4.49208C76.2819 5.52541 78.6379 7.07541 80.5393 9.14208C82.4819 11.1674 83.9493 13.6681 84.9413 16.6441C85.9333 19.5787 86.4293 22.9474 86.4293 26.7501C86.4293 30.5527 85.9333 33.9421 84.9413 36.9181C83.9493 39.8528 82.4819 42.3534 80.5393 44.4201C78.6379 46.4454 76.2819 47.9954 73.4713 49.0701C70.6606 50.1034 67.4366 50.6201 63.7993 50.6201C60.1619 50.6201 56.9379 50.1034 54.1273 49.0701C51.3166 47.9954 48.9399 46.4454 46.9973 44.4201C45.0959 42.3534 43.6493 39.8528 42.6573 36.9181C41.6653 33.9421 41.1693 30.5527 41.1693 26.7501ZM50.1593 26.7501C50.1593 32.1647 51.3166 36.2154 53.6313 38.9021C55.9873 41.5888 59.3766 42.9321 63.7993 42.9321C68.2219 42.9321 71.5906 41.5888 73.9053 38.9021C76.2613 36.2154 77.4393 32.1647 77.4393 26.7501C77.4393 21.3354 76.2613 17.2847 73.9053 14.5981C71.5906 11.8701 68.2219 10.5061 63.7993 10.5061C59.3766 10.5061 55.9873 11.8701 53.6313 14.5981C51.3166 17.2847 50.1593 21.3354 50.1593 26.7501ZM93.7385 29.2301V3.50008H102.232V29.2301C102.232 33.8594 103.08 37.3108 104.774 39.5841C106.469 41.8161 109.218 42.9321 113.02 42.9321C116.823 42.9321 119.572 41.8161 121.266 39.5841C122.961 37.3108 123.808 33.8594 123.808 29.2301V3.50008H132.302V29.2301C132.302 32.6194 131.91 35.6367 131.124 38.2821C130.38 40.9274 129.223 43.1801 127.652 45.0401C126.082 46.8588 124.077 48.2434 121.638 49.1941C119.241 50.1448 116.368 50.6201 113.02 50.6201C109.672 50.6201 106.779 50.1448 104.34 49.1941C101.943 48.2434 99.9591 46.8588 98.3885 45.0401C96.8178 43.1801 95.6398 40.9274 94.8545 38.2821C94.1105 35.6367 93.7385 32.6194 93.7385 29.2301ZM158.962 3.50008C164.79 3.50008 169.234 4.78141 172.292 7.34408C175.351 9.86542 176.88 13.5027 176.88 18.2561C176.88 20.7361 176.529 22.7614 175.826 24.3321C175.165 25.9027 174.338 27.1634 173.346 28.1141C172.354 29.0234 171.28 29.6641 170.122 30.0361C169.006 30.3667 167.973 30.5321 167.022 30.5321C166.402 30.5321 165.803 30.4701 165.224 30.3461C164.687 30.2221 164.17 30.1187 163.674 30.0361L163.178 31.9581C164.294 32.1234 165.245 32.4541 166.03 32.9501C166.857 33.4047 167.622 34.0247 168.324 34.8101C169.027 35.5541 169.709 36.4634 170.37 37.5381C171.032 38.6127 171.755 39.8321 172.54 41.1961L177.624 50.0001H168.634L158.838 32.9501H148.732V50.0001H140.238V3.50008H158.962ZM148.732 25.3241H158.962C161.856 25.3241 164.088 24.7454 165.658 23.5881C167.229 22.3894 168.014 20.6121 168.014 18.2561C168.014 15.9001 167.229 14.1227 165.658 12.9241C164.088 11.7254 161.856 11.1261 158.962 11.1261H148.732V25.3241ZM184.498 3.50008H192.992V50.0001H184.498V3.50008ZM198.736 35.5541H207.726C207.726 36.5874 207.974 37.5587 208.47 38.4681C209.008 39.3774 209.752 40.1628 210.702 40.8241C211.653 41.4854 212.79 42.0021 214.112 42.3741C215.476 42.7461 216.964 42.9321 218.576 42.9321C221.842 42.9321 224.466 42.4154 226.45 41.3821C228.434 40.3488 229.426 38.7367 229.426 36.5461C229.426 35.1821 228.992 34.0867 228.124 33.2601C227.298 32.4334 226.202 31.7721 224.838 31.2761C223.474 30.7801 221.904 30.3874 220.126 30.0981C218.39 29.8088 216.613 29.4987 214.794 29.1681C212.976 28.7961 211.178 28.3621 209.4 27.8661C207.664 27.3288 206.114 26.5847 204.75 25.6341C203.386 24.6834 202.27 23.4641 201.402 21.9761C200.576 20.4881 200.162 18.6074 200.162 16.3341C200.162 14.3914 200.534 12.5934 201.278 10.9401C202.064 9.24542 203.221 7.79875 204.75 6.60008C206.28 5.36008 208.181 4.38875 210.454 3.68608C212.769 2.98341 215.476 2.63208 218.576 2.63208C221.676 2.63208 224.363 3.02475 226.636 3.81008C228.91 4.55408 230.811 5.56675 232.34 6.84808C233.87 8.12942 235.006 9.61742 235.75 11.3121C236.536 13.0068 236.949 14.8047 236.99 16.7061H228C228 15.9207 227.814 15.1561 227.442 14.4121C227.07 13.6267 226.492 12.9241 225.706 12.3041C224.962 11.6841 223.991 11.1881 222.792 10.8161C221.594 10.4441 220.188 10.2581 218.576 10.2581C215.311 10.2581 212.914 10.8161 211.384 11.9321C209.896 13.0067 209.152 14.4741 209.152 16.3341C209.152 17.5741 209.566 18.5454 210.392 19.2481C211.26 19.9094 212.376 20.4674 213.74 20.9221C215.104 21.3354 216.654 21.6661 218.39 21.9141C220.168 22.1621 221.966 22.4721 223.784 22.8441C225.603 23.1747 227.38 23.6294 229.116 24.2081C230.894 24.7454 232.464 25.5307 233.828 26.5641C235.192 27.5974 236.288 28.9201 237.114 30.5321C237.982 32.1027 238.416 34.1074 238.416 36.5461C238.416 38.6127 237.962 40.5141 237.052 42.2501C236.143 43.9861 234.82 45.4741 233.084 46.7141C231.39 47.9541 229.323 48.9254 226.884 49.6281C224.446 50.2894 221.676 50.6201 218.576 50.6201C215.476 50.6201 212.707 50.2481 210.268 49.5041C207.871 48.7188 205.804 47.6647 204.068 46.3421C202.374 44.9781 201.072 43.3868 200.162 41.5681C199.253 39.7081 198.778 37.7034 198.736 35.5541ZM244.197 50.0001V3.50008H253.311L265.711 26.8121C266.786 28.7961 267.489 30.5941 267.819 32.2061C268.191 33.8181 268.377 35.2647 268.377 36.5461V38.0341H270.423V36.5461C270.423 35.2647 270.589 33.8181 270.919 32.2061C271.291 30.5941 272.015 28.7961 273.089 26.8121L285.489 3.50008H294.603V50.0001H285.861V31.8341C285.861 30.3048 285.923 28.9201 286.047 27.6801C286.213 26.4401 286.399 25.3034 286.605 24.2701C286.812 23.2367 287.039 22.2654 287.287 21.3561C287.535 20.4467 287.763 19.5581 287.969 18.6901L285.985 18.1321C285.531 20.0334 284.828 22.1001 283.877 24.3321C282.968 26.5227 281.914 28.9407 280.715 31.5861L273.399 46.6521H265.401L258.085 31.5861C256.887 28.9407 255.812 26.5227 254.861 24.3321C253.952 22.1001 253.27 20.0334 252.815 18.1321L250.831 18.6901C251.038 19.5581 251.265 20.4467 251.513 21.3561C251.761 22.2654 251.989 23.2367 252.195 24.2701C252.402 25.3034 252.567 26.4401 252.691 27.6801C252.857 28.9201 252.939 30.3048 252.939 31.8341V50.0001H244.197Z" stroke="white" stroke-opacity="0.6" stroke-width="4" mask="url(#path-1-outside-1_788_969)"/>
</svg>
