<svg width="136" height="53" viewBox="0 0 136 53" fill="none" xmlns="http://www.w3.org/2000/svg">
<path d="M2.01978 2.50008H1.01978V3.50008V29.2301C1.01978 32.6905 1.39936 35.8017 2.17312 38.5528L2.17508 38.5598L2.17713 38.5667C2.99651 41.3267 4.23486 43.7066 5.90575 45.6853L5.9057 45.6853L5.91295 45.6937C7.59654 47.6431 9.71732 49.1181 12.2531 50.1237L12.2586 50.1258C14.8403 51.1322 17.8627 51.6201 21.3018 51.6201C24.7388 51.6201 27.742 51.1329 30.2853 50.1249C32.861 49.1204 35.0045 47.646 36.6906 45.6937L36.6906 45.6937L36.6978 45.6853C38.3704 43.7045 39.5886 41.3221 40.3664 38.56C41.1832 35.8057 41.5838 32.6919 41.5838 29.2301V3.50008V2.50008H40.5838H32.0898H31.0898V3.50008V29.2301C31.0898 33.7664 30.2542 36.9608 28.7487 38.9829C27.3052 40.8815 24.9095 41.9321 21.3018 41.9321C17.694 41.9321 15.2983 40.8815 13.8548 38.9828C12.3493 36.9607 11.5138 33.7663 11.5138 29.2301V3.50008V2.50008H10.5138H2.01978ZM47.5198 50.0001V51.0001H48.5198H65.7558C69.4864 51.0001 72.8308 50.4703 75.7728 49.3887L75.7729 49.3887L75.7849 49.3841C78.7203 48.2618 81.2048 46.6545 83.2178 44.554L83.2249 44.5465C85.2302 42.4103 86.7463 39.8474 87.7803 36.8746L87.7817 36.8704C88.8156 33.8551 89.3238 30.4775 89.3238 26.7501C89.3238 23.024 88.8159 19.6659 87.781 16.6897C86.7479 13.6774 85.2318 11.111 83.2215 9.01204C81.2075 6.86787 78.7197 5.25789 75.779 4.17578C72.8347 3.05098 69.4879 2.50008 65.7558 2.50008H48.5198H47.5198V3.50008V50.0001ZM93.4552 34.5541H92.4358L92.4554 35.5733C92.4995 37.8626 93.007 40.0113 93.9828 42.0073L93.9868 42.0153C94.9648 43.9713 96.3616 45.6734 98.1602 47.1211L98.1706 47.1294L98.1812 47.1375C100.019 48.5376 102.189 49.6396 104.676 50.4544L104.686 50.4576L104.695 50.4606C107.247 51.2389 110.117 51.6201 113.295 51.6201C116.464 51.6201 119.324 51.2822 121.865 50.5932L121.873 50.5912L121.88 50.589C124.407 49.861 126.583 48.8449 128.389 47.5245C130.239 46.2023 131.67 44.5994 132.657 42.7141C133.646 40.8271 134.135 38.7653 134.135 36.5461C134.135 34.0029 133.685 31.8221 132.716 30.0621C131.826 28.3306 130.638 26.8933 129.151 25.767C127.688 24.6589 126.014 23.8236 124.138 23.255C122.365 22.6644 120.549 22.2002 118.693 21.8622C116.859 21.4872 115.044 21.1744 113.249 20.9239C111.559 20.6824 110.065 20.3628 108.762 19.9691C107.49 19.5439 106.492 19.038 105.74 18.4695C105.182 17.9864 104.871 17.3162 104.871 16.3341C104.871 14.7901 105.465 13.6265 106.689 12.7428L106.693 12.7399C107.966 11.8107 110.105 11.2581 113.295 11.2581C114.834 11.2581 116.135 11.436 117.215 11.7711C118.323 12.1151 119.167 12.5575 119.785 13.0723L119.795 13.0808L119.806 13.089C120.488 13.628 120.961 14.2137 121.258 14.8402L121.262 14.8498L121.267 14.8593C121.574 15.4729 121.719 16.0852 121.719 16.7061V17.7061H122.719H131.709H132.731L132.709 16.6844C132.665 14.6511 132.222 12.7202 131.381 10.9007C130.57 9.05824 129.337 7.45155 127.701 6.08156C126.059 4.70536 124.042 3.63793 121.674 2.86221C119.272 2.03364 116.473 1.63208 113.295 1.63208C110.123 1.63208 107.314 1.99122 104.883 2.7292L104.883 2.72919L104.878 2.73068C102.511 3.46239 100.492 4.48543 98.846 5.81805C97.2005 7.10923 95.9433 8.67805 95.0899 10.5196L95.0899 10.5196L95.0853 10.5297C94.2792 12.3211 93.8812 14.2602 93.8812 16.3341C93.8812 18.7224 94.3148 20.7836 95.2471 22.4617L95.2522 22.4709L95.2575 22.48C96.1959 24.0888 97.41 25.4177 98.8975 26.4545C100.353 27.4693 101.998 28.2564 103.824 28.8214L103.837 28.8255L103.85 28.8293C105.651 29.3316 107.471 29.7711 109.313 30.1478L109.324 30.15L109.334 30.152C111.158 30.4835 112.94 30.7943 114.681 31.0845L114.685 31.0851C116.414 31.3667 117.922 31.7456 119.215 32.2159C120.474 32.6737 121.435 33.2657 122.136 33.9672L122.145 33.9758L122.154 33.9842C122.795 34.5954 123.145 35.4144 123.145 36.5461C123.145 37.486 122.934 38.2491 122.55 38.874C122.164 39.5001 121.568 40.0467 120.707 40.4952C118.916 41.4279 116.468 41.9321 113.295 41.9321C111.761 41.9321 110.364 41.7553 109.098 41.4104C107.865 41.0632 106.835 40.5896 105.992 40.0032C105.154 39.4197 104.516 38.7423 104.059 37.9743C103.648 37.2159 103.445 36.414 103.445 35.5541V34.5541H102.445H93.4552ZM65.7558 41.3121H58.0138V12.1261H65.7558C69.9695 12.1261 73.0562 13.3779 75.177 15.7592C77.3101 18.1542 78.4578 21.762 78.4578 26.7501C78.4578 31.736 77.3111 35.3429 75.1798 37.7379C73.0604 40.0787 69.9727 41.3121 65.7558 41.3121Z" stroke="white" stroke-opacity="0.6" stroke-width="2"/>
</svg>
