<svg width="32" height="26" viewBox="0 0 32 26" fill="none" xmlns="http://www.w3.org/2000/svg">
<path id="Vector 12" d="M1 18.5H0C0 19.0523 0.447715 19.5 1 19.5L1 18.5ZM31.7071 19.2071C32.0976 18.8166 32.0976 18.1834 31.7071 17.7929L25.3431 11.4289C24.9526 11.0384 24.3195 11.0384 23.9289 11.4289C23.5384 11.8195 23.5384 12.4526 23.9289 12.8431L29.5858 18.5L23.9289 24.1569C23.5384 24.5474 23.5384 25.1805 23.9289 25.5711C24.3195 25.9616 24.9526 25.9616 25.3431 25.5711L31.7071 19.2071ZM0 0V18.5H2V0H0ZM1 19.5H31V17.5H1V19.5Z" fill="white"/>
</svg>
